G04 EAGLE Gerber RS-274X export*
G75*
%MOMM*%
%FSLAX34Y34*%
%LPD*%
%IN*%
%IPPOS*%
%AMOC8*
5,1,8,0,0,1.08239X$1,22.5*%
G01*
%ADD10C,0.254000*%


D10*
X-285000Y-295000D02*
X-284393Y-298903D01*
X-283448Y-302738D01*
X-282173Y-306477D01*
X-280576Y-310089D01*
X-278671Y-313549D01*
X-276471Y-316830D01*
X-273994Y-319907D01*
X-271258Y-322756D01*
X-268284Y-325355D01*
X-265095Y-327686D01*
X-261715Y-329730D01*
X-258170Y-331471D01*
X-254486Y-332897D01*
X-250692Y-333996D01*
X-246817Y-334761D01*
X-242890Y-335185D01*
X-238941Y-335265D01*
X-235000Y-335000D01*
X5000Y-335000D01*
X8486Y-334848D01*
X11946Y-334392D01*
X15353Y-333637D01*
X18681Y-332588D01*
X21905Y-331252D01*
X25000Y-329641D01*
X27943Y-327766D01*
X30712Y-325642D01*
X33284Y-323284D01*
X35642Y-320712D01*
X37766Y-317943D01*
X39641Y-315000D01*
X41252Y-311905D01*
X42588Y-308681D01*
X43637Y-305353D01*
X44392Y-301946D01*
X44848Y-298486D01*
X45000Y-295000D01*
X45000Y295000D01*
X44848Y298486D01*
X44392Y301946D01*
X43637Y305353D01*
X42588Y308681D01*
X41252Y311905D01*
X39641Y315000D01*
X37766Y317943D01*
X35642Y320712D01*
X33284Y323284D01*
X30712Y325642D01*
X27943Y327766D01*
X25000Y329641D01*
X21905Y331252D01*
X18681Y332588D01*
X15353Y333637D01*
X11946Y334392D01*
X8486Y334848D01*
X5000Y335000D01*
X-235000Y335000D01*
X-239292Y334958D01*
X-243563Y334542D01*
X-247782Y333756D01*
X-251917Y332605D01*
X-255935Y331098D01*
X-259807Y329246D01*
X-263502Y327064D01*
X-266994Y324569D01*
X-270254Y321778D01*
X-273259Y318714D01*
X-275986Y315399D01*
X-278413Y311860D01*
X-280522Y308123D01*
X-282298Y304215D01*
X-283727Y300168D01*
X-284797Y296012D01*
X-285000Y295000D01*
X-285000Y-295000D01*
X12190Y-290111D02*
X12190Y-289129D01*
X12113Y-288150D01*
X11959Y-287180D01*
X11730Y-286224D01*
X11426Y-285290D01*
X11051Y-284383D01*
X10605Y-283508D01*
X10091Y-282670D01*
X9514Y-281875D01*
X8876Y-281128D01*
X8182Y-280434D01*
X7435Y-279796D01*
X6640Y-279219D01*
X5802Y-278705D01*
X4927Y-278259D01*
X4020Y-277884D01*
X3086Y-277580D01*
X2131Y-277351D01*
X1160Y-277197D01*
X181Y-277120D01*
X-801Y-277120D01*
X-1780Y-277197D01*
X-2751Y-277351D01*
X-3706Y-277580D01*
X-4640Y-277884D01*
X-5547Y-278259D01*
X-6422Y-278705D01*
X-7260Y-279219D01*
X-8055Y-279796D01*
X-8802Y-280434D01*
X-9496Y-281128D01*
X-10134Y-281875D01*
X-10711Y-282670D01*
X-11225Y-283508D01*
X-11671Y-284383D01*
X-12046Y-285290D01*
X-12350Y-286224D01*
X-12579Y-287180D01*
X-12733Y-288150D01*
X-12810Y-289129D01*
X-12810Y-290111D01*
X-12733Y-291090D01*
X-12579Y-292061D01*
X-12350Y-293016D01*
X-12046Y-293950D01*
X-11671Y-294857D01*
X-11225Y-295732D01*
X-10711Y-296570D01*
X-10134Y-297365D01*
X-9496Y-298112D01*
X-8802Y-298806D01*
X-8055Y-299444D01*
X-7260Y-300021D01*
X-6422Y-300535D01*
X-5547Y-300981D01*
X-4640Y-301356D01*
X-3706Y-301660D01*
X-2751Y-301889D01*
X-1780Y-302043D01*
X-801Y-302120D01*
X181Y-302120D01*
X1160Y-302043D01*
X2131Y-301889D01*
X3086Y-301660D01*
X4020Y-301356D01*
X4927Y-300981D01*
X5802Y-300535D01*
X6640Y-300021D01*
X7435Y-299444D01*
X8182Y-298806D01*
X8876Y-298112D01*
X9514Y-297365D01*
X10091Y-296570D01*
X10605Y-295732D01*
X11051Y-294857D01*
X11426Y-293950D01*
X11730Y-293016D01*
X11959Y-292061D01*
X12113Y-291090D01*
X12190Y-290111D01*
X-217810Y-290111D02*
X-217810Y-289129D01*
X-217887Y-288150D01*
X-218041Y-287180D01*
X-218270Y-286224D01*
X-218574Y-285290D01*
X-218949Y-284383D01*
X-219395Y-283508D01*
X-219909Y-282670D01*
X-220486Y-281875D01*
X-221124Y-281128D01*
X-221818Y-280434D01*
X-222565Y-279796D01*
X-223360Y-279219D01*
X-224198Y-278705D01*
X-225073Y-278259D01*
X-225980Y-277884D01*
X-226914Y-277580D01*
X-227870Y-277351D01*
X-228840Y-277197D01*
X-229819Y-277120D01*
X-230801Y-277120D01*
X-231780Y-277197D01*
X-232751Y-277351D01*
X-233706Y-277580D01*
X-234640Y-277884D01*
X-235547Y-278259D01*
X-236422Y-278705D01*
X-237260Y-279219D01*
X-238055Y-279796D01*
X-238802Y-280434D01*
X-239496Y-281128D01*
X-240134Y-281875D01*
X-240711Y-282670D01*
X-241225Y-283508D01*
X-241671Y-284383D01*
X-242046Y-285290D01*
X-242350Y-286224D01*
X-242579Y-287180D01*
X-242733Y-288150D01*
X-242810Y-289129D01*
X-242810Y-290111D01*
X-242733Y-291090D01*
X-242579Y-292061D01*
X-242350Y-293016D01*
X-242046Y-293950D01*
X-241671Y-294857D01*
X-241225Y-295732D01*
X-240711Y-296570D01*
X-240134Y-297365D01*
X-239496Y-298112D01*
X-238802Y-298806D01*
X-238055Y-299444D01*
X-237260Y-300021D01*
X-236422Y-300535D01*
X-235547Y-300981D01*
X-234640Y-301356D01*
X-233706Y-301660D01*
X-232751Y-301889D01*
X-231780Y-302043D01*
X-230801Y-302120D01*
X-229819Y-302120D01*
X-228840Y-302043D01*
X-227870Y-301889D01*
X-226914Y-301660D01*
X-225980Y-301356D01*
X-225073Y-300981D01*
X-224198Y-300535D01*
X-223360Y-300021D01*
X-222565Y-299444D01*
X-221818Y-298806D01*
X-221124Y-298112D01*
X-220486Y-297365D01*
X-219909Y-296570D01*
X-219395Y-295732D01*
X-218949Y-294857D01*
X-218574Y-293950D01*
X-218270Y-293016D01*
X-218041Y-292061D01*
X-217887Y-291090D01*
X-217810Y-290111D01*
X-217810Y289889D02*
X-217810Y290871D01*
X-217887Y291850D01*
X-218041Y292821D01*
X-218270Y293776D01*
X-218574Y294710D01*
X-218949Y295617D01*
X-219395Y296492D01*
X-219909Y297330D01*
X-220486Y298125D01*
X-221124Y298872D01*
X-221818Y299566D01*
X-222565Y300204D01*
X-223360Y300781D01*
X-224198Y301295D01*
X-225073Y301741D01*
X-225980Y302116D01*
X-226914Y302420D01*
X-227870Y302649D01*
X-228840Y302803D01*
X-229819Y302880D01*
X-230801Y302880D01*
X-231780Y302803D01*
X-232751Y302649D01*
X-233706Y302420D01*
X-234640Y302116D01*
X-235547Y301741D01*
X-236422Y301295D01*
X-237260Y300781D01*
X-238055Y300204D01*
X-238802Y299566D01*
X-239496Y298872D01*
X-240134Y298125D01*
X-240711Y297330D01*
X-241225Y296492D01*
X-241671Y295617D01*
X-242046Y294710D01*
X-242350Y293776D01*
X-242579Y292821D01*
X-242733Y291850D01*
X-242810Y290871D01*
X-242810Y289889D01*
X-242733Y288910D01*
X-242579Y287940D01*
X-242350Y286984D01*
X-242046Y286050D01*
X-241671Y285143D01*
X-241225Y284268D01*
X-240711Y283430D01*
X-240134Y282635D01*
X-239496Y281888D01*
X-238802Y281194D01*
X-238055Y280556D01*
X-237260Y279979D01*
X-236422Y279465D01*
X-235547Y279019D01*
X-234640Y278644D01*
X-233706Y278340D01*
X-232751Y278111D01*
X-231780Y277957D01*
X-230801Y277880D01*
X-229819Y277880D01*
X-228840Y277957D01*
X-227870Y278111D01*
X-226914Y278340D01*
X-225980Y278644D01*
X-225073Y279019D01*
X-224198Y279465D01*
X-223360Y279979D01*
X-222565Y280556D01*
X-221818Y281194D01*
X-221124Y281888D01*
X-220486Y282635D01*
X-219909Y283430D01*
X-219395Y284268D01*
X-218949Y285143D01*
X-218574Y286050D01*
X-218270Y286984D01*
X-218041Y287940D01*
X-217887Y288910D01*
X-217810Y289889D01*
X12190Y289889D02*
X12190Y290871D01*
X12113Y291850D01*
X11959Y292821D01*
X11730Y293776D01*
X11426Y294710D01*
X11051Y295617D01*
X10605Y296492D01*
X10091Y297330D01*
X9514Y298125D01*
X8876Y298872D01*
X8182Y299566D01*
X7435Y300204D01*
X6640Y300781D01*
X5802Y301295D01*
X4927Y301741D01*
X4020Y302116D01*
X3086Y302420D01*
X2131Y302649D01*
X1160Y302803D01*
X181Y302880D01*
X-801Y302880D01*
X-1780Y302803D01*
X-2751Y302649D01*
X-3706Y302420D01*
X-4640Y302116D01*
X-5547Y301741D01*
X-6422Y301295D01*
X-7260Y300781D01*
X-8055Y300204D01*
X-8802Y299566D01*
X-9496Y298872D01*
X-10134Y298125D01*
X-10711Y297330D01*
X-11225Y296492D01*
X-11671Y295617D01*
X-12046Y294710D01*
X-12350Y293776D01*
X-12579Y292821D01*
X-12733Y291850D01*
X-12810Y290871D01*
X-12810Y289889D01*
X-12733Y288910D01*
X-12579Y287940D01*
X-12350Y286984D01*
X-12046Y286050D01*
X-11671Y285143D01*
X-11225Y284268D01*
X-10711Y283430D01*
X-10134Y282635D01*
X-9496Y281888D01*
X-8802Y281194D01*
X-8055Y280556D01*
X-7260Y279979D01*
X-6422Y279465D01*
X-5547Y279019D01*
X-4640Y278644D01*
X-3706Y278340D01*
X-2751Y278111D01*
X-1780Y277957D01*
X-801Y277880D01*
X181Y277880D01*
X1160Y277957D01*
X2131Y278111D01*
X3086Y278340D01*
X4020Y278644D01*
X4927Y279019D01*
X5802Y279465D01*
X6640Y279979D01*
X7435Y280556D01*
X8182Y281194D01*
X8876Y281888D01*
X9514Y282635D01*
X10091Y283430D01*
X10605Y284268D01*
X11051Y285143D01*
X11426Y286050D01*
X11730Y286984D01*
X11959Y287940D01*
X12113Y288910D01*
X12190Y289889D01*
M02*
