G04 EAGLE Gerber RS-274X export*
G75*
%MOMM*%
%FSLAX34Y34*%
%LPD*%
%INSilkscreen Bottom*%
%IPPOS*%
%AMOC8*
5,1,8,0,0,1.08239X$1,22.5*%
G01*
%ADD10C,0.050800*%
%ADD11C,0.127000*%
%ADD12C,0.152400*%
%ADD13C,0.025400*%


D10*
X-250139Y159628D02*
X-250137Y159558D01*
X-250131Y159489D01*
X-250121Y159420D01*
X-250108Y159352D01*
X-250090Y159284D01*
X-250069Y159218D01*
X-250044Y159153D01*
X-250016Y159089D01*
X-249984Y159027D01*
X-249949Y158967D01*
X-249910Y158909D01*
X-249868Y158854D01*
X-249823Y158800D01*
X-249775Y158750D01*
X-249725Y158702D01*
X-249671Y158657D01*
X-249616Y158615D01*
X-249558Y158576D01*
X-249498Y158541D01*
X-249436Y158509D01*
X-249372Y158481D01*
X-249307Y158456D01*
X-249241Y158435D01*
X-249173Y158417D01*
X-249105Y158404D01*
X-249036Y158394D01*
X-248967Y158388D01*
X-248897Y158386D01*
X-248798Y158388D01*
X-248700Y158393D01*
X-248602Y158403D01*
X-248504Y158416D01*
X-248407Y158432D01*
X-248310Y158452D01*
X-248215Y158476D01*
X-248120Y158504D01*
X-248026Y158535D01*
X-247934Y158569D01*
X-247843Y158607D01*
X-247753Y158648D01*
X-247665Y158693D01*
X-247579Y158741D01*
X-247495Y158792D01*
X-247413Y158846D01*
X-247332Y158904D01*
X-247254Y158964D01*
X-247179Y159027D01*
X-247105Y159093D01*
X-247035Y159162D01*
X-247190Y162732D02*
X-247192Y162802D01*
X-247198Y162871D01*
X-247208Y162940D01*
X-247221Y163008D01*
X-247239Y163076D01*
X-247260Y163142D01*
X-247285Y163207D01*
X-247313Y163271D01*
X-247345Y163333D01*
X-247380Y163393D01*
X-247419Y163451D01*
X-247461Y163506D01*
X-247506Y163560D01*
X-247554Y163610D01*
X-247604Y163658D01*
X-247658Y163703D01*
X-247713Y163745D01*
X-247771Y163784D01*
X-247831Y163819D01*
X-247893Y163851D01*
X-247957Y163879D01*
X-248022Y163904D01*
X-248088Y163925D01*
X-248156Y163943D01*
X-248224Y163956D01*
X-248293Y163966D01*
X-248362Y163972D01*
X-248432Y163974D01*
X-248526Y163972D01*
X-248619Y163966D01*
X-248712Y163957D01*
X-248805Y163944D01*
X-248897Y163927D01*
X-248988Y163907D01*
X-249079Y163882D01*
X-249168Y163855D01*
X-249256Y163823D01*
X-249343Y163788D01*
X-249429Y163750D01*
X-249512Y163708D01*
X-249594Y163663D01*
X-249675Y163615D01*
X-249753Y163563D01*
X-249829Y163508D01*
X-247811Y161646D02*
X-247752Y161682D01*
X-247696Y161722D01*
X-247642Y161765D01*
X-247590Y161810D01*
X-247541Y161859D01*
X-247495Y161910D01*
X-247452Y161963D01*
X-247411Y162019D01*
X-247374Y162077D01*
X-247339Y162137D01*
X-247309Y162198D01*
X-247281Y162261D01*
X-247257Y162326D01*
X-247237Y162392D01*
X-247220Y162459D01*
X-247207Y162526D01*
X-247198Y162594D01*
X-247192Y162663D01*
X-247190Y162732D01*
X-249518Y160714D02*
X-249577Y160678D01*
X-249633Y160638D01*
X-249687Y160595D01*
X-249739Y160550D01*
X-249788Y160501D01*
X-249834Y160450D01*
X-249877Y160397D01*
X-249918Y160341D01*
X-249955Y160283D01*
X-249990Y160223D01*
X-250020Y160162D01*
X-250048Y160099D01*
X-250072Y160034D01*
X-250092Y159968D01*
X-250109Y159901D01*
X-250122Y159834D01*
X-250131Y159766D01*
X-250137Y159697D01*
X-250139Y159628D01*
X-249518Y160714D02*
X-247811Y161646D01*
X-252521Y163974D02*
X-252521Y158386D01*
X-252521Y163974D02*
X-254073Y163974D01*
X-254149Y163972D01*
X-254225Y163967D01*
X-254301Y163957D01*
X-254376Y163944D01*
X-254450Y163927D01*
X-254524Y163907D01*
X-254596Y163883D01*
X-254667Y163856D01*
X-254737Y163825D01*
X-254805Y163791D01*
X-254871Y163753D01*
X-254935Y163712D01*
X-254998Y163669D01*
X-255058Y163622D01*
X-255115Y163572D01*
X-255170Y163519D01*
X-255223Y163464D01*
X-255273Y163407D01*
X-255320Y163347D01*
X-255363Y163284D01*
X-255404Y163220D01*
X-255442Y163154D01*
X-255476Y163086D01*
X-255507Y163016D01*
X-255534Y162945D01*
X-255558Y162872D01*
X-255578Y162799D01*
X-255595Y162725D01*
X-255608Y162650D01*
X-255618Y162574D01*
X-255623Y162498D01*
X-255625Y162422D01*
X-255626Y162422D02*
X-255626Y159938D01*
X-255625Y159938D02*
X-255623Y159859D01*
X-255617Y159781D01*
X-255607Y159703D01*
X-255593Y159626D01*
X-255575Y159549D01*
X-255554Y159473D01*
X-255528Y159399D01*
X-255499Y159326D01*
X-255466Y159255D01*
X-255430Y159185D01*
X-255390Y159117D01*
X-255347Y159051D01*
X-255300Y158988D01*
X-255251Y158927D01*
X-255198Y158869D01*
X-255142Y158813D01*
X-255084Y158760D01*
X-255023Y158711D01*
X-254960Y158664D01*
X-254894Y158621D01*
X-254826Y158581D01*
X-254757Y158545D01*
X-254685Y158512D01*
X-254612Y158483D01*
X-254538Y158457D01*
X-254462Y158436D01*
X-254385Y158418D01*
X-254308Y158404D01*
X-254230Y158394D01*
X-254152Y158388D01*
X-254073Y158386D01*
X-252521Y158386D01*
X-257880Y158386D02*
X-259743Y163974D01*
X-261605Y158386D01*
X-261140Y159783D02*
X-258346Y159783D01*
X-229748Y158628D02*
X-229746Y158558D01*
X-229740Y158489D01*
X-229730Y158420D01*
X-229717Y158352D01*
X-229699Y158284D01*
X-229678Y158218D01*
X-229653Y158153D01*
X-229625Y158089D01*
X-229593Y158027D01*
X-229558Y157967D01*
X-229519Y157909D01*
X-229477Y157854D01*
X-229432Y157800D01*
X-229384Y157750D01*
X-229334Y157702D01*
X-229280Y157657D01*
X-229225Y157615D01*
X-229167Y157576D01*
X-229107Y157541D01*
X-229045Y157509D01*
X-228981Y157481D01*
X-228916Y157456D01*
X-228850Y157435D01*
X-228782Y157417D01*
X-228714Y157404D01*
X-228645Y157394D01*
X-228576Y157388D01*
X-228506Y157386D01*
X-228407Y157388D01*
X-228309Y157393D01*
X-228211Y157403D01*
X-228113Y157416D01*
X-228016Y157432D01*
X-227919Y157452D01*
X-227824Y157476D01*
X-227729Y157504D01*
X-227635Y157535D01*
X-227543Y157569D01*
X-227452Y157607D01*
X-227362Y157648D01*
X-227274Y157693D01*
X-227188Y157741D01*
X-227104Y157792D01*
X-227022Y157846D01*
X-226941Y157904D01*
X-226863Y157964D01*
X-226788Y158027D01*
X-226714Y158093D01*
X-226644Y158162D01*
X-226799Y161732D02*
X-226801Y161802D01*
X-226807Y161871D01*
X-226817Y161940D01*
X-226830Y162008D01*
X-226848Y162076D01*
X-226869Y162142D01*
X-226894Y162207D01*
X-226922Y162271D01*
X-226954Y162333D01*
X-226989Y162393D01*
X-227028Y162451D01*
X-227070Y162506D01*
X-227115Y162560D01*
X-227163Y162610D01*
X-227213Y162658D01*
X-227267Y162703D01*
X-227322Y162745D01*
X-227380Y162784D01*
X-227440Y162819D01*
X-227502Y162851D01*
X-227566Y162879D01*
X-227631Y162904D01*
X-227697Y162925D01*
X-227765Y162943D01*
X-227833Y162956D01*
X-227902Y162966D01*
X-227971Y162972D01*
X-228041Y162974D01*
X-228135Y162972D01*
X-228228Y162966D01*
X-228321Y162957D01*
X-228414Y162944D01*
X-228506Y162927D01*
X-228597Y162907D01*
X-228688Y162882D01*
X-228777Y162855D01*
X-228865Y162823D01*
X-228952Y162788D01*
X-229038Y162750D01*
X-229121Y162708D01*
X-229203Y162663D01*
X-229284Y162615D01*
X-229362Y162563D01*
X-229438Y162508D01*
X-227420Y160646D02*
X-227361Y160682D01*
X-227305Y160722D01*
X-227251Y160765D01*
X-227199Y160810D01*
X-227150Y160859D01*
X-227104Y160910D01*
X-227061Y160963D01*
X-227020Y161019D01*
X-226983Y161077D01*
X-226948Y161137D01*
X-226918Y161198D01*
X-226890Y161261D01*
X-226866Y161326D01*
X-226846Y161392D01*
X-226829Y161459D01*
X-226816Y161526D01*
X-226807Y161594D01*
X-226801Y161663D01*
X-226799Y161732D01*
X-229127Y159714D02*
X-229186Y159678D01*
X-229242Y159638D01*
X-229296Y159595D01*
X-229348Y159550D01*
X-229397Y159501D01*
X-229443Y159450D01*
X-229486Y159397D01*
X-229527Y159341D01*
X-229564Y159283D01*
X-229599Y159223D01*
X-229629Y159162D01*
X-229657Y159099D01*
X-229681Y159034D01*
X-229701Y158968D01*
X-229718Y158901D01*
X-229731Y158834D01*
X-229740Y158766D01*
X-229746Y158697D01*
X-229748Y158628D01*
X-229127Y159714D02*
X-227420Y160646D01*
X-233173Y157386D02*
X-234414Y157386D01*
X-233173Y157386D02*
X-233103Y157388D01*
X-233034Y157394D01*
X-232965Y157404D01*
X-232897Y157417D01*
X-232829Y157435D01*
X-232763Y157456D01*
X-232698Y157481D01*
X-232634Y157509D01*
X-232572Y157541D01*
X-232512Y157576D01*
X-232454Y157615D01*
X-232399Y157657D01*
X-232345Y157702D01*
X-232295Y157750D01*
X-232247Y157800D01*
X-232202Y157854D01*
X-232160Y157909D01*
X-232121Y157967D01*
X-232086Y158027D01*
X-232054Y158089D01*
X-232026Y158153D01*
X-232001Y158218D01*
X-231980Y158284D01*
X-231962Y158352D01*
X-231949Y158420D01*
X-231939Y158489D01*
X-231933Y158558D01*
X-231931Y158628D01*
X-231931Y161732D01*
X-231933Y161802D01*
X-231939Y161871D01*
X-231949Y161940D01*
X-231962Y162008D01*
X-231980Y162076D01*
X-232001Y162142D01*
X-232026Y162207D01*
X-232054Y162271D01*
X-232086Y162333D01*
X-232121Y162393D01*
X-232160Y162451D01*
X-232202Y162506D01*
X-232247Y162560D01*
X-232295Y162610D01*
X-232345Y162658D01*
X-232399Y162703D01*
X-232454Y162745D01*
X-232512Y162784D01*
X-232572Y162819D01*
X-232634Y162851D01*
X-232698Y162879D01*
X-232763Y162904D01*
X-232829Y162925D01*
X-232897Y162943D01*
X-232965Y162956D01*
X-233034Y162966D01*
X-233103Y162972D01*
X-233173Y162974D01*
X-234414Y162974D01*
X-236713Y162974D02*
X-236713Y157386D01*
X-239196Y157386D01*
X-205220Y160490D02*
X-204289Y160490D01*
X-205220Y160490D02*
X-205220Y157386D01*
X-203357Y157386D01*
X-203287Y157388D01*
X-203218Y157394D01*
X-203149Y157404D01*
X-203081Y157417D01*
X-203013Y157435D01*
X-202947Y157456D01*
X-202882Y157481D01*
X-202818Y157509D01*
X-202756Y157541D01*
X-202696Y157576D01*
X-202638Y157615D01*
X-202583Y157657D01*
X-202529Y157702D01*
X-202479Y157750D01*
X-202431Y157800D01*
X-202386Y157854D01*
X-202344Y157909D01*
X-202305Y157967D01*
X-202270Y158027D01*
X-202238Y158089D01*
X-202210Y158153D01*
X-202185Y158218D01*
X-202164Y158284D01*
X-202146Y158352D01*
X-202133Y158420D01*
X-202123Y158489D01*
X-202117Y158558D01*
X-202115Y158628D01*
X-202116Y158628D02*
X-202116Y161732D01*
X-202115Y161732D02*
X-202117Y161802D01*
X-202123Y161871D01*
X-202133Y161940D01*
X-202146Y162008D01*
X-202164Y162076D01*
X-202185Y162142D01*
X-202210Y162207D01*
X-202238Y162271D01*
X-202270Y162333D01*
X-202305Y162393D01*
X-202344Y162451D01*
X-202386Y162506D01*
X-202431Y162560D01*
X-202479Y162610D01*
X-202529Y162658D01*
X-202583Y162703D01*
X-202638Y162745D01*
X-202696Y162784D01*
X-202756Y162819D01*
X-202818Y162851D01*
X-202882Y162879D01*
X-202947Y162904D01*
X-203013Y162925D01*
X-203081Y162943D01*
X-203149Y162956D01*
X-203218Y162966D01*
X-203287Y162972D01*
X-203357Y162974D01*
X-205220Y162974D01*
X-207968Y162974D02*
X-207968Y157386D01*
X-211072Y157386D02*
X-207968Y162974D01*
X-211072Y162974D02*
X-211072Y157386D01*
X-213820Y157386D02*
X-213820Y162974D01*
X-215372Y162974D01*
X-215448Y162972D01*
X-215524Y162967D01*
X-215600Y162957D01*
X-215675Y162944D01*
X-215749Y162927D01*
X-215823Y162907D01*
X-215895Y162883D01*
X-215966Y162856D01*
X-216036Y162825D01*
X-216104Y162791D01*
X-216170Y162753D01*
X-216234Y162712D01*
X-216297Y162669D01*
X-216357Y162622D01*
X-216414Y162572D01*
X-216469Y162519D01*
X-216522Y162464D01*
X-216572Y162407D01*
X-216619Y162347D01*
X-216662Y162284D01*
X-216703Y162220D01*
X-216741Y162154D01*
X-216775Y162086D01*
X-216806Y162016D01*
X-216833Y161945D01*
X-216857Y161872D01*
X-216877Y161799D01*
X-216894Y161725D01*
X-216907Y161650D01*
X-216917Y161574D01*
X-216922Y161498D01*
X-216924Y161422D01*
X-216924Y158938D01*
X-216922Y158859D01*
X-216916Y158781D01*
X-216906Y158703D01*
X-216892Y158626D01*
X-216874Y158549D01*
X-216853Y158473D01*
X-216827Y158399D01*
X-216798Y158326D01*
X-216765Y158255D01*
X-216729Y158185D01*
X-216689Y158117D01*
X-216646Y158051D01*
X-216599Y157988D01*
X-216550Y157927D01*
X-216497Y157869D01*
X-216441Y157813D01*
X-216383Y157760D01*
X-216322Y157711D01*
X-216259Y157664D01*
X-216193Y157621D01*
X-216125Y157581D01*
X-216056Y157545D01*
X-215984Y157512D01*
X-215911Y157483D01*
X-215837Y157457D01*
X-215761Y157436D01*
X-215684Y157418D01*
X-215607Y157404D01*
X-215529Y157394D01*
X-215451Y157388D01*
X-215372Y157386D01*
X-213820Y157386D01*
X-170594Y140594D02*
X-170594Y139041D01*
X-170594Y140594D02*
X-170592Y140671D01*
X-170586Y140749D01*
X-170577Y140825D01*
X-170563Y140902D01*
X-170546Y140977D01*
X-170525Y141051D01*
X-170500Y141125D01*
X-170472Y141197D01*
X-170440Y141267D01*
X-170405Y141336D01*
X-170366Y141403D01*
X-170324Y141468D01*
X-170279Y141531D01*
X-170231Y141592D01*
X-170180Y141650D01*
X-170126Y141705D01*
X-170069Y141758D01*
X-170010Y141807D01*
X-169948Y141854D01*
X-169884Y141898D01*
X-169818Y141938D01*
X-169750Y141975D01*
X-169680Y142009D01*
X-169609Y142039D01*
X-169536Y142065D01*
X-169462Y142088D01*
X-169387Y142107D01*
X-169312Y142122D01*
X-169235Y142134D01*
X-169158Y142142D01*
X-169081Y142146D01*
X-169003Y142146D01*
X-168926Y142142D01*
X-168849Y142134D01*
X-168772Y142122D01*
X-168697Y142107D01*
X-168622Y142088D01*
X-168548Y142065D01*
X-168475Y142039D01*
X-168404Y142009D01*
X-168334Y141975D01*
X-168266Y141938D01*
X-168200Y141898D01*
X-168136Y141854D01*
X-168074Y141807D01*
X-168015Y141758D01*
X-167958Y141705D01*
X-167904Y141650D01*
X-167853Y141592D01*
X-167805Y141531D01*
X-167760Y141468D01*
X-167718Y141403D01*
X-167679Y141336D01*
X-167644Y141267D01*
X-167612Y141197D01*
X-167584Y141125D01*
X-167559Y141051D01*
X-167538Y140977D01*
X-167521Y140902D01*
X-167507Y140825D01*
X-167498Y140749D01*
X-167492Y140671D01*
X-167490Y140594D01*
X-165006Y140904D02*
X-165006Y139041D01*
X-165006Y140904D02*
X-165008Y140974D01*
X-165014Y141043D01*
X-165024Y141112D01*
X-165037Y141180D01*
X-165055Y141248D01*
X-165076Y141314D01*
X-165101Y141379D01*
X-165129Y141443D01*
X-165161Y141505D01*
X-165196Y141565D01*
X-165235Y141623D01*
X-165277Y141678D01*
X-165322Y141732D01*
X-165370Y141782D01*
X-165420Y141830D01*
X-165474Y141875D01*
X-165529Y141917D01*
X-165587Y141956D01*
X-165647Y141991D01*
X-165709Y142023D01*
X-165773Y142051D01*
X-165838Y142076D01*
X-165904Y142097D01*
X-165972Y142115D01*
X-166040Y142128D01*
X-166109Y142138D01*
X-166178Y142144D01*
X-166248Y142146D01*
X-166318Y142144D01*
X-166387Y142138D01*
X-166456Y142128D01*
X-166524Y142115D01*
X-166592Y142097D01*
X-166658Y142076D01*
X-166723Y142051D01*
X-166787Y142023D01*
X-166849Y141991D01*
X-166909Y141956D01*
X-166967Y141917D01*
X-167022Y141875D01*
X-167076Y141830D01*
X-167126Y141782D01*
X-167174Y141732D01*
X-167219Y141678D01*
X-167261Y141623D01*
X-167300Y141565D01*
X-167335Y141505D01*
X-167367Y141443D01*
X-167395Y141379D01*
X-167420Y141314D01*
X-167441Y141248D01*
X-167459Y141180D01*
X-167472Y141112D01*
X-167482Y141043D01*
X-167488Y140974D01*
X-167490Y140904D01*
X-167490Y139662D01*
X-165006Y144217D02*
X-170594Y146080D01*
X-165006Y147943D01*
X-170594Y150014D02*
X-170594Y151566D01*
X-170592Y151643D01*
X-170586Y151721D01*
X-170577Y151797D01*
X-170563Y151874D01*
X-170546Y151949D01*
X-170525Y152023D01*
X-170500Y152097D01*
X-170472Y152169D01*
X-170440Y152239D01*
X-170405Y152308D01*
X-170366Y152375D01*
X-170324Y152440D01*
X-170279Y152503D01*
X-170231Y152564D01*
X-170180Y152622D01*
X-170126Y152677D01*
X-170069Y152730D01*
X-170010Y152779D01*
X-169948Y152826D01*
X-169884Y152870D01*
X-169818Y152910D01*
X-169750Y152947D01*
X-169680Y152981D01*
X-169609Y153011D01*
X-169536Y153037D01*
X-169462Y153060D01*
X-169387Y153079D01*
X-169312Y153094D01*
X-169235Y153106D01*
X-169158Y153114D01*
X-169081Y153118D01*
X-169003Y153118D01*
X-168926Y153114D01*
X-168849Y153106D01*
X-168772Y153094D01*
X-168697Y153079D01*
X-168622Y153060D01*
X-168548Y153037D01*
X-168475Y153011D01*
X-168404Y152981D01*
X-168334Y152947D01*
X-168266Y152910D01*
X-168200Y152870D01*
X-168136Y152826D01*
X-168074Y152779D01*
X-168015Y152730D01*
X-167958Y152677D01*
X-167904Y152622D01*
X-167853Y152564D01*
X-167805Y152503D01*
X-167760Y152440D01*
X-167718Y152375D01*
X-167679Y152308D01*
X-167644Y152239D01*
X-167612Y152169D01*
X-167584Y152097D01*
X-167559Y152023D01*
X-167538Y151949D01*
X-167521Y151874D01*
X-167507Y151797D01*
X-167498Y151721D01*
X-167492Y151643D01*
X-167490Y151566D01*
X-165006Y151877D02*
X-165006Y150014D01*
X-165006Y151877D02*
X-165008Y151947D01*
X-165014Y152016D01*
X-165024Y152085D01*
X-165037Y152153D01*
X-165055Y152221D01*
X-165076Y152287D01*
X-165101Y152352D01*
X-165129Y152416D01*
X-165161Y152478D01*
X-165196Y152538D01*
X-165235Y152596D01*
X-165277Y152651D01*
X-165322Y152705D01*
X-165370Y152755D01*
X-165420Y152803D01*
X-165474Y152848D01*
X-165529Y152890D01*
X-165587Y152929D01*
X-165647Y152964D01*
X-165709Y152996D01*
X-165773Y153024D01*
X-165838Y153049D01*
X-165904Y153070D01*
X-165972Y153088D01*
X-166040Y153101D01*
X-166109Y153111D01*
X-166178Y153117D01*
X-166248Y153119D01*
X-166318Y153117D01*
X-166387Y153111D01*
X-166456Y153101D01*
X-166524Y153088D01*
X-166592Y153070D01*
X-166658Y153049D01*
X-166723Y153024D01*
X-166787Y152996D01*
X-166849Y152964D01*
X-166909Y152929D01*
X-166967Y152890D01*
X-167022Y152848D01*
X-167076Y152803D01*
X-167126Y152755D01*
X-167174Y152705D01*
X-167219Y152651D01*
X-167261Y152596D01*
X-167300Y152538D01*
X-167335Y152478D01*
X-167367Y152416D01*
X-167395Y152352D01*
X-167420Y152287D01*
X-167441Y152221D01*
X-167459Y152153D01*
X-167472Y152085D01*
X-167482Y152016D01*
X-167488Y151947D01*
X-167490Y151877D01*
X-167490Y150635D01*
D11*
X-173660Y135970D02*
X-273660Y135970D01*
X-273660Y265970D01*
X-173660Y265970D01*
X-173660Y135970D01*
X-263660Y219970D02*
X-263660Y252970D01*
X-263660Y219970D02*
X-233660Y219970D01*
X-233660Y252970D01*
X-263660Y252970D01*
X-218693Y235970D02*
X-218688Y236339D01*
X-218675Y236708D01*
X-218652Y237076D01*
X-218621Y237443D01*
X-218580Y237810D01*
X-218530Y238176D01*
X-218472Y238540D01*
X-218404Y238903D01*
X-218328Y239264D01*
X-218242Y239623D01*
X-218148Y239979D01*
X-218046Y240334D01*
X-217934Y240686D01*
X-217814Y241034D01*
X-217686Y241380D01*
X-217549Y241723D01*
X-217403Y242062D01*
X-217250Y242397D01*
X-217088Y242729D01*
X-216918Y243057D01*
X-216740Y243380D01*
X-216554Y243699D01*
X-216361Y244013D01*
X-216159Y244322D01*
X-215951Y244626D01*
X-215735Y244925D01*
X-215511Y245219D01*
X-215281Y245507D01*
X-215043Y245789D01*
X-214799Y246066D01*
X-214548Y246336D01*
X-214290Y246600D01*
X-214026Y246858D01*
X-213756Y247109D01*
X-213479Y247353D01*
X-213197Y247591D01*
X-212909Y247821D01*
X-212615Y248045D01*
X-212316Y248261D01*
X-212012Y248469D01*
X-211703Y248671D01*
X-211389Y248864D01*
X-211070Y249050D01*
X-210747Y249228D01*
X-210419Y249398D01*
X-210087Y249560D01*
X-209752Y249713D01*
X-209413Y249859D01*
X-209070Y249996D01*
X-208724Y250124D01*
X-208376Y250244D01*
X-208024Y250356D01*
X-207669Y250458D01*
X-207313Y250552D01*
X-206954Y250638D01*
X-206593Y250714D01*
X-206230Y250782D01*
X-205866Y250840D01*
X-205500Y250890D01*
X-205133Y250931D01*
X-204766Y250962D01*
X-204398Y250985D01*
X-204029Y250998D01*
X-203660Y251003D01*
X-203291Y250998D01*
X-202922Y250985D01*
X-202554Y250962D01*
X-202187Y250931D01*
X-201820Y250890D01*
X-201454Y250840D01*
X-201090Y250782D01*
X-200727Y250714D01*
X-200366Y250638D01*
X-200007Y250552D01*
X-199651Y250458D01*
X-199296Y250356D01*
X-198944Y250244D01*
X-198596Y250124D01*
X-198250Y249996D01*
X-197907Y249859D01*
X-197568Y249713D01*
X-197233Y249560D01*
X-196901Y249398D01*
X-196573Y249228D01*
X-196250Y249050D01*
X-195931Y248864D01*
X-195617Y248671D01*
X-195308Y248469D01*
X-195004Y248261D01*
X-194705Y248045D01*
X-194411Y247821D01*
X-194123Y247591D01*
X-193841Y247353D01*
X-193564Y247109D01*
X-193294Y246858D01*
X-193030Y246600D01*
X-192772Y246336D01*
X-192521Y246066D01*
X-192277Y245789D01*
X-192039Y245507D01*
X-191809Y245219D01*
X-191585Y244925D01*
X-191369Y244626D01*
X-191161Y244322D01*
X-190959Y244013D01*
X-190766Y243699D01*
X-190580Y243380D01*
X-190402Y243057D01*
X-190232Y242729D01*
X-190070Y242397D01*
X-189917Y242062D01*
X-189771Y241723D01*
X-189634Y241380D01*
X-189506Y241034D01*
X-189386Y240686D01*
X-189274Y240334D01*
X-189172Y239979D01*
X-189078Y239623D01*
X-188992Y239264D01*
X-188916Y238903D01*
X-188848Y238540D01*
X-188790Y238176D01*
X-188740Y237810D01*
X-188699Y237443D01*
X-188668Y237076D01*
X-188645Y236708D01*
X-188632Y236339D01*
X-188627Y235970D01*
X-188632Y235601D01*
X-188645Y235232D01*
X-188668Y234864D01*
X-188699Y234497D01*
X-188740Y234130D01*
X-188790Y233764D01*
X-188848Y233400D01*
X-188916Y233037D01*
X-188992Y232676D01*
X-189078Y232317D01*
X-189172Y231961D01*
X-189274Y231606D01*
X-189386Y231254D01*
X-189506Y230906D01*
X-189634Y230560D01*
X-189771Y230217D01*
X-189917Y229878D01*
X-190070Y229543D01*
X-190232Y229211D01*
X-190402Y228883D01*
X-190580Y228560D01*
X-190766Y228241D01*
X-190959Y227927D01*
X-191161Y227618D01*
X-191369Y227314D01*
X-191585Y227015D01*
X-191809Y226721D01*
X-192039Y226433D01*
X-192277Y226151D01*
X-192521Y225874D01*
X-192772Y225604D01*
X-193030Y225340D01*
X-193294Y225082D01*
X-193564Y224831D01*
X-193841Y224587D01*
X-194123Y224349D01*
X-194411Y224119D01*
X-194705Y223895D01*
X-195004Y223679D01*
X-195308Y223471D01*
X-195617Y223269D01*
X-195931Y223076D01*
X-196250Y222890D01*
X-196573Y222712D01*
X-196901Y222542D01*
X-197233Y222380D01*
X-197568Y222227D01*
X-197907Y222081D01*
X-198250Y221944D01*
X-198596Y221816D01*
X-198944Y221696D01*
X-199296Y221584D01*
X-199651Y221482D01*
X-200007Y221388D01*
X-200366Y221302D01*
X-200727Y221226D01*
X-201090Y221158D01*
X-201454Y221100D01*
X-201820Y221050D01*
X-202187Y221009D01*
X-202554Y220978D01*
X-202922Y220955D01*
X-203291Y220942D01*
X-203660Y220937D01*
X-204029Y220942D01*
X-204398Y220955D01*
X-204766Y220978D01*
X-205133Y221009D01*
X-205500Y221050D01*
X-205866Y221100D01*
X-206230Y221158D01*
X-206593Y221226D01*
X-206954Y221302D01*
X-207313Y221388D01*
X-207669Y221482D01*
X-208024Y221584D01*
X-208376Y221696D01*
X-208724Y221816D01*
X-209070Y221944D01*
X-209413Y222081D01*
X-209752Y222227D01*
X-210087Y222380D01*
X-210419Y222542D01*
X-210747Y222712D01*
X-211070Y222890D01*
X-211389Y223076D01*
X-211703Y223269D01*
X-212012Y223471D01*
X-212316Y223679D01*
X-212615Y223895D01*
X-212909Y224119D01*
X-213197Y224349D01*
X-213479Y224587D01*
X-213756Y224831D01*
X-214026Y225082D01*
X-214290Y225340D01*
X-214548Y225604D01*
X-214799Y225874D01*
X-215043Y226151D01*
X-215281Y226433D01*
X-215511Y226721D01*
X-215735Y227015D01*
X-215951Y227314D01*
X-216159Y227618D01*
X-216361Y227927D01*
X-216554Y228241D01*
X-216740Y228560D01*
X-216918Y228883D01*
X-217088Y229211D01*
X-217250Y229543D01*
X-217403Y229878D01*
X-217549Y230217D01*
X-217686Y230560D01*
X-217814Y230906D01*
X-217934Y231254D01*
X-218046Y231606D01*
X-218148Y231961D01*
X-218242Y232317D01*
X-218328Y232676D01*
X-218404Y233037D01*
X-218472Y233400D01*
X-218530Y233764D01*
X-218580Y234130D01*
X-218621Y234497D01*
X-218652Y234864D01*
X-218675Y235232D01*
X-218688Y235601D01*
X-218693Y235970D01*
X-242896Y226970D02*
X-242894Y227064D01*
X-242888Y227158D01*
X-242878Y227252D01*
X-242864Y227345D01*
X-242846Y227438D01*
X-242825Y227530D01*
X-242799Y227620D01*
X-242770Y227710D01*
X-242737Y227798D01*
X-242700Y227885D01*
X-242660Y227970D01*
X-242616Y228054D01*
X-242568Y228135D01*
X-242518Y228215D01*
X-242463Y228292D01*
X-242406Y228367D01*
X-242346Y228439D01*
X-242282Y228509D01*
X-242216Y228576D01*
X-242147Y228640D01*
X-242075Y228701D01*
X-242001Y228759D01*
X-241924Y228814D01*
X-241845Y228866D01*
X-241764Y228914D01*
X-241681Y228959D01*
X-241597Y229000D01*
X-241510Y229038D01*
X-241422Y229072D01*
X-241333Y229102D01*
X-241243Y229129D01*
X-241151Y229151D01*
X-241059Y229170D01*
X-240965Y229185D01*
X-240872Y229196D01*
X-240778Y229203D01*
X-240684Y229206D01*
X-240589Y229205D01*
X-240495Y229200D01*
X-240401Y229191D01*
X-240308Y229178D01*
X-240215Y229161D01*
X-240123Y229141D01*
X-240032Y229116D01*
X-239942Y229088D01*
X-239854Y229056D01*
X-239766Y229020D01*
X-239681Y228980D01*
X-239597Y228937D01*
X-239515Y228891D01*
X-239435Y228841D01*
X-239357Y228787D01*
X-239282Y228731D01*
X-239209Y228671D01*
X-239138Y228608D01*
X-239071Y228543D01*
X-239006Y228474D01*
X-238944Y228403D01*
X-238885Y228330D01*
X-238829Y228254D01*
X-238777Y228175D01*
X-238728Y228095D01*
X-238682Y228012D01*
X-238640Y227928D01*
X-238601Y227842D01*
X-238566Y227754D01*
X-238535Y227665D01*
X-238507Y227575D01*
X-238484Y227484D01*
X-238464Y227392D01*
X-238448Y227299D01*
X-238436Y227205D01*
X-238428Y227111D01*
X-238424Y227017D01*
X-238424Y226923D01*
X-238428Y226829D01*
X-238436Y226735D01*
X-238448Y226641D01*
X-238464Y226548D01*
X-238484Y226456D01*
X-238507Y226365D01*
X-238535Y226275D01*
X-238566Y226186D01*
X-238601Y226098D01*
X-238640Y226012D01*
X-238682Y225928D01*
X-238728Y225845D01*
X-238777Y225765D01*
X-238829Y225686D01*
X-238885Y225610D01*
X-238944Y225537D01*
X-239006Y225466D01*
X-239071Y225397D01*
X-239138Y225332D01*
X-239209Y225269D01*
X-239282Y225209D01*
X-239357Y225153D01*
X-239435Y225099D01*
X-239515Y225049D01*
X-239597Y225003D01*
X-239681Y224960D01*
X-239766Y224920D01*
X-239854Y224884D01*
X-239942Y224852D01*
X-240032Y224824D01*
X-240123Y224799D01*
X-240215Y224779D01*
X-240308Y224762D01*
X-240401Y224749D01*
X-240495Y224740D01*
X-240589Y224735D01*
X-240684Y224734D01*
X-240778Y224737D01*
X-240872Y224744D01*
X-240965Y224755D01*
X-241059Y224770D01*
X-241151Y224789D01*
X-241243Y224811D01*
X-241333Y224838D01*
X-241422Y224868D01*
X-241510Y224902D01*
X-241597Y224940D01*
X-241681Y224981D01*
X-241764Y225026D01*
X-241845Y225074D01*
X-241924Y225126D01*
X-242001Y225181D01*
X-242075Y225239D01*
X-242147Y225300D01*
X-242216Y225364D01*
X-242282Y225431D01*
X-242346Y225501D01*
X-242406Y225573D01*
X-242463Y225648D01*
X-242518Y225725D01*
X-242568Y225805D01*
X-242616Y225886D01*
X-242660Y225970D01*
X-242700Y226055D01*
X-242737Y226142D01*
X-242770Y226230D01*
X-242799Y226320D01*
X-242825Y226410D01*
X-242846Y226502D01*
X-242864Y226595D01*
X-242878Y226688D01*
X-242888Y226782D01*
X-242894Y226876D01*
X-242896Y226970D01*
D10*
X-177381Y272623D02*
X-175829Y272623D01*
X-177381Y272623D02*
X-177458Y272621D01*
X-177536Y272615D01*
X-177612Y272606D01*
X-177689Y272592D01*
X-177764Y272575D01*
X-177838Y272554D01*
X-177912Y272529D01*
X-177984Y272501D01*
X-178054Y272469D01*
X-178123Y272434D01*
X-178190Y272395D01*
X-178255Y272353D01*
X-178318Y272308D01*
X-178379Y272260D01*
X-178437Y272209D01*
X-178492Y272155D01*
X-178545Y272098D01*
X-178594Y272039D01*
X-178641Y271977D01*
X-178685Y271913D01*
X-178725Y271847D01*
X-178762Y271779D01*
X-178796Y271709D01*
X-178826Y271638D01*
X-178852Y271565D01*
X-178875Y271491D01*
X-178894Y271416D01*
X-178909Y271341D01*
X-178921Y271264D01*
X-178929Y271187D01*
X-178933Y271110D01*
X-178933Y271032D01*
X-178929Y270955D01*
X-178921Y270878D01*
X-178909Y270801D01*
X-178894Y270726D01*
X-178875Y270651D01*
X-178852Y270577D01*
X-178826Y270504D01*
X-178796Y270433D01*
X-178762Y270363D01*
X-178725Y270295D01*
X-178685Y270229D01*
X-178641Y270165D01*
X-178594Y270103D01*
X-178545Y270044D01*
X-178492Y269987D01*
X-178437Y269933D01*
X-178379Y269882D01*
X-178318Y269834D01*
X-178255Y269789D01*
X-178190Y269747D01*
X-178123Y269708D01*
X-178054Y269673D01*
X-177984Y269641D01*
X-177912Y269613D01*
X-177838Y269588D01*
X-177764Y269567D01*
X-177689Y269550D01*
X-177612Y269536D01*
X-177536Y269527D01*
X-177458Y269521D01*
X-177381Y269519D01*
X-175829Y269519D01*
X-175829Y275107D01*
X-177381Y275107D01*
X-177451Y275105D01*
X-177520Y275099D01*
X-177589Y275089D01*
X-177657Y275076D01*
X-177725Y275058D01*
X-177791Y275037D01*
X-177856Y275012D01*
X-177920Y274984D01*
X-177982Y274952D01*
X-178042Y274917D01*
X-178100Y274878D01*
X-178155Y274836D01*
X-178209Y274791D01*
X-178259Y274743D01*
X-178307Y274693D01*
X-178352Y274639D01*
X-178394Y274584D01*
X-178433Y274526D01*
X-178468Y274466D01*
X-178500Y274404D01*
X-178528Y274340D01*
X-178553Y274275D01*
X-178574Y274209D01*
X-178592Y274141D01*
X-178605Y274073D01*
X-178615Y274004D01*
X-178621Y273935D01*
X-178623Y273865D01*
X-178621Y273795D01*
X-178615Y273726D01*
X-178605Y273657D01*
X-178592Y273589D01*
X-178574Y273521D01*
X-178553Y273455D01*
X-178528Y273390D01*
X-178500Y273326D01*
X-178468Y273264D01*
X-178433Y273204D01*
X-178394Y273146D01*
X-178352Y273091D01*
X-178307Y273037D01*
X-178259Y272987D01*
X-178209Y272939D01*
X-178155Y272894D01*
X-178100Y272852D01*
X-178042Y272813D01*
X-177982Y272778D01*
X-177920Y272746D01*
X-177856Y272718D01*
X-177791Y272693D01*
X-177725Y272672D01*
X-177657Y272654D01*
X-177589Y272641D01*
X-177520Y272631D01*
X-177451Y272625D01*
X-177381Y272623D01*
X-181288Y275107D02*
X-181288Y269519D01*
X-183150Y272003D02*
X-181288Y275107D01*
X-183150Y272003D02*
X-185013Y275107D01*
X-185013Y269519D01*
X-187899Y269519D02*
X-187899Y275107D01*
X-189451Y275107D01*
X-189528Y275105D01*
X-189606Y275099D01*
X-189682Y275090D01*
X-189759Y275076D01*
X-189834Y275059D01*
X-189908Y275038D01*
X-189982Y275013D01*
X-190054Y274985D01*
X-190124Y274953D01*
X-190193Y274918D01*
X-190260Y274879D01*
X-190325Y274837D01*
X-190388Y274792D01*
X-190449Y274744D01*
X-190507Y274693D01*
X-190562Y274639D01*
X-190615Y274582D01*
X-190664Y274523D01*
X-190711Y274461D01*
X-190755Y274397D01*
X-190795Y274331D01*
X-190832Y274263D01*
X-190866Y274193D01*
X-190896Y274122D01*
X-190922Y274049D01*
X-190945Y273975D01*
X-190964Y273900D01*
X-190979Y273825D01*
X-190991Y273748D01*
X-190999Y273671D01*
X-191003Y273594D01*
X-191003Y273516D01*
X-190999Y273439D01*
X-190991Y273362D01*
X-190979Y273285D01*
X-190964Y273210D01*
X-190945Y273135D01*
X-190922Y273061D01*
X-190896Y272988D01*
X-190866Y272917D01*
X-190832Y272847D01*
X-190795Y272779D01*
X-190755Y272713D01*
X-190711Y272649D01*
X-190664Y272587D01*
X-190615Y272528D01*
X-190562Y272471D01*
X-190507Y272417D01*
X-190449Y272366D01*
X-190388Y272318D01*
X-190325Y272273D01*
X-190260Y272231D01*
X-190193Y272192D01*
X-190124Y272157D01*
X-190054Y272125D01*
X-189982Y272097D01*
X-189908Y272072D01*
X-189834Y272051D01*
X-189759Y272034D01*
X-189682Y272020D01*
X-189606Y272011D01*
X-189528Y272005D01*
X-189451Y272003D01*
X-187899Y272003D01*
X-193120Y273865D02*
X-194672Y275107D01*
X-194672Y269519D01*
X-193120Y269519D02*
X-196224Y269519D01*
X-116388Y256604D02*
X-115146Y256604D01*
X-115076Y256606D01*
X-115007Y256612D01*
X-114938Y256622D01*
X-114870Y256635D01*
X-114802Y256653D01*
X-114736Y256674D01*
X-114671Y256699D01*
X-114607Y256727D01*
X-114545Y256759D01*
X-114485Y256794D01*
X-114427Y256833D01*
X-114372Y256875D01*
X-114318Y256920D01*
X-114268Y256968D01*
X-114220Y257018D01*
X-114175Y257072D01*
X-114133Y257127D01*
X-114094Y257185D01*
X-114059Y257245D01*
X-114027Y257307D01*
X-113999Y257371D01*
X-113974Y257436D01*
X-113953Y257502D01*
X-113935Y257570D01*
X-113922Y257638D01*
X-113912Y257707D01*
X-113906Y257776D01*
X-113904Y257846D01*
X-113904Y260950D01*
X-113906Y261020D01*
X-113912Y261089D01*
X-113922Y261158D01*
X-113935Y261226D01*
X-113953Y261294D01*
X-113974Y261360D01*
X-113999Y261425D01*
X-114027Y261489D01*
X-114059Y261551D01*
X-114094Y261611D01*
X-114133Y261669D01*
X-114175Y261724D01*
X-114220Y261778D01*
X-114268Y261828D01*
X-114318Y261876D01*
X-114372Y261921D01*
X-114427Y261963D01*
X-114485Y262002D01*
X-114545Y262037D01*
X-114607Y262069D01*
X-114671Y262097D01*
X-114736Y262122D01*
X-114802Y262143D01*
X-114870Y262161D01*
X-114938Y262174D01*
X-115007Y262184D01*
X-115076Y262190D01*
X-115146Y262192D01*
X-116388Y262192D01*
X-118492Y256604D02*
X-120044Y256604D01*
X-120121Y256606D01*
X-120199Y256612D01*
X-120275Y256621D01*
X-120352Y256635D01*
X-120427Y256652D01*
X-120501Y256673D01*
X-120575Y256698D01*
X-120647Y256726D01*
X-120717Y256758D01*
X-120786Y256793D01*
X-120853Y256832D01*
X-120918Y256874D01*
X-120981Y256919D01*
X-121042Y256967D01*
X-121100Y257018D01*
X-121155Y257072D01*
X-121208Y257129D01*
X-121257Y257188D01*
X-121304Y257250D01*
X-121348Y257314D01*
X-121388Y257380D01*
X-121425Y257448D01*
X-121459Y257518D01*
X-121489Y257589D01*
X-121515Y257662D01*
X-121538Y257736D01*
X-121557Y257811D01*
X-121572Y257886D01*
X-121584Y257963D01*
X-121592Y258040D01*
X-121596Y258117D01*
X-121596Y258195D01*
X-121592Y258272D01*
X-121584Y258349D01*
X-121572Y258426D01*
X-121557Y258501D01*
X-121538Y258576D01*
X-121515Y258650D01*
X-121489Y258723D01*
X-121459Y258794D01*
X-121425Y258864D01*
X-121388Y258932D01*
X-121348Y258998D01*
X-121304Y259062D01*
X-121257Y259124D01*
X-121208Y259183D01*
X-121155Y259240D01*
X-121100Y259294D01*
X-121042Y259345D01*
X-120981Y259393D01*
X-120918Y259438D01*
X-120853Y259480D01*
X-120786Y259519D01*
X-120717Y259554D01*
X-120647Y259586D01*
X-120575Y259614D01*
X-120501Y259639D01*
X-120427Y259660D01*
X-120352Y259677D01*
X-120275Y259691D01*
X-120199Y259700D01*
X-120121Y259706D01*
X-120044Y259708D01*
X-120355Y262192D02*
X-118492Y262192D01*
X-120355Y262192D02*
X-120425Y262190D01*
X-120494Y262184D01*
X-120563Y262174D01*
X-120631Y262161D01*
X-120699Y262143D01*
X-120765Y262122D01*
X-120830Y262097D01*
X-120894Y262069D01*
X-120956Y262037D01*
X-121016Y262002D01*
X-121074Y261963D01*
X-121129Y261921D01*
X-121183Y261876D01*
X-121233Y261828D01*
X-121281Y261778D01*
X-121326Y261724D01*
X-121368Y261669D01*
X-121407Y261611D01*
X-121442Y261551D01*
X-121474Y261489D01*
X-121502Y261425D01*
X-121527Y261360D01*
X-121548Y261294D01*
X-121566Y261226D01*
X-121579Y261158D01*
X-121589Y261089D01*
X-121595Y261020D01*
X-121597Y260950D01*
X-121595Y260880D01*
X-121589Y260811D01*
X-121579Y260742D01*
X-121566Y260674D01*
X-121548Y260606D01*
X-121527Y260540D01*
X-121502Y260475D01*
X-121474Y260411D01*
X-121442Y260349D01*
X-121407Y260289D01*
X-121368Y260231D01*
X-121326Y260176D01*
X-121281Y260122D01*
X-121233Y260072D01*
X-121183Y260024D01*
X-121129Y259979D01*
X-121074Y259937D01*
X-121016Y259898D01*
X-120956Y259863D01*
X-120894Y259831D01*
X-120830Y259803D01*
X-120765Y259778D01*
X-120699Y259757D01*
X-120631Y259739D01*
X-120563Y259726D01*
X-120494Y259716D01*
X-120425Y259710D01*
X-120355Y259708D01*
X-119113Y259708D01*
X-111855Y223916D02*
X-110302Y222674D01*
X-111855Y223916D02*
X-111855Y218328D01*
X-113407Y218328D02*
X-110302Y218328D01*
X-115789Y221122D02*
X-115791Y221253D01*
X-115796Y221383D01*
X-115806Y221513D01*
X-115819Y221643D01*
X-115835Y221773D01*
X-115855Y221902D01*
X-115879Y222030D01*
X-115907Y222157D01*
X-115938Y222284D01*
X-115973Y222410D01*
X-116011Y222535D01*
X-116053Y222659D01*
X-116098Y222781D01*
X-116147Y222902D01*
X-116199Y223022D01*
X-116255Y223140D01*
X-116254Y223140D02*
X-116277Y223200D01*
X-116303Y223260D01*
X-116332Y223317D01*
X-116365Y223373D01*
X-116401Y223427D01*
X-116439Y223479D01*
X-116481Y223529D01*
X-116525Y223576D01*
X-116572Y223621D01*
X-116622Y223663D01*
X-116673Y223702D01*
X-116727Y223738D01*
X-116783Y223771D01*
X-116840Y223801D01*
X-116899Y223828D01*
X-116960Y223851D01*
X-117021Y223871D01*
X-117084Y223887D01*
X-117148Y223900D01*
X-117212Y223909D01*
X-117276Y223914D01*
X-117341Y223916D01*
X-117406Y223914D01*
X-117470Y223909D01*
X-117534Y223900D01*
X-117598Y223887D01*
X-117661Y223871D01*
X-117722Y223851D01*
X-117783Y223828D01*
X-117842Y223801D01*
X-117899Y223771D01*
X-117955Y223738D01*
X-118009Y223702D01*
X-118060Y223663D01*
X-118110Y223621D01*
X-118157Y223576D01*
X-118201Y223529D01*
X-118243Y223479D01*
X-118281Y223427D01*
X-118317Y223373D01*
X-118350Y223317D01*
X-118379Y223260D01*
X-118405Y223200D01*
X-118428Y223140D01*
X-118427Y223140D02*
X-118483Y223022D01*
X-118535Y222902D01*
X-118584Y222781D01*
X-118629Y222659D01*
X-118671Y222535D01*
X-118709Y222410D01*
X-118744Y222284D01*
X-118775Y222158D01*
X-118803Y222030D01*
X-118827Y221902D01*
X-118847Y221773D01*
X-118863Y221643D01*
X-118876Y221513D01*
X-118886Y221383D01*
X-118891Y221253D01*
X-118893Y221122D01*
X-115789Y221122D02*
X-115791Y220991D01*
X-115796Y220861D01*
X-115806Y220731D01*
X-115819Y220601D01*
X-115835Y220471D01*
X-115855Y220342D01*
X-115879Y220214D01*
X-115907Y220087D01*
X-115938Y219960D01*
X-115973Y219834D01*
X-116011Y219709D01*
X-116053Y219585D01*
X-116098Y219463D01*
X-116147Y219342D01*
X-116199Y219222D01*
X-116255Y219104D01*
X-116254Y219104D02*
X-116277Y219044D01*
X-116303Y218984D01*
X-116332Y218927D01*
X-116365Y218871D01*
X-116401Y218817D01*
X-116439Y218765D01*
X-116481Y218715D01*
X-116525Y218668D01*
X-116572Y218623D01*
X-116622Y218581D01*
X-116673Y218542D01*
X-116727Y218506D01*
X-116783Y218473D01*
X-116840Y218443D01*
X-116899Y218416D01*
X-116960Y218393D01*
X-117021Y218373D01*
X-117084Y218357D01*
X-117148Y218344D01*
X-117212Y218335D01*
X-117276Y218330D01*
X-117341Y218328D01*
X-118427Y219104D02*
X-118483Y219222D01*
X-118535Y219342D01*
X-118584Y219463D01*
X-118629Y219585D01*
X-118671Y219709D01*
X-118709Y219834D01*
X-118744Y219960D01*
X-118775Y220086D01*
X-118803Y220214D01*
X-118827Y220342D01*
X-118847Y220471D01*
X-118863Y220601D01*
X-118876Y220731D01*
X-118886Y220861D01*
X-118891Y220991D01*
X-118893Y221122D01*
X-118428Y219104D02*
X-118405Y219044D01*
X-118379Y218984D01*
X-118350Y218927D01*
X-118317Y218871D01*
X-118281Y218817D01*
X-118243Y218765D01*
X-118201Y218715D01*
X-118157Y218668D01*
X-118110Y218623D01*
X-118060Y218581D01*
X-118009Y218542D01*
X-117955Y218506D01*
X-117899Y218473D01*
X-117842Y218443D01*
X-117783Y218416D01*
X-117722Y218393D01*
X-117661Y218373D01*
X-117598Y218357D01*
X-117534Y218344D01*
X-117470Y218335D01*
X-117406Y218330D01*
X-117341Y218328D01*
X-116099Y219570D02*
X-118583Y222674D01*
X-121604Y222053D02*
X-121604Y216465D01*
X-124088Y219570D02*
X-124088Y222053D01*
X-124088Y219570D02*
X-124086Y219500D01*
X-124080Y219431D01*
X-124070Y219362D01*
X-124057Y219294D01*
X-124039Y219226D01*
X-124018Y219160D01*
X-123993Y219095D01*
X-123965Y219031D01*
X-123933Y218969D01*
X-123898Y218909D01*
X-123859Y218851D01*
X-123817Y218796D01*
X-123772Y218742D01*
X-123724Y218692D01*
X-123674Y218644D01*
X-123620Y218599D01*
X-123565Y218557D01*
X-123507Y218518D01*
X-123447Y218483D01*
X-123385Y218451D01*
X-123321Y218423D01*
X-123256Y218398D01*
X-123190Y218377D01*
X-123122Y218359D01*
X-123054Y218346D01*
X-122985Y218336D01*
X-122916Y218330D01*
X-122846Y218328D01*
X-122776Y218330D01*
X-122707Y218336D01*
X-122638Y218346D01*
X-122570Y218359D01*
X-122502Y218377D01*
X-122436Y218398D01*
X-122371Y218423D01*
X-122307Y218451D01*
X-122245Y218483D01*
X-122185Y218518D01*
X-122127Y218557D01*
X-122072Y218599D01*
X-122018Y218644D01*
X-121968Y218692D01*
X-121920Y218742D01*
X-121875Y218796D01*
X-121833Y218851D01*
X-121794Y218909D01*
X-121759Y218969D01*
X-121727Y219031D01*
X-121699Y219095D01*
X-121674Y219160D01*
X-121653Y219226D01*
X-121635Y219294D01*
X-121622Y219362D01*
X-121612Y219431D01*
X-121606Y219500D01*
X-121604Y219570D01*
X-124088Y219570D02*
X-124088Y218949D01*
X-124090Y218900D01*
X-124096Y218852D01*
X-124105Y218804D01*
X-124118Y218757D01*
X-124135Y218711D01*
X-124156Y218667D01*
X-124180Y218625D01*
X-124207Y218584D01*
X-124237Y218546D01*
X-124270Y218510D01*
X-124306Y218477D01*
X-124344Y218447D01*
X-124385Y218419D01*
X-124427Y218396D01*
X-124471Y218375D01*
X-124517Y218358D01*
X-124564Y218345D01*
X-124612Y218336D01*
X-124660Y218330D01*
X-124709Y218328D01*
X-126772Y218328D02*
X-126772Y223916D01*
X-129256Y223916D01*
X-129256Y221432D02*
X-126772Y221432D01*
X-141622Y193117D02*
X-141622Y191875D01*
X-141620Y191805D01*
X-141614Y191736D01*
X-141604Y191667D01*
X-141591Y191599D01*
X-141573Y191531D01*
X-141552Y191465D01*
X-141527Y191400D01*
X-141499Y191336D01*
X-141467Y191274D01*
X-141432Y191214D01*
X-141393Y191156D01*
X-141351Y191101D01*
X-141306Y191047D01*
X-141258Y190997D01*
X-141208Y190949D01*
X-141154Y190904D01*
X-141099Y190862D01*
X-141041Y190823D01*
X-140981Y190788D01*
X-140919Y190756D01*
X-140855Y190728D01*
X-140790Y190703D01*
X-140724Y190682D01*
X-140656Y190664D01*
X-140588Y190651D01*
X-140519Y190641D01*
X-140450Y190635D01*
X-140380Y190633D01*
X-137276Y190633D01*
X-137206Y190635D01*
X-137137Y190641D01*
X-137068Y190651D01*
X-137000Y190664D01*
X-136932Y190682D01*
X-136866Y190703D01*
X-136801Y190728D01*
X-136737Y190756D01*
X-136675Y190788D01*
X-136615Y190823D01*
X-136557Y190862D01*
X-136502Y190904D01*
X-136448Y190949D01*
X-136398Y190997D01*
X-136350Y191047D01*
X-136305Y191101D01*
X-136263Y191156D01*
X-136224Y191214D01*
X-136189Y191274D01*
X-136157Y191336D01*
X-136129Y191400D01*
X-136104Y191465D01*
X-136083Y191531D01*
X-136065Y191599D01*
X-136052Y191667D01*
X-136042Y191736D01*
X-136036Y191805D01*
X-136034Y191875D01*
X-136034Y193117D01*
X-136034Y196463D02*
X-140380Y195222D01*
X-140380Y198326D01*
X-139138Y197395D02*
X-141622Y197395D01*
X-136154Y206720D02*
X-136156Y206793D01*
X-136162Y206866D01*
X-136171Y206939D01*
X-136185Y207010D01*
X-136202Y207082D01*
X-136222Y207152D01*
X-136247Y207221D01*
X-136275Y207288D01*
X-136306Y207354D01*
X-136341Y207419D01*
X-136379Y207481D01*
X-136421Y207541D01*
X-136465Y207599D01*
X-136513Y207655D01*
X-136563Y207708D01*
X-136616Y207758D01*
X-136672Y207806D01*
X-136730Y207850D01*
X-136790Y207892D01*
X-136853Y207930D01*
X-136917Y207965D01*
X-136983Y207996D01*
X-137050Y208024D01*
X-137119Y208049D01*
X-137189Y208069D01*
X-137261Y208086D01*
X-137332Y208100D01*
X-137405Y208109D01*
X-137478Y208115D01*
X-137551Y208117D01*
X-136154Y206720D02*
X-136156Y206636D01*
X-136162Y206553D01*
X-136171Y206470D01*
X-136185Y206387D01*
X-136202Y206306D01*
X-136224Y206225D01*
X-136249Y206145D01*
X-136277Y206067D01*
X-136309Y205989D01*
X-136345Y205914D01*
X-136384Y205840D01*
X-136427Y205768D01*
X-136473Y205698D01*
X-136522Y205631D01*
X-136575Y205565D01*
X-136630Y205503D01*
X-136688Y205443D01*
X-136749Y205385D01*
X-136812Y205331D01*
X-136878Y205279D01*
X-136946Y205231D01*
X-137017Y205186D01*
X-137089Y205144D01*
X-137164Y205106D01*
X-137240Y205071D01*
X-137317Y205040D01*
X-137396Y205012D01*
X-138637Y207650D02*
X-138584Y207704D01*
X-138527Y207755D01*
X-138468Y207803D01*
X-138407Y207848D01*
X-138344Y207889D01*
X-138278Y207928D01*
X-138211Y207963D01*
X-138142Y207995D01*
X-138071Y208023D01*
X-138000Y208047D01*
X-137927Y208068D01*
X-137853Y208085D01*
X-137778Y208099D01*
X-137703Y208108D01*
X-137627Y208114D01*
X-137551Y208116D01*
X-138638Y207651D02*
X-141742Y205012D01*
X-141742Y208117D01*
X-137551Y213603D02*
X-137478Y213601D01*
X-137405Y213595D01*
X-137332Y213586D01*
X-137261Y213572D01*
X-137189Y213555D01*
X-137119Y213535D01*
X-137050Y213510D01*
X-136983Y213482D01*
X-136917Y213451D01*
X-136853Y213416D01*
X-136790Y213378D01*
X-136730Y213336D01*
X-136672Y213292D01*
X-136616Y213244D01*
X-136563Y213194D01*
X-136513Y213141D01*
X-136465Y213085D01*
X-136421Y213027D01*
X-136379Y212967D01*
X-136341Y212905D01*
X-136306Y212840D01*
X-136275Y212774D01*
X-136247Y212707D01*
X-136222Y212638D01*
X-136202Y212568D01*
X-136185Y212496D01*
X-136171Y212425D01*
X-136162Y212352D01*
X-136156Y212279D01*
X-136154Y212206D01*
X-136156Y212122D01*
X-136162Y212039D01*
X-136171Y211956D01*
X-136185Y211873D01*
X-136202Y211792D01*
X-136224Y211711D01*
X-136249Y211631D01*
X-136277Y211553D01*
X-136309Y211475D01*
X-136345Y211400D01*
X-136384Y211326D01*
X-136427Y211254D01*
X-136473Y211184D01*
X-136522Y211117D01*
X-136575Y211051D01*
X-136630Y210989D01*
X-136688Y210929D01*
X-136749Y210871D01*
X-136812Y210817D01*
X-136878Y210765D01*
X-136946Y210717D01*
X-137017Y210672D01*
X-137089Y210630D01*
X-137164Y210592D01*
X-137240Y210557D01*
X-137317Y210526D01*
X-137396Y210498D01*
X-138637Y213137D02*
X-138584Y213191D01*
X-138527Y213242D01*
X-138468Y213290D01*
X-138407Y213335D01*
X-138344Y213376D01*
X-138278Y213415D01*
X-138211Y213450D01*
X-138142Y213482D01*
X-138071Y213510D01*
X-138000Y213534D01*
X-137927Y213555D01*
X-137853Y213572D01*
X-137778Y213586D01*
X-137703Y213595D01*
X-137627Y213601D01*
X-137551Y213603D01*
X-138638Y213137D02*
X-141742Y210499D01*
X-141742Y213603D01*
X-143605Y216314D02*
X-138017Y216314D01*
X-138017Y218798D02*
X-140500Y218798D01*
X-140570Y218796D01*
X-140639Y218790D01*
X-140708Y218780D01*
X-140776Y218767D01*
X-140844Y218749D01*
X-140910Y218728D01*
X-140975Y218703D01*
X-141039Y218675D01*
X-141101Y218643D01*
X-141161Y218608D01*
X-141219Y218569D01*
X-141274Y218527D01*
X-141328Y218482D01*
X-141378Y218434D01*
X-141426Y218384D01*
X-141471Y218330D01*
X-141513Y218275D01*
X-141552Y218217D01*
X-141587Y218157D01*
X-141619Y218095D01*
X-141647Y218031D01*
X-141672Y217966D01*
X-141693Y217900D01*
X-141711Y217832D01*
X-141724Y217764D01*
X-141734Y217695D01*
X-141740Y217626D01*
X-141742Y217556D01*
X-141740Y217486D01*
X-141734Y217417D01*
X-141724Y217348D01*
X-141711Y217280D01*
X-141693Y217212D01*
X-141672Y217146D01*
X-141647Y217081D01*
X-141619Y217017D01*
X-141587Y216955D01*
X-141552Y216895D01*
X-141513Y216837D01*
X-141471Y216782D01*
X-141426Y216728D01*
X-141378Y216678D01*
X-141328Y216630D01*
X-141274Y216585D01*
X-141219Y216543D01*
X-141161Y216504D01*
X-141101Y216469D01*
X-141039Y216437D01*
X-140975Y216409D01*
X-140910Y216384D01*
X-140844Y216363D01*
X-140776Y216345D01*
X-140708Y216332D01*
X-140639Y216322D01*
X-140570Y216316D01*
X-140500Y216314D01*
X-140500Y218798D02*
X-141121Y218798D01*
X-141170Y218800D01*
X-141218Y218806D01*
X-141266Y218815D01*
X-141313Y218828D01*
X-141359Y218845D01*
X-141403Y218866D01*
X-141445Y218890D01*
X-141486Y218917D01*
X-141524Y218947D01*
X-141560Y218980D01*
X-141593Y219016D01*
X-141623Y219054D01*
X-141651Y219095D01*
X-141674Y219137D01*
X-141695Y219181D01*
X-141712Y219227D01*
X-141725Y219274D01*
X-141734Y219322D01*
X-141740Y219370D01*
X-141742Y219419D01*
X-141742Y221482D02*
X-136154Y221482D01*
X-136154Y223966D01*
X-138638Y223966D02*
X-138638Y221482D01*
D12*
X-220975Y-122945D02*
X-220975Y-202945D01*
X-220975Y-122945D02*
X-218100Y-122945D01*
X-129900Y-122945D01*
X-127025Y-122945D01*
X-127025Y-202945D01*
X-220975Y-202945D01*
X-129900Y-122945D02*
X-129900Y-112400D01*
X-141500Y-108600D01*
X-206500Y-108600D01*
X-218100Y-112400D01*
X-218100Y-122945D01*
X-214500Y-137500D02*
X-214498Y-137304D01*
X-214490Y-137107D01*
X-214478Y-136911D01*
X-214461Y-136716D01*
X-214440Y-136521D01*
X-214413Y-136326D01*
X-214382Y-136132D01*
X-214346Y-135939D01*
X-214306Y-135747D01*
X-214260Y-135556D01*
X-214210Y-135366D01*
X-214156Y-135178D01*
X-214096Y-134991D01*
X-214032Y-134805D01*
X-213964Y-134621D01*
X-213891Y-134439D01*
X-213814Y-134258D01*
X-213732Y-134080D01*
X-213646Y-133903D01*
X-213555Y-133729D01*
X-213461Y-133557D01*
X-213362Y-133387D01*
X-213259Y-133220D01*
X-213152Y-133055D01*
X-213041Y-132894D01*
X-212926Y-132734D01*
X-212807Y-132578D01*
X-212684Y-132425D01*
X-212558Y-132275D01*
X-212428Y-132128D01*
X-212294Y-131984D01*
X-212157Y-131843D01*
X-212016Y-131706D01*
X-211872Y-131572D01*
X-211725Y-131442D01*
X-211575Y-131316D01*
X-211422Y-131193D01*
X-211266Y-131074D01*
X-211106Y-130959D01*
X-210945Y-130848D01*
X-210780Y-130741D01*
X-210613Y-130638D01*
X-210443Y-130539D01*
X-210271Y-130445D01*
X-210097Y-130354D01*
X-209920Y-130268D01*
X-209742Y-130186D01*
X-209561Y-130109D01*
X-209379Y-130036D01*
X-209195Y-129968D01*
X-209009Y-129904D01*
X-208822Y-129844D01*
X-208634Y-129790D01*
X-208444Y-129740D01*
X-208253Y-129694D01*
X-208061Y-129654D01*
X-207868Y-129618D01*
X-207674Y-129587D01*
X-207479Y-129560D01*
X-207284Y-129539D01*
X-207089Y-129522D01*
X-206893Y-129510D01*
X-206696Y-129502D01*
X-206500Y-129500D01*
X-206304Y-129502D01*
X-206107Y-129510D01*
X-205911Y-129522D01*
X-205716Y-129539D01*
X-205521Y-129560D01*
X-205326Y-129587D01*
X-205132Y-129618D01*
X-204939Y-129654D01*
X-204747Y-129694D01*
X-204556Y-129740D01*
X-204366Y-129790D01*
X-204178Y-129844D01*
X-203991Y-129904D01*
X-203805Y-129968D01*
X-203621Y-130036D01*
X-203439Y-130109D01*
X-203258Y-130186D01*
X-203080Y-130268D01*
X-202903Y-130354D01*
X-202729Y-130445D01*
X-202557Y-130539D01*
X-202387Y-130638D01*
X-202220Y-130741D01*
X-202055Y-130848D01*
X-201894Y-130959D01*
X-201734Y-131074D01*
X-201578Y-131193D01*
X-201425Y-131316D01*
X-201275Y-131442D01*
X-201128Y-131572D01*
X-200984Y-131706D01*
X-200843Y-131843D01*
X-200706Y-131984D01*
X-200572Y-132128D01*
X-200442Y-132275D01*
X-200316Y-132425D01*
X-200193Y-132578D01*
X-200074Y-132734D01*
X-199959Y-132894D01*
X-199848Y-133055D01*
X-199741Y-133220D01*
X-199638Y-133387D01*
X-199539Y-133557D01*
X-199445Y-133729D01*
X-199354Y-133903D01*
X-199268Y-134080D01*
X-199186Y-134258D01*
X-199109Y-134439D01*
X-199036Y-134621D01*
X-198968Y-134805D01*
X-198904Y-134991D01*
X-198844Y-135178D01*
X-198790Y-135366D01*
X-198740Y-135556D01*
X-198694Y-135747D01*
X-198654Y-135939D01*
X-198618Y-136132D01*
X-198587Y-136326D01*
X-198560Y-136521D01*
X-198539Y-136716D01*
X-198522Y-136911D01*
X-198510Y-137107D01*
X-198502Y-137304D01*
X-198500Y-137500D01*
X-198502Y-137696D01*
X-198510Y-137893D01*
X-198522Y-138089D01*
X-198539Y-138284D01*
X-198560Y-138479D01*
X-198587Y-138674D01*
X-198618Y-138868D01*
X-198654Y-139061D01*
X-198694Y-139253D01*
X-198740Y-139444D01*
X-198790Y-139634D01*
X-198844Y-139822D01*
X-198904Y-140009D01*
X-198968Y-140195D01*
X-199036Y-140379D01*
X-199109Y-140561D01*
X-199186Y-140742D01*
X-199268Y-140920D01*
X-199354Y-141097D01*
X-199445Y-141271D01*
X-199539Y-141443D01*
X-199638Y-141613D01*
X-199741Y-141780D01*
X-199848Y-141945D01*
X-199959Y-142106D01*
X-200074Y-142266D01*
X-200193Y-142422D01*
X-200316Y-142575D01*
X-200442Y-142725D01*
X-200572Y-142872D01*
X-200706Y-143016D01*
X-200843Y-143157D01*
X-200984Y-143294D01*
X-201128Y-143428D01*
X-201275Y-143558D01*
X-201425Y-143684D01*
X-201578Y-143807D01*
X-201734Y-143926D01*
X-201894Y-144041D01*
X-202055Y-144152D01*
X-202220Y-144259D01*
X-202387Y-144362D01*
X-202557Y-144461D01*
X-202729Y-144555D01*
X-202903Y-144646D01*
X-203080Y-144732D01*
X-203258Y-144814D01*
X-203439Y-144891D01*
X-203621Y-144964D01*
X-203805Y-145032D01*
X-203991Y-145096D01*
X-204178Y-145156D01*
X-204366Y-145210D01*
X-204556Y-145260D01*
X-204747Y-145306D01*
X-204939Y-145346D01*
X-205132Y-145382D01*
X-205326Y-145413D01*
X-205521Y-145440D01*
X-205716Y-145461D01*
X-205911Y-145478D01*
X-206107Y-145490D01*
X-206304Y-145498D01*
X-206500Y-145500D01*
X-206696Y-145498D01*
X-206893Y-145490D01*
X-207089Y-145478D01*
X-207284Y-145461D01*
X-207479Y-145440D01*
X-207674Y-145413D01*
X-207868Y-145382D01*
X-208061Y-145346D01*
X-208253Y-145306D01*
X-208444Y-145260D01*
X-208634Y-145210D01*
X-208822Y-145156D01*
X-209009Y-145096D01*
X-209195Y-145032D01*
X-209379Y-144964D01*
X-209561Y-144891D01*
X-209742Y-144814D01*
X-209920Y-144732D01*
X-210097Y-144646D01*
X-210271Y-144555D01*
X-210443Y-144461D01*
X-210613Y-144362D01*
X-210780Y-144259D01*
X-210945Y-144152D01*
X-211106Y-144041D01*
X-211266Y-143926D01*
X-211422Y-143807D01*
X-211575Y-143684D01*
X-211725Y-143558D01*
X-211872Y-143428D01*
X-212016Y-143294D01*
X-212157Y-143157D01*
X-212294Y-143016D01*
X-212428Y-142872D01*
X-212558Y-142725D01*
X-212684Y-142575D01*
X-212807Y-142422D01*
X-212926Y-142266D01*
X-213041Y-142106D01*
X-213152Y-141945D01*
X-213259Y-141780D01*
X-213362Y-141613D01*
X-213461Y-141443D01*
X-213555Y-141271D01*
X-213646Y-141097D01*
X-213732Y-140920D01*
X-213814Y-140742D01*
X-213891Y-140561D01*
X-213964Y-140379D01*
X-214032Y-140195D01*
X-214096Y-140009D01*
X-214156Y-139822D01*
X-214210Y-139634D01*
X-214260Y-139444D01*
X-214306Y-139253D01*
X-214346Y-139061D01*
X-214382Y-138868D01*
X-214413Y-138674D01*
X-214440Y-138479D01*
X-214461Y-138284D01*
X-214478Y-138089D01*
X-214490Y-137893D01*
X-214498Y-137696D01*
X-214500Y-137500D01*
X-150000Y-188300D02*
X-149998Y-188104D01*
X-149990Y-187907D01*
X-149978Y-187711D01*
X-149961Y-187516D01*
X-149940Y-187321D01*
X-149913Y-187126D01*
X-149882Y-186932D01*
X-149846Y-186739D01*
X-149806Y-186547D01*
X-149760Y-186356D01*
X-149710Y-186166D01*
X-149656Y-185978D01*
X-149596Y-185791D01*
X-149532Y-185605D01*
X-149464Y-185421D01*
X-149391Y-185239D01*
X-149314Y-185058D01*
X-149232Y-184880D01*
X-149146Y-184703D01*
X-149055Y-184529D01*
X-148961Y-184357D01*
X-148862Y-184187D01*
X-148759Y-184020D01*
X-148652Y-183855D01*
X-148541Y-183694D01*
X-148426Y-183534D01*
X-148307Y-183378D01*
X-148184Y-183225D01*
X-148058Y-183075D01*
X-147928Y-182928D01*
X-147794Y-182784D01*
X-147657Y-182643D01*
X-147516Y-182506D01*
X-147372Y-182372D01*
X-147225Y-182242D01*
X-147075Y-182116D01*
X-146922Y-181993D01*
X-146766Y-181874D01*
X-146606Y-181759D01*
X-146445Y-181648D01*
X-146280Y-181541D01*
X-146113Y-181438D01*
X-145943Y-181339D01*
X-145771Y-181245D01*
X-145597Y-181154D01*
X-145420Y-181068D01*
X-145242Y-180986D01*
X-145061Y-180909D01*
X-144879Y-180836D01*
X-144695Y-180768D01*
X-144509Y-180704D01*
X-144322Y-180644D01*
X-144134Y-180590D01*
X-143944Y-180540D01*
X-143753Y-180494D01*
X-143561Y-180454D01*
X-143368Y-180418D01*
X-143174Y-180387D01*
X-142979Y-180360D01*
X-142784Y-180339D01*
X-142589Y-180322D01*
X-142393Y-180310D01*
X-142196Y-180302D01*
X-142000Y-180300D01*
X-141804Y-180302D01*
X-141607Y-180310D01*
X-141411Y-180322D01*
X-141216Y-180339D01*
X-141021Y-180360D01*
X-140826Y-180387D01*
X-140632Y-180418D01*
X-140439Y-180454D01*
X-140247Y-180494D01*
X-140056Y-180540D01*
X-139866Y-180590D01*
X-139678Y-180644D01*
X-139491Y-180704D01*
X-139305Y-180768D01*
X-139121Y-180836D01*
X-138939Y-180909D01*
X-138758Y-180986D01*
X-138580Y-181068D01*
X-138403Y-181154D01*
X-138229Y-181245D01*
X-138057Y-181339D01*
X-137887Y-181438D01*
X-137720Y-181541D01*
X-137555Y-181648D01*
X-137394Y-181759D01*
X-137234Y-181874D01*
X-137078Y-181993D01*
X-136925Y-182116D01*
X-136775Y-182242D01*
X-136628Y-182372D01*
X-136484Y-182506D01*
X-136343Y-182643D01*
X-136206Y-182784D01*
X-136072Y-182928D01*
X-135942Y-183075D01*
X-135816Y-183225D01*
X-135693Y-183378D01*
X-135574Y-183534D01*
X-135459Y-183694D01*
X-135348Y-183855D01*
X-135241Y-184020D01*
X-135138Y-184187D01*
X-135039Y-184357D01*
X-134945Y-184529D01*
X-134854Y-184703D01*
X-134768Y-184880D01*
X-134686Y-185058D01*
X-134609Y-185239D01*
X-134536Y-185421D01*
X-134468Y-185605D01*
X-134404Y-185791D01*
X-134344Y-185978D01*
X-134290Y-186166D01*
X-134240Y-186356D01*
X-134194Y-186547D01*
X-134154Y-186739D01*
X-134118Y-186932D01*
X-134087Y-187126D01*
X-134060Y-187321D01*
X-134039Y-187516D01*
X-134022Y-187711D01*
X-134010Y-187907D01*
X-134002Y-188104D01*
X-134000Y-188300D01*
X-134002Y-188496D01*
X-134010Y-188693D01*
X-134022Y-188889D01*
X-134039Y-189084D01*
X-134060Y-189279D01*
X-134087Y-189474D01*
X-134118Y-189668D01*
X-134154Y-189861D01*
X-134194Y-190053D01*
X-134240Y-190244D01*
X-134290Y-190434D01*
X-134344Y-190622D01*
X-134404Y-190809D01*
X-134468Y-190995D01*
X-134536Y-191179D01*
X-134609Y-191361D01*
X-134686Y-191542D01*
X-134768Y-191720D01*
X-134854Y-191897D01*
X-134945Y-192071D01*
X-135039Y-192243D01*
X-135138Y-192413D01*
X-135241Y-192580D01*
X-135348Y-192745D01*
X-135459Y-192906D01*
X-135574Y-193066D01*
X-135693Y-193222D01*
X-135816Y-193375D01*
X-135942Y-193525D01*
X-136072Y-193672D01*
X-136206Y-193816D01*
X-136343Y-193957D01*
X-136484Y-194094D01*
X-136628Y-194228D01*
X-136775Y-194358D01*
X-136925Y-194484D01*
X-137078Y-194607D01*
X-137234Y-194726D01*
X-137394Y-194841D01*
X-137555Y-194952D01*
X-137720Y-195059D01*
X-137887Y-195162D01*
X-138057Y-195261D01*
X-138229Y-195355D01*
X-138403Y-195446D01*
X-138580Y-195532D01*
X-138758Y-195614D01*
X-138939Y-195691D01*
X-139121Y-195764D01*
X-139305Y-195832D01*
X-139491Y-195896D01*
X-139678Y-195956D01*
X-139866Y-196010D01*
X-140056Y-196060D01*
X-140247Y-196106D01*
X-140439Y-196146D01*
X-140632Y-196182D01*
X-140826Y-196213D01*
X-141021Y-196240D01*
X-141216Y-196261D01*
X-141411Y-196278D01*
X-141607Y-196290D01*
X-141804Y-196298D01*
X-142000Y-196300D01*
X-142196Y-196298D01*
X-142393Y-196290D01*
X-142589Y-196278D01*
X-142784Y-196261D01*
X-142979Y-196240D01*
X-143174Y-196213D01*
X-143368Y-196182D01*
X-143561Y-196146D01*
X-143753Y-196106D01*
X-143944Y-196060D01*
X-144134Y-196010D01*
X-144322Y-195956D01*
X-144509Y-195896D01*
X-144695Y-195832D01*
X-144879Y-195764D01*
X-145061Y-195691D01*
X-145242Y-195614D01*
X-145420Y-195532D01*
X-145597Y-195446D01*
X-145771Y-195355D01*
X-145943Y-195261D01*
X-146113Y-195162D01*
X-146280Y-195059D01*
X-146445Y-194952D01*
X-146606Y-194841D01*
X-146766Y-194726D01*
X-146922Y-194607D01*
X-147075Y-194484D01*
X-147225Y-194358D01*
X-147372Y-194228D01*
X-147516Y-194094D01*
X-147657Y-193957D01*
X-147794Y-193816D01*
X-147928Y-193672D01*
X-148058Y-193525D01*
X-148184Y-193375D01*
X-148307Y-193222D01*
X-148426Y-193066D01*
X-148541Y-192906D01*
X-148652Y-192745D01*
X-148759Y-192580D01*
X-148862Y-192413D01*
X-148961Y-192243D01*
X-149055Y-192071D01*
X-149146Y-191897D01*
X-149232Y-191720D01*
X-149314Y-191542D01*
X-149391Y-191361D01*
X-149464Y-191179D01*
X-149532Y-190995D01*
X-149596Y-190809D01*
X-149656Y-190622D01*
X-149710Y-190434D01*
X-149760Y-190244D01*
X-149806Y-190053D01*
X-149846Y-189861D01*
X-149882Y-189668D01*
X-149913Y-189474D01*
X-149940Y-189279D01*
X-149961Y-189084D01*
X-149978Y-188889D01*
X-149990Y-188693D01*
X-149998Y-188496D01*
X-150000Y-188300D01*
D10*
X-121794Y-131651D02*
X-116206Y-131651D01*
X-119310Y-129788D01*
X-116206Y-127926D01*
X-121794Y-127926D01*
X-121794Y-125123D02*
X-116206Y-125123D01*
X-116206Y-123570D01*
X-116208Y-123494D01*
X-116213Y-123418D01*
X-116223Y-123342D01*
X-116236Y-123267D01*
X-116253Y-123193D01*
X-116273Y-123119D01*
X-116297Y-123047D01*
X-116324Y-122976D01*
X-116355Y-122906D01*
X-116389Y-122838D01*
X-116427Y-122772D01*
X-116468Y-122708D01*
X-116511Y-122645D01*
X-116558Y-122585D01*
X-116608Y-122528D01*
X-116661Y-122473D01*
X-116716Y-122420D01*
X-116773Y-122370D01*
X-116833Y-122323D01*
X-116896Y-122280D01*
X-116960Y-122239D01*
X-117026Y-122201D01*
X-117094Y-122167D01*
X-117164Y-122136D01*
X-117235Y-122109D01*
X-117307Y-122085D01*
X-117381Y-122065D01*
X-117455Y-122048D01*
X-117530Y-122035D01*
X-117606Y-122025D01*
X-117682Y-122020D01*
X-117758Y-122018D01*
X-120242Y-122018D01*
X-120318Y-122020D01*
X-120394Y-122025D01*
X-120470Y-122035D01*
X-120545Y-122048D01*
X-120619Y-122065D01*
X-120693Y-122085D01*
X-120765Y-122109D01*
X-120836Y-122136D01*
X-120906Y-122167D01*
X-120974Y-122201D01*
X-121040Y-122239D01*
X-121104Y-122280D01*
X-121167Y-122323D01*
X-121227Y-122370D01*
X-121284Y-122420D01*
X-121339Y-122473D01*
X-121392Y-122528D01*
X-121442Y-122585D01*
X-121489Y-122645D01*
X-121532Y-122708D01*
X-121573Y-122772D01*
X-121611Y-122838D01*
X-121645Y-122906D01*
X-121676Y-122976D01*
X-121703Y-123047D01*
X-121727Y-123120D01*
X-121747Y-123193D01*
X-121764Y-123267D01*
X-121777Y-123342D01*
X-121787Y-123418D01*
X-121792Y-123494D01*
X-121794Y-123570D01*
X-121794Y-125123D01*
X-116206Y-117746D02*
X-116208Y-117673D01*
X-116214Y-117600D01*
X-116223Y-117527D01*
X-116237Y-117456D01*
X-116254Y-117384D01*
X-116274Y-117314D01*
X-116299Y-117245D01*
X-116327Y-117178D01*
X-116358Y-117112D01*
X-116393Y-117048D01*
X-116431Y-116985D01*
X-116473Y-116925D01*
X-116517Y-116867D01*
X-116565Y-116811D01*
X-116615Y-116758D01*
X-116668Y-116708D01*
X-116724Y-116660D01*
X-116782Y-116616D01*
X-116842Y-116574D01*
X-116905Y-116536D01*
X-116969Y-116501D01*
X-117035Y-116470D01*
X-117102Y-116442D01*
X-117171Y-116417D01*
X-117241Y-116397D01*
X-117313Y-116380D01*
X-117384Y-116366D01*
X-117457Y-116357D01*
X-117530Y-116351D01*
X-117603Y-116349D01*
X-116206Y-117746D02*
X-116208Y-117830D01*
X-116214Y-117913D01*
X-116223Y-117996D01*
X-116237Y-118079D01*
X-116254Y-118160D01*
X-116276Y-118241D01*
X-116301Y-118321D01*
X-116329Y-118399D01*
X-116361Y-118477D01*
X-116397Y-118552D01*
X-116436Y-118626D01*
X-116479Y-118698D01*
X-116525Y-118768D01*
X-116574Y-118835D01*
X-116627Y-118901D01*
X-116682Y-118963D01*
X-116740Y-119023D01*
X-116801Y-119081D01*
X-116864Y-119135D01*
X-116930Y-119187D01*
X-116998Y-119235D01*
X-117069Y-119280D01*
X-117141Y-119322D01*
X-117216Y-119360D01*
X-117292Y-119395D01*
X-117369Y-119426D01*
X-117448Y-119454D01*
X-118689Y-116815D02*
X-118636Y-116761D01*
X-118579Y-116710D01*
X-118520Y-116662D01*
X-118459Y-116617D01*
X-118396Y-116576D01*
X-118330Y-116537D01*
X-118263Y-116502D01*
X-118194Y-116470D01*
X-118123Y-116442D01*
X-118052Y-116418D01*
X-117979Y-116397D01*
X-117905Y-116380D01*
X-117830Y-116366D01*
X-117755Y-116357D01*
X-117679Y-116351D01*
X-117603Y-116349D01*
X-118690Y-116815D02*
X-121794Y-119453D01*
X-121794Y-116349D01*
D12*
X-127025Y-65055D02*
X-127025Y14945D01*
X-127025Y-65055D02*
X-129900Y-65055D01*
X-218100Y-65055D01*
X-220975Y-65055D01*
X-220975Y14945D01*
X-127025Y14945D01*
X-218100Y-65055D02*
X-218100Y-75600D01*
X-206500Y-79400D01*
X-141500Y-79400D01*
X-129900Y-75600D01*
X-129900Y-65055D01*
X-149500Y-50500D02*
X-149498Y-50304D01*
X-149490Y-50107D01*
X-149478Y-49911D01*
X-149461Y-49716D01*
X-149440Y-49521D01*
X-149413Y-49326D01*
X-149382Y-49132D01*
X-149346Y-48939D01*
X-149306Y-48747D01*
X-149260Y-48556D01*
X-149210Y-48366D01*
X-149156Y-48178D01*
X-149096Y-47991D01*
X-149032Y-47805D01*
X-148964Y-47621D01*
X-148891Y-47439D01*
X-148814Y-47258D01*
X-148732Y-47080D01*
X-148646Y-46903D01*
X-148555Y-46729D01*
X-148461Y-46557D01*
X-148362Y-46387D01*
X-148259Y-46220D01*
X-148152Y-46055D01*
X-148041Y-45894D01*
X-147926Y-45734D01*
X-147807Y-45578D01*
X-147684Y-45425D01*
X-147558Y-45275D01*
X-147428Y-45128D01*
X-147294Y-44984D01*
X-147157Y-44843D01*
X-147016Y-44706D01*
X-146872Y-44572D01*
X-146725Y-44442D01*
X-146575Y-44316D01*
X-146422Y-44193D01*
X-146266Y-44074D01*
X-146106Y-43959D01*
X-145945Y-43848D01*
X-145780Y-43741D01*
X-145613Y-43638D01*
X-145443Y-43539D01*
X-145271Y-43445D01*
X-145097Y-43354D01*
X-144920Y-43268D01*
X-144742Y-43186D01*
X-144561Y-43109D01*
X-144379Y-43036D01*
X-144195Y-42968D01*
X-144009Y-42904D01*
X-143822Y-42844D01*
X-143634Y-42790D01*
X-143444Y-42740D01*
X-143253Y-42694D01*
X-143061Y-42654D01*
X-142868Y-42618D01*
X-142674Y-42587D01*
X-142479Y-42560D01*
X-142284Y-42539D01*
X-142089Y-42522D01*
X-141893Y-42510D01*
X-141696Y-42502D01*
X-141500Y-42500D01*
X-141304Y-42502D01*
X-141107Y-42510D01*
X-140911Y-42522D01*
X-140716Y-42539D01*
X-140521Y-42560D01*
X-140326Y-42587D01*
X-140132Y-42618D01*
X-139939Y-42654D01*
X-139747Y-42694D01*
X-139556Y-42740D01*
X-139366Y-42790D01*
X-139178Y-42844D01*
X-138991Y-42904D01*
X-138805Y-42968D01*
X-138621Y-43036D01*
X-138439Y-43109D01*
X-138258Y-43186D01*
X-138080Y-43268D01*
X-137903Y-43354D01*
X-137729Y-43445D01*
X-137557Y-43539D01*
X-137387Y-43638D01*
X-137220Y-43741D01*
X-137055Y-43848D01*
X-136894Y-43959D01*
X-136734Y-44074D01*
X-136578Y-44193D01*
X-136425Y-44316D01*
X-136275Y-44442D01*
X-136128Y-44572D01*
X-135984Y-44706D01*
X-135843Y-44843D01*
X-135706Y-44984D01*
X-135572Y-45128D01*
X-135442Y-45275D01*
X-135316Y-45425D01*
X-135193Y-45578D01*
X-135074Y-45734D01*
X-134959Y-45894D01*
X-134848Y-46055D01*
X-134741Y-46220D01*
X-134638Y-46387D01*
X-134539Y-46557D01*
X-134445Y-46729D01*
X-134354Y-46903D01*
X-134268Y-47080D01*
X-134186Y-47258D01*
X-134109Y-47439D01*
X-134036Y-47621D01*
X-133968Y-47805D01*
X-133904Y-47991D01*
X-133844Y-48178D01*
X-133790Y-48366D01*
X-133740Y-48556D01*
X-133694Y-48747D01*
X-133654Y-48939D01*
X-133618Y-49132D01*
X-133587Y-49326D01*
X-133560Y-49521D01*
X-133539Y-49716D01*
X-133522Y-49911D01*
X-133510Y-50107D01*
X-133502Y-50304D01*
X-133500Y-50500D01*
X-133502Y-50696D01*
X-133510Y-50893D01*
X-133522Y-51089D01*
X-133539Y-51284D01*
X-133560Y-51479D01*
X-133587Y-51674D01*
X-133618Y-51868D01*
X-133654Y-52061D01*
X-133694Y-52253D01*
X-133740Y-52444D01*
X-133790Y-52634D01*
X-133844Y-52822D01*
X-133904Y-53009D01*
X-133968Y-53195D01*
X-134036Y-53379D01*
X-134109Y-53561D01*
X-134186Y-53742D01*
X-134268Y-53920D01*
X-134354Y-54097D01*
X-134445Y-54271D01*
X-134539Y-54443D01*
X-134638Y-54613D01*
X-134741Y-54780D01*
X-134848Y-54945D01*
X-134959Y-55106D01*
X-135074Y-55266D01*
X-135193Y-55422D01*
X-135316Y-55575D01*
X-135442Y-55725D01*
X-135572Y-55872D01*
X-135706Y-56016D01*
X-135843Y-56157D01*
X-135984Y-56294D01*
X-136128Y-56428D01*
X-136275Y-56558D01*
X-136425Y-56684D01*
X-136578Y-56807D01*
X-136734Y-56926D01*
X-136894Y-57041D01*
X-137055Y-57152D01*
X-137220Y-57259D01*
X-137387Y-57362D01*
X-137557Y-57461D01*
X-137729Y-57555D01*
X-137903Y-57646D01*
X-138080Y-57732D01*
X-138258Y-57814D01*
X-138439Y-57891D01*
X-138621Y-57964D01*
X-138805Y-58032D01*
X-138991Y-58096D01*
X-139178Y-58156D01*
X-139366Y-58210D01*
X-139556Y-58260D01*
X-139747Y-58306D01*
X-139939Y-58346D01*
X-140132Y-58382D01*
X-140326Y-58413D01*
X-140521Y-58440D01*
X-140716Y-58461D01*
X-140911Y-58478D01*
X-141107Y-58490D01*
X-141304Y-58498D01*
X-141500Y-58500D01*
X-141696Y-58498D01*
X-141893Y-58490D01*
X-142089Y-58478D01*
X-142284Y-58461D01*
X-142479Y-58440D01*
X-142674Y-58413D01*
X-142868Y-58382D01*
X-143061Y-58346D01*
X-143253Y-58306D01*
X-143444Y-58260D01*
X-143634Y-58210D01*
X-143822Y-58156D01*
X-144009Y-58096D01*
X-144195Y-58032D01*
X-144379Y-57964D01*
X-144561Y-57891D01*
X-144742Y-57814D01*
X-144920Y-57732D01*
X-145097Y-57646D01*
X-145271Y-57555D01*
X-145443Y-57461D01*
X-145613Y-57362D01*
X-145780Y-57259D01*
X-145945Y-57152D01*
X-146106Y-57041D01*
X-146266Y-56926D01*
X-146422Y-56807D01*
X-146575Y-56684D01*
X-146725Y-56558D01*
X-146872Y-56428D01*
X-147016Y-56294D01*
X-147157Y-56157D01*
X-147294Y-56016D01*
X-147428Y-55872D01*
X-147558Y-55725D01*
X-147684Y-55575D01*
X-147807Y-55422D01*
X-147926Y-55266D01*
X-148041Y-55106D01*
X-148152Y-54945D01*
X-148259Y-54780D01*
X-148362Y-54613D01*
X-148461Y-54443D01*
X-148555Y-54271D01*
X-148646Y-54097D01*
X-148732Y-53920D01*
X-148814Y-53742D01*
X-148891Y-53561D01*
X-148964Y-53379D01*
X-149032Y-53195D01*
X-149096Y-53009D01*
X-149156Y-52822D01*
X-149210Y-52634D01*
X-149260Y-52444D01*
X-149306Y-52253D01*
X-149346Y-52061D01*
X-149382Y-51868D01*
X-149413Y-51674D01*
X-149440Y-51479D01*
X-149461Y-51284D01*
X-149478Y-51089D01*
X-149490Y-50893D01*
X-149498Y-50696D01*
X-149500Y-50500D01*
X-214000Y300D02*
X-213998Y496D01*
X-213990Y693D01*
X-213978Y889D01*
X-213961Y1084D01*
X-213940Y1279D01*
X-213913Y1474D01*
X-213882Y1668D01*
X-213846Y1861D01*
X-213806Y2053D01*
X-213760Y2244D01*
X-213710Y2434D01*
X-213656Y2622D01*
X-213596Y2809D01*
X-213532Y2995D01*
X-213464Y3179D01*
X-213391Y3361D01*
X-213314Y3542D01*
X-213232Y3720D01*
X-213146Y3897D01*
X-213055Y4071D01*
X-212961Y4243D01*
X-212862Y4413D01*
X-212759Y4580D01*
X-212652Y4745D01*
X-212541Y4906D01*
X-212426Y5066D01*
X-212307Y5222D01*
X-212184Y5375D01*
X-212058Y5525D01*
X-211928Y5672D01*
X-211794Y5816D01*
X-211657Y5957D01*
X-211516Y6094D01*
X-211372Y6228D01*
X-211225Y6358D01*
X-211075Y6484D01*
X-210922Y6607D01*
X-210766Y6726D01*
X-210606Y6841D01*
X-210445Y6952D01*
X-210280Y7059D01*
X-210113Y7162D01*
X-209943Y7261D01*
X-209771Y7355D01*
X-209597Y7446D01*
X-209420Y7532D01*
X-209242Y7614D01*
X-209061Y7691D01*
X-208879Y7764D01*
X-208695Y7832D01*
X-208509Y7896D01*
X-208322Y7956D01*
X-208134Y8010D01*
X-207944Y8060D01*
X-207753Y8106D01*
X-207561Y8146D01*
X-207368Y8182D01*
X-207174Y8213D01*
X-206979Y8240D01*
X-206784Y8261D01*
X-206589Y8278D01*
X-206393Y8290D01*
X-206196Y8298D01*
X-206000Y8300D01*
X-205804Y8298D01*
X-205607Y8290D01*
X-205411Y8278D01*
X-205216Y8261D01*
X-205021Y8240D01*
X-204826Y8213D01*
X-204632Y8182D01*
X-204439Y8146D01*
X-204247Y8106D01*
X-204056Y8060D01*
X-203866Y8010D01*
X-203678Y7956D01*
X-203491Y7896D01*
X-203305Y7832D01*
X-203121Y7764D01*
X-202939Y7691D01*
X-202758Y7614D01*
X-202580Y7532D01*
X-202403Y7446D01*
X-202229Y7355D01*
X-202057Y7261D01*
X-201887Y7162D01*
X-201720Y7059D01*
X-201555Y6952D01*
X-201394Y6841D01*
X-201234Y6726D01*
X-201078Y6607D01*
X-200925Y6484D01*
X-200775Y6358D01*
X-200628Y6228D01*
X-200484Y6094D01*
X-200343Y5957D01*
X-200206Y5816D01*
X-200072Y5672D01*
X-199942Y5525D01*
X-199816Y5375D01*
X-199693Y5222D01*
X-199574Y5066D01*
X-199459Y4906D01*
X-199348Y4745D01*
X-199241Y4580D01*
X-199138Y4413D01*
X-199039Y4243D01*
X-198945Y4071D01*
X-198854Y3897D01*
X-198768Y3720D01*
X-198686Y3542D01*
X-198609Y3361D01*
X-198536Y3179D01*
X-198468Y2995D01*
X-198404Y2809D01*
X-198344Y2622D01*
X-198290Y2434D01*
X-198240Y2244D01*
X-198194Y2053D01*
X-198154Y1861D01*
X-198118Y1668D01*
X-198087Y1474D01*
X-198060Y1279D01*
X-198039Y1084D01*
X-198022Y889D01*
X-198010Y693D01*
X-198002Y496D01*
X-198000Y300D01*
X-198002Y104D01*
X-198010Y-93D01*
X-198022Y-289D01*
X-198039Y-484D01*
X-198060Y-679D01*
X-198087Y-874D01*
X-198118Y-1068D01*
X-198154Y-1261D01*
X-198194Y-1453D01*
X-198240Y-1644D01*
X-198290Y-1834D01*
X-198344Y-2022D01*
X-198404Y-2209D01*
X-198468Y-2395D01*
X-198536Y-2579D01*
X-198609Y-2761D01*
X-198686Y-2942D01*
X-198768Y-3120D01*
X-198854Y-3297D01*
X-198945Y-3471D01*
X-199039Y-3643D01*
X-199138Y-3813D01*
X-199241Y-3980D01*
X-199348Y-4145D01*
X-199459Y-4306D01*
X-199574Y-4466D01*
X-199693Y-4622D01*
X-199816Y-4775D01*
X-199942Y-4925D01*
X-200072Y-5072D01*
X-200206Y-5216D01*
X-200343Y-5357D01*
X-200484Y-5494D01*
X-200628Y-5628D01*
X-200775Y-5758D01*
X-200925Y-5884D01*
X-201078Y-6007D01*
X-201234Y-6126D01*
X-201394Y-6241D01*
X-201555Y-6352D01*
X-201720Y-6459D01*
X-201887Y-6562D01*
X-202057Y-6661D01*
X-202229Y-6755D01*
X-202403Y-6846D01*
X-202580Y-6932D01*
X-202758Y-7014D01*
X-202939Y-7091D01*
X-203121Y-7164D01*
X-203305Y-7232D01*
X-203491Y-7296D01*
X-203678Y-7356D01*
X-203866Y-7410D01*
X-204056Y-7460D01*
X-204247Y-7506D01*
X-204439Y-7546D01*
X-204632Y-7582D01*
X-204826Y-7613D01*
X-205021Y-7640D01*
X-205216Y-7661D01*
X-205411Y-7678D01*
X-205607Y-7690D01*
X-205804Y-7698D01*
X-206000Y-7700D01*
X-206196Y-7698D01*
X-206393Y-7690D01*
X-206589Y-7678D01*
X-206784Y-7661D01*
X-206979Y-7640D01*
X-207174Y-7613D01*
X-207368Y-7582D01*
X-207561Y-7546D01*
X-207753Y-7506D01*
X-207944Y-7460D01*
X-208134Y-7410D01*
X-208322Y-7356D01*
X-208509Y-7296D01*
X-208695Y-7232D01*
X-208879Y-7164D01*
X-209061Y-7091D01*
X-209242Y-7014D01*
X-209420Y-6932D01*
X-209597Y-6846D01*
X-209771Y-6755D01*
X-209943Y-6661D01*
X-210113Y-6562D01*
X-210280Y-6459D01*
X-210445Y-6352D01*
X-210606Y-6241D01*
X-210766Y-6126D01*
X-210922Y-6007D01*
X-211075Y-5884D01*
X-211225Y-5758D01*
X-211372Y-5628D01*
X-211516Y-5494D01*
X-211657Y-5357D01*
X-211794Y-5216D01*
X-211928Y-5072D01*
X-212058Y-4925D01*
X-212184Y-4775D01*
X-212307Y-4622D01*
X-212426Y-4466D01*
X-212541Y-4306D01*
X-212652Y-4145D01*
X-212759Y-3980D01*
X-212862Y-3813D01*
X-212961Y-3643D01*
X-213055Y-3471D01*
X-213146Y-3297D01*
X-213232Y-3120D01*
X-213314Y-2942D01*
X-213391Y-2761D01*
X-213464Y-2579D01*
X-213532Y-2395D01*
X-213596Y-2209D01*
X-213656Y-2022D01*
X-213710Y-1834D01*
X-213760Y-1644D01*
X-213806Y-1453D01*
X-213846Y-1261D01*
X-213882Y-1068D01*
X-213913Y-874D01*
X-213940Y-679D01*
X-213961Y-484D01*
X-213978Y-289D01*
X-213990Y-93D01*
X-213998Y104D01*
X-214000Y300D01*
D10*
X-121794Y-71651D02*
X-116206Y-71651D01*
X-119310Y-69788D01*
X-116206Y-67926D01*
X-121794Y-67926D01*
X-121794Y-65123D02*
X-116206Y-65123D01*
X-116206Y-63570D01*
X-116208Y-63494D01*
X-116213Y-63418D01*
X-116223Y-63342D01*
X-116236Y-63267D01*
X-116253Y-63193D01*
X-116273Y-63119D01*
X-116297Y-63047D01*
X-116324Y-62976D01*
X-116355Y-62906D01*
X-116389Y-62838D01*
X-116427Y-62772D01*
X-116468Y-62708D01*
X-116511Y-62645D01*
X-116558Y-62585D01*
X-116608Y-62528D01*
X-116661Y-62473D01*
X-116716Y-62420D01*
X-116773Y-62370D01*
X-116833Y-62323D01*
X-116896Y-62280D01*
X-116960Y-62239D01*
X-117026Y-62201D01*
X-117094Y-62167D01*
X-117164Y-62136D01*
X-117235Y-62109D01*
X-117307Y-62085D01*
X-117381Y-62065D01*
X-117455Y-62048D01*
X-117530Y-62035D01*
X-117606Y-62025D01*
X-117682Y-62020D01*
X-117758Y-62018D01*
X-120242Y-62018D01*
X-120318Y-62020D01*
X-120394Y-62025D01*
X-120470Y-62035D01*
X-120545Y-62048D01*
X-120619Y-62065D01*
X-120693Y-62085D01*
X-120765Y-62109D01*
X-120836Y-62136D01*
X-120906Y-62167D01*
X-120974Y-62201D01*
X-121040Y-62239D01*
X-121104Y-62280D01*
X-121167Y-62323D01*
X-121227Y-62370D01*
X-121284Y-62420D01*
X-121339Y-62473D01*
X-121392Y-62528D01*
X-121442Y-62585D01*
X-121489Y-62645D01*
X-121532Y-62708D01*
X-121573Y-62772D01*
X-121611Y-62838D01*
X-121645Y-62906D01*
X-121676Y-62976D01*
X-121703Y-63047D01*
X-121727Y-63120D01*
X-121747Y-63193D01*
X-121764Y-63267D01*
X-121777Y-63342D01*
X-121787Y-63418D01*
X-121792Y-63494D01*
X-121794Y-63570D01*
X-121794Y-65123D01*
X-121794Y-59453D02*
X-121794Y-57901D01*
X-121792Y-57824D01*
X-121786Y-57746D01*
X-121777Y-57670D01*
X-121763Y-57593D01*
X-121746Y-57518D01*
X-121725Y-57444D01*
X-121700Y-57370D01*
X-121672Y-57298D01*
X-121640Y-57228D01*
X-121605Y-57159D01*
X-121566Y-57092D01*
X-121524Y-57027D01*
X-121479Y-56964D01*
X-121431Y-56903D01*
X-121380Y-56845D01*
X-121326Y-56790D01*
X-121269Y-56737D01*
X-121210Y-56688D01*
X-121148Y-56641D01*
X-121084Y-56597D01*
X-121018Y-56557D01*
X-120950Y-56520D01*
X-120880Y-56486D01*
X-120809Y-56456D01*
X-120736Y-56430D01*
X-120662Y-56407D01*
X-120587Y-56388D01*
X-120512Y-56373D01*
X-120435Y-56361D01*
X-120358Y-56353D01*
X-120281Y-56349D01*
X-120203Y-56349D01*
X-120126Y-56353D01*
X-120049Y-56361D01*
X-119972Y-56373D01*
X-119897Y-56388D01*
X-119822Y-56407D01*
X-119748Y-56430D01*
X-119675Y-56456D01*
X-119604Y-56486D01*
X-119534Y-56520D01*
X-119466Y-56557D01*
X-119400Y-56597D01*
X-119336Y-56641D01*
X-119274Y-56688D01*
X-119215Y-56737D01*
X-119158Y-56790D01*
X-119104Y-56845D01*
X-119053Y-56903D01*
X-119005Y-56964D01*
X-118960Y-57027D01*
X-118918Y-57092D01*
X-118879Y-57159D01*
X-118844Y-57228D01*
X-118812Y-57298D01*
X-118784Y-57370D01*
X-118759Y-57444D01*
X-118738Y-57518D01*
X-118721Y-57593D01*
X-118707Y-57670D01*
X-118698Y-57746D01*
X-118692Y-57824D01*
X-118690Y-57901D01*
X-116206Y-57591D02*
X-116206Y-59453D01*
X-116206Y-57591D02*
X-116208Y-57521D01*
X-116214Y-57452D01*
X-116224Y-57383D01*
X-116237Y-57315D01*
X-116255Y-57247D01*
X-116276Y-57181D01*
X-116301Y-57116D01*
X-116329Y-57052D01*
X-116361Y-56990D01*
X-116396Y-56930D01*
X-116435Y-56872D01*
X-116477Y-56817D01*
X-116522Y-56763D01*
X-116570Y-56713D01*
X-116620Y-56665D01*
X-116674Y-56620D01*
X-116729Y-56578D01*
X-116787Y-56539D01*
X-116847Y-56504D01*
X-116909Y-56472D01*
X-116973Y-56444D01*
X-117038Y-56419D01*
X-117104Y-56398D01*
X-117172Y-56380D01*
X-117240Y-56367D01*
X-117309Y-56357D01*
X-117378Y-56351D01*
X-117448Y-56349D01*
X-117518Y-56351D01*
X-117587Y-56357D01*
X-117656Y-56367D01*
X-117724Y-56380D01*
X-117792Y-56398D01*
X-117858Y-56419D01*
X-117923Y-56444D01*
X-117987Y-56472D01*
X-118049Y-56504D01*
X-118109Y-56539D01*
X-118167Y-56578D01*
X-118222Y-56620D01*
X-118276Y-56665D01*
X-118326Y-56713D01*
X-118374Y-56763D01*
X-118419Y-56817D01*
X-118461Y-56872D01*
X-118500Y-56930D01*
X-118535Y-56990D01*
X-118567Y-57052D01*
X-118595Y-57116D01*
X-118620Y-57181D01*
X-118641Y-57247D01*
X-118659Y-57315D01*
X-118672Y-57383D01*
X-118682Y-57452D01*
X-118688Y-57521D01*
X-118690Y-57591D01*
X-118690Y-58833D01*
D11*
X-81000Y35500D02*
X-81000Y64500D01*
X-59000Y64500D01*
X-59000Y35500D01*
X-81000Y35500D01*
X-78000Y41000D02*
X-77998Y41089D01*
X-77992Y41178D01*
X-77982Y41267D01*
X-77968Y41355D01*
X-77951Y41442D01*
X-77929Y41528D01*
X-77903Y41614D01*
X-77874Y41698D01*
X-77841Y41781D01*
X-77805Y41862D01*
X-77764Y41942D01*
X-77721Y42019D01*
X-77674Y42095D01*
X-77623Y42168D01*
X-77570Y42239D01*
X-77513Y42308D01*
X-77453Y42374D01*
X-77390Y42438D01*
X-77325Y42498D01*
X-77257Y42556D01*
X-77186Y42610D01*
X-77113Y42661D01*
X-77038Y42709D01*
X-76961Y42754D01*
X-76882Y42795D01*
X-76801Y42832D01*
X-76719Y42866D01*
X-76635Y42897D01*
X-76550Y42923D01*
X-76464Y42946D01*
X-76377Y42964D01*
X-76289Y42979D01*
X-76200Y42990D01*
X-76111Y42997D01*
X-76022Y43000D01*
X-75933Y42999D01*
X-75844Y42994D01*
X-75756Y42985D01*
X-75667Y42972D01*
X-75580Y42955D01*
X-75493Y42935D01*
X-75407Y42910D01*
X-75323Y42882D01*
X-75240Y42850D01*
X-75158Y42814D01*
X-75078Y42775D01*
X-75000Y42732D01*
X-74924Y42686D01*
X-74850Y42636D01*
X-74778Y42583D01*
X-74709Y42527D01*
X-74642Y42468D01*
X-74578Y42406D01*
X-74517Y42342D01*
X-74458Y42274D01*
X-74403Y42204D01*
X-74351Y42132D01*
X-74302Y42057D01*
X-74257Y41981D01*
X-74215Y41902D01*
X-74177Y41822D01*
X-74142Y41740D01*
X-74111Y41656D01*
X-74083Y41571D01*
X-74060Y41485D01*
X-74040Y41398D01*
X-74024Y41311D01*
X-74012Y41222D01*
X-74004Y41134D01*
X-74000Y41045D01*
X-74000Y40955D01*
X-74004Y40866D01*
X-74012Y40778D01*
X-74024Y40689D01*
X-74040Y40602D01*
X-74060Y40515D01*
X-74083Y40429D01*
X-74111Y40344D01*
X-74142Y40260D01*
X-74177Y40178D01*
X-74215Y40098D01*
X-74257Y40019D01*
X-74302Y39943D01*
X-74351Y39868D01*
X-74403Y39796D01*
X-74458Y39726D01*
X-74517Y39658D01*
X-74578Y39594D01*
X-74642Y39532D01*
X-74709Y39473D01*
X-74778Y39417D01*
X-74850Y39364D01*
X-74924Y39314D01*
X-75000Y39268D01*
X-75078Y39225D01*
X-75158Y39186D01*
X-75240Y39150D01*
X-75323Y39118D01*
X-75407Y39090D01*
X-75493Y39065D01*
X-75580Y39045D01*
X-75667Y39028D01*
X-75756Y39015D01*
X-75844Y39006D01*
X-75933Y39001D01*
X-76022Y39000D01*
X-76111Y39003D01*
X-76200Y39010D01*
X-76289Y39021D01*
X-76377Y39036D01*
X-76464Y39054D01*
X-76550Y39077D01*
X-76635Y39103D01*
X-76719Y39134D01*
X-76801Y39168D01*
X-76882Y39205D01*
X-76961Y39246D01*
X-77038Y39291D01*
X-77113Y39339D01*
X-77186Y39390D01*
X-77257Y39444D01*
X-77325Y39502D01*
X-77390Y39562D01*
X-77453Y39626D01*
X-77513Y39692D01*
X-77570Y39761D01*
X-77623Y39832D01*
X-77674Y39905D01*
X-77721Y39981D01*
X-77764Y40058D01*
X-77805Y40138D01*
X-77841Y40219D01*
X-77874Y40302D01*
X-77903Y40386D01*
X-77929Y40472D01*
X-77951Y40558D01*
X-77968Y40645D01*
X-77982Y40733D01*
X-77992Y40822D01*
X-77998Y40911D01*
X-78000Y41000D01*
D13*
X-47013Y37427D02*
X-43203Y37427D01*
X-45320Y38697D01*
X-43203Y39967D01*
X-47013Y39967D01*
X-45955Y41662D02*
X-44261Y41662D01*
X-44197Y41664D01*
X-44133Y41670D01*
X-44070Y41679D01*
X-44008Y41693D01*
X-43946Y41710D01*
X-43886Y41731D01*
X-43827Y41755D01*
X-43769Y41783D01*
X-43714Y41815D01*
X-43660Y41849D01*
X-43609Y41887D01*
X-43559Y41928D01*
X-43513Y41972D01*
X-43469Y42018D01*
X-43428Y42068D01*
X-43390Y42119D01*
X-43356Y42173D01*
X-43324Y42228D01*
X-43296Y42286D01*
X-43272Y42345D01*
X-43251Y42405D01*
X-43234Y42467D01*
X-43220Y42529D01*
X-43211Y42592D01*
X-43205Y42656D01*
X-43203Y42720D01*
X-43205Y42784D01*
X-43211Y42848D01*
X-43220Y42911D01*
X-43234Y42973D01*
X-43251Y43035D01*
X-43272Y43095D01*
X-43296Y43154D01*
X-43324Y43212D01*
X-43356Y43267D01*
X-43390Y43321D01*
X-43428Y43372D01*
X-43469Y43422D01*
X-43513Y43468D01*
X-43559Y43512D01*
X-43609Y43553D01*
X-43660Y43591D01*
X-43714Y43625D01*
X-43769Y43657D01*
X-43827Y43685D01*
X-43886Y43709D01*
X-43946Y43730D01*
X-44008Y43747D01*
X-44070Y43761D01*
X-44133Y43770D01*
X-44197Y43776D01*
X-44261Y43778D01*
X-44261Y43779D02*
X-45955Y43779D01*
X-45955Y43778D02*
X-46019Y43776D01*
X-46083Y43770D01*
X-46146Y43761D01*
X-46208Y43747D01*
X-46270Y43730D01*
X-46330Y43709D01*
X-46389Y43685D01*
X-46447Y43657D01*
X-46502Y43625D01*
X-46556Y43591D01*
X-46607Y43553D01*
X-46657Y43512D01*
X-46703Y43468D01*
X-46747Y43422D01*
X-46788Y43372D01*
X-46826Y43321D01*
X-46860Y43267D01*
X-46892Y43212D01*
X-46920Y43154D01*
X-46944Y43095D01*
X-46965Y43035D01*
X-46982Y42973D01*
X-46996Y42911D01*
X-47005Y42848D01*
X-47011Y42784D01*
X-47013Y42720D01*
X-47011Y42656D01*
X-47005Y42592D01*
X-46996Y42529D01*
X-46982Y42467D01*
X-46965Y42405D01*
X-46944Y42345D01*
X-46920Y42286D01*
X-46892Y42228D01*
X-46860Y42173D01*
X-46826Y42119D01*
X-46788Y42068D01*
X-46747Y42018D01*
X-46703Y41972D01*
X-46657Y41928D01*
X-46607Y41887D01*
X-46556Y41849D01*
X-46502Y41815D01*
X-46447Y41783D01*
X-46389Y41755D01*
X-46330Y41731D01*
X-46270Y41710D01*
X-46208Y41693D01*
X-46146Y41679D01*
X-46083Y41670D01*
X-46019Y41664D01*
X-45955Y41662D01*
X-47013Y46468D02*
X-47011Y46523D01*
X-47006Y46579D01*
X-46997Y46633D01*
X-46984Y46687D01*
X-46968Y46740D01*
X-46949Y46792D01*
X-46926Y46843D01*
X-46900Y46892D01*
X-46870Y46939D01*
X-46838Y46984D01*
X-46803Y47026D01*
X-46765Y47067D01*
X-46724Y47105D01*
X-46682Y47140D01*
X-46637Y47172D01*
X-46590Y47202D01*
X-46541Y47228D01*
X-46490Y47251D01*
X-46438Y47270D01*
X-46385Y47286D01*
X-46331Y47299D01*
X-46277Y47308D01*
X-46221Y47313D01*
X-46166Y47315D01*
X-47013Y46468D02*
X-47011Y46385D01*
X-47005Y46302D01*
X-46996Y46220D01*
X-46982Y46138D01*
X-46965Y46056D01*
X-46944Y45976D01*
X-46919Y45897D01*
X-46891Y45818D01*
X-46859Y45742D01*
X-46823Y45667D01*
X-46785Y45593D01*
X-46742Y45522D01*
X-46697Y45452D01*
X-46648Y45385D01*
X-46596Y45320D01*
X-46541Y45258D01*
X-46484Y45198D01*
X-44050Y45303D02*
X-43995Y45305D01*
X-43939Y45310D01*
X-43885Y45319D01*
X-43831Y45332D01*
X-43778Y45348D01*
X-43726Y45367D01*
X-43675Y45390D01*
X-43627Y45416D01*
X-43579Y45446D01*
X-43534Y45478D01*
X-43492Y45513D01*
X-43451Y45551D01*
X-43413Y45592D01*
X-43378Y45634D01*
X-43346Y45679D01*
X-43316Y45727D01*
X-43290Y45775D01*
X-43267Y45826D01*
X-43248Y45878D01*
X-43232Y45931D01*
X-43219Y45985D01*
X-43210Y46039D01*
X-43205Y46095D01*
X-43203Y46150D01*
X-43205Y46229D01*
X-43211Y46307D01*
X-43220Y46385D01*
X-43234Y46462D01*
X-43251Y46539D01*
X-43273Y46615D01*
X-43297Y46689D01*
X-43326Y46763D01*
X-43358Y46834D01*
X-43394Y46904D01*
X-43433Y46973D01*
X-43475Y47039D01*
X-43521Y47103D01*
X-44791Y45726D02*
X-44761Y45679D01*
X-44728Y45634D01*
X-44692Y45591D01*
X-44654Y45551D01*
X-44613Y45513D01*
X-44570Y45478D01*
X-44524Y45446D01*
X-44477Y45416D01*
X-44427Y45390D01*
X-44376Y45367D01*
X-44324Y45348D01*
X-44271Y45332D01*
X-44216Y45319D01*
X-44161Y45310D01*
X-44106Y45305D01*
X-44050Y45303D01*
X-45425Y46891D02*
X-45455Y46938D01*
X-45488Y46983D01*
X-45524Y47026D01*
X-45562Y47066D01*
X-45603Y47104D01*
X-45646Y47139D01*
X-45692Y47171D01*
X-45739Y47201D01*
X-45789Y47227D01*
X-45840Y47250D01*
X-45892Y47269D01*
X-45945Y47285D01*
X-46000Y47298D01*
X-46055Y47307D01*
X-46110Y47312D01*
X-46166Y47314D01*
X-45426Y46891D02*
X-44791Y45727D01*
X-43203Y49898D02*
X-43205Y49958D01*
X-43211Y50017D01*
X-43220Y50077D01*
X-43233Y50135D01*
X-43250Y50192D01*
X-43270Y50249D01*
X-43294Y50304D01*
X-43321Y50357D01*
X-43351Y50409D01*
X-43385Y50458D01*
X-43422Y50505D01*
X-43461Y50550D01*
X-43504Y50593D01*
X-43549Y50632D01*
X-43596Y50669D01*
X-43645Y50703D01*
X-43697Y50733D01*
X-43750Y50760D01*
X-43805Y50784D01*
X-43862Y50804D01*
X-43919Y50821D01*
X-43977Y50834D01*
X-44037Y50843D01*
X-44096Y50849D01*
X-44156Y50851D01*
X-43203Y49898D02*
X-43205Y49831D01*
X-43210Y49764D01*
X-43219Y49698D01*
X-43232Y49632D01*
X-43248Y49568D01*
X-43268Y49504D01*
X-43292Y49441D01*
X-43318Y49379D01*
X-43348Y49320D01*
X-43381Y49262D01*
X-43418Y49205D01*
X-43457Y49151D01*
X-43499Y49099D01*
X-43544Y49050D01*
X-43592Y49003D01*
X-43642Y48959D01*
X-43695Y48917D01*
X-43750Y48879D01*
X-43806Y48843D01*
X-43865Y48811D01*
X-43925Y48782D01*
X-43987Y48756D01*
X-44050Y48734D01*
X-44897Y50532D02*
X-44855Y50574D01*
X-44810Y50613D01*
X-44764Y50650D01*
X-44715Y50684D01*
X-44665Y50714D01*
X-44613Y50742D01*
X-44559Y50767D01*
X-44504Y50789D01*
X-44448Y50808D01*
X-44391Y50823D01*
X-44333Y50835D01*
X-44274Y50843D01*
X-44215Y50848D01*
X-44156Y50850D01*
X-44896Y50533D02*
X-47013Y48733D01*
X-47013Y50850D01*
D11*
X-81000Y85500D02*
X-81000Y114500D01*
X-59000Y114500D01*
X-59000Y85500D01*
X-81000Y85500D01*
X-78000Y91000D02*
X-77998Y91089D01*
X-77992Y91178D01*
X-77982Y91267D01*
X-77968Y91355D01*
X-77951Y91442D01*
X-77929Y91528D01*
X-77903Y91614D01*
X-77874Y91698D01*
X-77841Y91781D01*
X-77805Y91862D01*
X-77764Y91942D01*
X-77721Y92019D01*
X-77674Y92095D01*
X-77623Y92168D01*
X-77570Y92239D01*
X-77513Y92308D01*
X-77453Y92374D01*
X-77390Y92438D01*
X-77325Y92498D01*
X-77257Y92556D01*
X-77186Y92610D01*
X-77113Y92661D01*
X-77038Y92709D01*
X-76961Y92754D01*
X-76882Y92795D01*
X-76801Y92832D01*
X-76719Y92866D01*
X-76635Y92897D01*
X-76550Y92923D01*
X-76464Y92946D01*
X-76377Y92964D01*
X-76289Y92979D01*
X-76200Y92990D01*
X-76111Y92997D01*
X-76022Y93000D01*
X-75933Y92999D01*
X-75844Y92994D01*
X-75756Y92985D01*
X-75667Y92972D01*
X-75580Y92955D01*
X-75493Y92935D01*
X-75407Y92910D01*
X-75323Y92882D01*
X-75240Y92850D01*
X-75158Y92814D01*
X-75078Y92775D01*
X-75000Y92732D01*
X-74924Y92686D01*
X-74850Y92636D01*
X-74778Y92583D01*
X-74709Y92527D01*
X-74642Y92468D01*
X-74578Y92406D01*
X-74517Y92342D01*
X-74458Y92274D01*
X-74403Y92204D01*
X-74351Y92132D01*
X-74302Y92057D01*
X-74257Y91981D01*
X-74215Y91902D01*
X-74177Y91822D01*
X-74142Y91740D01*
X-74111Y91656D01*
X-74083Y91571D01*
X-74060Y91485D01*
X-74040Y91398D01*
X-74024Y91311D01*
X-74012Y91222D01*
X-74004Y91134D01*
X-74000Y91045D01*
X-74000Y90955D01*
X-74004Y90866D01*
X-74012Y90778D01*
X-74024Y90689D01*
X-74040Y90602D01*
X-74060Y90515D01*
X-74083Y90429D01*
X-74111Y90344D01*
X-74142Y90260D01*
X-74177Y90178D01*
X-74215Y90098D01*
X-74257Y90019D01*
X-74302Y89943D01*
X-74351Y89868D01*
X-74403Y89796D01*
X-74458Y89726D01*
X-74517Y89658D01*
X-74578Y89594D01*
X-74642Y89532D01*
X-74709Y89473D01*
X-74778Y89417D01*
X-74850Y89364D01*
X-74924Y89314D01*
X-75000Y89268D01*
X-75078Y89225D01*
X-75158Y89186D01*
X-75240Y89150D01*
X-75323Y89118D01*
X-75407Y89090D01*
X-75493Y89065D01*
X-75580Y89045D01*
X-75667Y89028D01*
X-75756Y89015D01*
X-75844Y89006D01*
X-75933Y89001D01*
X-76022Y89000D01*
X-76111Y89003D01*
X-76200Y89010D01*
X-76289Y89021D01*
X-76377Y89036D01*
X-76464Y89054D01*
X-76550Y89077D01*
X-76635Y89103D01*
X-76719Y89134D01*
X-76801Y89168D01*
X-76882Y89205D01*
X-76961Y89246D01*
X-77038Y89291D01*
X-77113Y89339D01*
X-77186Y89390D01*
X-77257Y89444D01*
X-77325Y89502D01*
X-77390Y89562D01*
X-77453Y89626D01*
X-77513Y89692D01*
X-77570Y89761D01*
X-77623Y89832D01*
X-77674Y89905D01*
X-77721Y89981D01*
X-77764Y90058D01*
X-77805Y90138D01*
X-77841Y90219D01*
X-77874Y90302D01*
X-77903Y90386D01*
X-77929Y90472D01*
X-77951Y90558D01*
X-77968Y90645D01*
X-77982Y90733D01*
X-77992Y90822D01*
X-77998Y90911D01*
X-78000Y91000D01*
D13*
X-47013Y87427D02*
X-43203Y87427D01*
X-45320Y88697D01*
X-43203Y89967D01*
X-47013Y89967D01*
X-45955Y91662D02*
X-44261Y91662D01*
X-44197Y91664D01*
X-44133Y91670D01*
X-44070Y91679D01*
X-44008Y91693D01*
X-43946Y91710D01*
X-43886Y91731D01*
X-43827Y91755D01*
X-43769Y91783D01*
X-43714Y91815D01*
X-43660Y91849D01*
X-43609Y91887D01*
X-43559Y91928D01*
X-43513Y91972D01*
X-43469Y92018D01*
X-43428Y92068D01*
X-43390Y92119D01*
X-43356Y92173D01*
X-43324Y92228D01*
X-43296Y92286D01*
X-43272Y92345D01*
X-43251Y92405D01*
X-43234Y92467D01*
X-43220Y92529D01*
X-43211Y92592D01*
X-43205Y92656D01*
X-43203Y92720D01*
X-43205Y92784D01*
X-43211Y92848D01*
X-43220Y92911D01*
X-43234Y92973D01*
X-43251Y93035D01*
X-43272Y93095D01*
X-43296Y93154D01*
X-43324Y93212D01*
X-43356Y93267D01*
X-43390Y93321D01*
X-43428Y93372D01*
X-43469Y93422D01*
X-43513Y93468D01*
X-43559Y93512D01*
X-43609Y93553D01*
X-43660Y93591D01*
X-43714Y93625D01*
X-43769Y93657D01*
X-43827Y93685D01*
X-43886Y93709D01*
X-43946Y93730D01*
X-44008Y93747D01*
X-44070Y93761D01*
X-44133Y93770D01*
X-44197Y93776D01*
X-44261Y93778D01*
X-44261Y93779D02*
X-45955Y93779D01*
X-45955Y93778D02*
X-46019Y93776D01*
X-46083Y93770D01*
X-46146Y93761D01*
X-46208Y93747D01*
X-46270Y93730D01*
X-46330Y93709D01*
X-46389Y93685D01*
X-46447Y93657D01*
X-46502Y93625D01*
X-46556Y93591D01*
X-46607Y93553D01*
X-46657Y93512D01*
X-46703Y93468D01*
X-46747Y93422D01*
X-46788Y93372D01*
X-46826Y93321D01*
X-46860Y93267D01*
X-46892Y93212D01*
X-46920Y93154D01*
X-46944Y93095D01*
X-46965Y93035D01*
X-46982Y92973D01*
X-46996Y92911D01*
X-47005Y92848D01*
X-47011Y92784D01*
X-47013Y92720D01*
X-47011Y92656D01*
X-47005Y92592D01*
X-46996Y92529D01*
X-46982Y92467D01*
X-46965Y92405D01*
X-46944Y92345D01*
X-46920Y92286D01*
X-46892Y92228D01*
X-46860Y92173D01*
X-46826Y92119D01*
X-46788Y92068D01*
X-46747Y92018D01*
X-46703Y91972D01*
X-46657Y91928D01*
X-46607Y91887D01*
X-46556Y91849D01*
X-46502Y91815D01*
X-46447Y91783D01*
X-46389Y91755D01*
X-46330Y91731D01*
X-46270Y91710D01*
X-46208Y91693D01*
X-46146Y91679D01*
X-46083Y91670D01*
X-46019Y91664D01*
X-45955Y91662D01*
X-47013Y96468D02*
X-47011Y96523D01*
X-47006Y96579D01*
X-46997Y96633D01*
X-46984Y96687D01*
X-46968Y96740D01*
X-46949Y96792D01*
X-46926Y96843D01*
X-46900Y96892D01*
X-46870Y96939D01*
X-46838Y96984D01*
X-46803Y97026D01*
X-46765Y97067D01*
X-46724Y97105D01*
X-46682Y97140D01*
X-46637Y97172D01*
X-46590Y97202D01*
X-46541Y97228D01*
X-46490Y97251D01*
X-46438Y97270D01*
X-46385Y97286D01*
X-46331Y97299D01*
X-46277Y97308D01*
X-46221Y97313D01*
X-46166Y97315D01*
X-47013Y96468D02*
X-47011Y96385D01*
X-47005Y96302D01*
X-46996Y96220D01*
X-46982Y96138D01*
X-46965Y96056D01*
X-46944Y95976D01*
X-46919Y95897D01*
X-46891Y95818D01*
X-46859Y95742D01*
X-46823Y95667D01*
X-46785Y95593D01*
X-46742Y95522D01*
X-46697Y95452D01*
X-46648Y95385D01*
X-46596Y95320D01*
X-46541Y95258D01*
X-46484Y95198D01*
X-44050Y95303D02*
X-43995Y95305D01*
X-43939Y95310D01*
X-43885Y95319D01*
X-43831Y95332D01*
X-43778Y95348D01*
X-43726Y95367D01*
X-43675Y95390D01*
X-43627Y95416D01*
X-43579Y95446D01*
X-43534Y95478D01*
X-43492Y95513D01*
X-43451Y95551D01*
X-43413Y95592D01*
X-43378Y95634D01*
X-43346Y95679D01*
X-43316Y95727D01*
X-43290Y95775D01*
X-43267Y95826D01*
X-43248Y95878D01*
X-43232Y95931D01*
X-43219Y95985D01*
X-43210Y96039D01*
X-43205Y96095D01*
X-43203Y96150D01*
X-43205Y96229D01*
X-43211Y96307D01*
X-43220Y96385D01*
X-43234Y96462D01*
X-43251Y96539D01*
X-43273Y96615D01*
X-43297Y96689D01*
X-43326Y96763D01*
X-43358Y96834D01*
X-43394Y96904D01*
X-43433Y96973D01*
X-43475Y97039D01*
X-43521Y97103D01*
X-44791Y95726D02*
X-44761Y95679D01*
X-44728Y95634D01*
X-44692Y95591D01*
X-44654Y95551D01*
X-44613Y95513D01*
X-44570Y95478D01*
X-44524Y95446D01*
X-44477Y95416D01*
X-44427Y95390D01*
X-44376Y95367D01*
X-44324Y95348D01*
X-44271Y95332D01*
X-44216Y95319D01*
X-44161Y95310D01*
X-44106Y95305D01*
X-44050Y95303D01*
X-45425Y96891D02*
X-45455Y96938D01*
X-45488Y96983D01*
X-45524Y97026D01*
X-45562Y97066D01*
X-45603Y97104D01*
X-45646Y97139D01*
X-45692Y97171D01*
X-45739Y97201D01*
X-45789Y97227D01*
X-45840Y97250D01*
X-45892Y97269D01*
X-45945Y97285D01*
X-46000Y97298D01*
X-46055Y97307D01*
X-46110Y97312D01*
X-46166Y97314D01*
X-45426Y96891D02*
X-44791Y95727D01*
X-46166Y98733D02*
X-43203Y99580D01*
X-46166Y98733D02*
X-46166Y100850D01*
X-45320Y100215D02*
X-47013Y100215D01*
D10*
X-221201Y239658D02*
X-221201Y245246D01*
X-222754Y245246D01*
X-222831Y245244D01*
X-222909Y245238D01*
X-222985Y245229D01*
X-223062Y245215D01*
X-223137Y245198D01*
X-223211Y245177D01*
X-223285Y245152D01*
X-223357Y245124D01*
X-223427Y245092D01*
X-223496Y245057D01*
X-223563Y245018D01*
X-223628Y244976D01*
X-223691Y244931D01*
X-223752Y244883D01*
X-223810Y244832D01*
X-223865Y244778D01*
X-223918Y244721D01*
X-223967Y244662D01*
X-224014Y244600D01*
X-224058Y244536D01*
X-224098Y244470D01*
X-224135Y244402D01*
X-224169Y244332D01*
X-224199Y244261D01*
X-224225Y244188D01*
X-224248Y244114D01*
X-224267Y244039D01*
X-224282Y243964D01*
X-224294Y243887D01*
X-224302Y243810D01*
X-224306Y243733D01*
X-224306Y243655D01*
X-224302Y243578D01*
X-224294Y243501D01*
X-224282Y243424D01*
X-224267Y243349D01*
X-224248Y243274D01*
X-224225Y243200D01*
X-224199Y243127D01*
X-224169Y243056D01*
X-224135Y242986D01*
X-224098Y242918D01*
X-224058Y242852D01*
X-224014Y242788D01*
X-223967Y242726D01*
X-223918Y242667D01*
X-223865Y242610D01*
X-223810Y242556D01*
X-223752Y242505D01*
X-223691Y242457D01*
X-223628Y242412D01*
X-223563Y242370D01*
X-223496Y242331D01*
X-223427Y242296D01*
X-223357Y242264D01*
X-223285Y242236D01*
X-223211Y242211D01*
X-223137Y242190D01*
X-223062Y242173D01*
X-222985Y242159D01*
X-222909Y242150D01*
X-222831Y242144D01*
X-222754Y242142D01*
X-221201Y242142D01*
X-223064Y242142D02*
X-224306Y239658D01*
X-229756Y243849D02*
X-229754Y243922D01*
X-229748Y243995D01*
X-229739Y244068D01*
X-229725Y244139D01*
X-229708Y244211D01*
X-229688Y244281D01*
X-229663Y244350D01*
X-229635Y244417D01*
X-229604Y244483D01*
X-229569Y244548D01*
X-229531Y244610D01*
X-229489Y244670D01*
X-229445Y244728D01*
X-229397Y244784D01*
X-229347Y244837D01*
X-229294Y244887D01*
X-229238Y244935D01*
X-229180Y244979D01*
X-229120Y245021D01*
X-229058Y245059D01*
X-228993Y245094D01*
X-228927Y245125D01*
X-228860Y245153D01*
X-228791Y245178D01*
X-228721Y245198D01*
X-228649Y245215D01*
X-228578Y245229D01*
X-228505Y245238D01*
X-228432Y245244D01*
X-228359Y245246D01*
X-228275Y245244D01*
X-228192Y245238D01*
X-228109Y245229D01*
X-228027Y245215D01*
X-227945Y245198D01*
X-227864Y245176D01*
X-227784Y245151D01*
X-227706Y245123D01*
X-227628Y245091D01*
X-227553Y245055D01*
X-227479Y245016D01*
X-227407Y244973D01*
X-227337Y244927D01*
X-227270Y244878D01*
X-227204Y244825D01*
X-227142Y244770D01*
X-227082Y244712D01*
X-227024Y244651D01*
X-226970Y244588D01*
X-226918Y244522D01*
X-226870Y244454D01*
X-226825Y244383D01*
X-226783Y244311D01*
X-226745Y244236D01*
X-226710Y244160D01*
X-226679Y244083D01*
X-226651Y244004D01*
X-229290Y242763D02*
X-229344Y242816D01*
X-229395Y242873D01*
X-229443Y242932D01*
X-229488Y242993D01*
X-229529Y243056D01*
X-229568Y243122D01*
X-229603Y243189D01*
X-229635Y243258D01*
X-229663Y243329D01*
X-229687Y243400D01*
X-229708Y243473D01*
X-229725Y243547D01*
X-229739Y243622D01*
X-229748Y243697D01*
X-229754Y243773D01*
X-229756Y243849D01*
X-229290Y242762D02*
X-226652Y239658D01*
X-229756Y239658D01*
X-223144Y223926D02*
X-221592Y222684D01*
X-223144Y223926D02*
X-223144Y218338D01*
X-221592Y218338D02*
X-224697Y218338D01*
X-227272Y218338D02*
X-227272Y223926D01*
X-229756Y222063D02*
X-227272Y220201D01*
X-228359Y220977D02*
X-229756Y218338D01*
X-211168Y197526D02*
X-211168Y191938D01*
X-211168Y197526D02*
X-212721Y197526D01*
X-212798Y197524D01*
X-212876Y197518D01*
X-212952Y197509D01*
X-213029Y197495D01*
X-213104Y197478D01*
X-213178Y197457D01*
X-213252Y197432D01*
X-213324Y197404D01*
X-213394Y197372D01*
X-213463Y197337D01*
X-213530Y197298D01*
X-213595Y197256D01*
X-213658Y197211D01*
X-213719Y197163D01*
X-213777Y197112D01*
X-213832Y197058D01*
X-213885Y197001D01*
X-213934Y196942D01*
X-213981Y196880D01*
X-214025Y196816D01*
X-214065Y196750D01*
X-214102Y196682D01*
X-214136Y196612D01*
X-214166Y196541D01*
X-214192Y196468D01*
X-214215Y196394D01*
X-214234Y196319D01*
X-214249Y196244D01*
X-214261Y196167D01*
X-214269Y196090D01*
X-214273Y196013D01*
X-214273Y195935D01*
X-214269Y195858D01*
X-214261Y195781D01*
X-214249Y195704D01*
X-214234Y195629D01*
X-214215Y195554D01*
X-214192Y195480D01*
X-214166Y195407D01*
X-214136Y195336D01*
X-214102Y195266D01*
X-214065Y195198D01*
X-214025Y195132D01*
X-213981Y195068D01*
X-213934Y195006D01*
X-213885Y194947D01*
X-213832Y194890D01*
X-213777Y194836D01*
X-213719Y194785D01*
X-213658Y194737D01*
X-213595Y194692D01*
X-213530Y194650D01*
X-213463Y194611D01*
X-213394Y194576D01*
X-213324Y194544D01*
X-213252Y194516D01*
X-213178Y194491D01*
X-213104Y194470D01*
X-213029Y194453D01*
X-212952Y194439D01*
X-212876Y194430D01*
X-212798Y194424D01*
X-212721Y194422D01*
X-211168Y194422D01*
X-213031Y194422D02*
X-214273Y191938D01*
X-216619Y191938D02*
X-218171Y191938D01*
X-218248Y191940D01*
X-218326Y191946D01*
X-218402Y191955D01*
X-218479Y191969D01*
X-218554Y191986D01*
X-218628Y192007D01*
X-218702Y192032D01*
X-218774Y192060D01*
X-218844Y192092D01*
X-218913Y192127D01*
X-218980Y192166D01*
X-219045Y192208D01*
X-219108Y192253D01*
X-219169Y192301D01*
X-219227Y192352D01*
X-219282Y192406D01*
X-219335Y192463D01*
X-219384Y192522D01*
X-219431Y192584D01*
X-219475Y192648D01*
X-219515Y192714D01*
X-219552Y192782D01*
X-219586Y192852D01*
X-219616Y192923D01*
X-219642Y192996D01*
X-219665Y193070D01*
X-219684Y193145D01*
X-219699Y193220D01*
X-219711Y193297D01*
X-219719Y193374D01*
X-219723Y193451D01*
X-219723Y193529D01*
X-219719Y193606D01*
X-219711Y193683D01*
X-219699Y193760D01*
X-219684Y193835D01*
X-219665Y193910D01*
X-219642Y193984D01*
X-219616Y194057D01*
X-219586Y194128D01*
X-219552Y194198D01*
X-219515Y194266D01*
X-219475Y194332D01*
X-219431Y194396D01*
X-219384Y194458D01*
X-219335Y194517D01*
X-219282Y194574D01*
X-219227Y194628D01*
X-219169Y194679D01*
X-219108Y194727D01*
X-219045Y194772D01*
X-218980Y194814D01*
X-218913Y194853D01*
X-218844Y194888D01*
X-218774Y194920D01*
X-218702Y194948D01*
X-218628Y194973D01*
X-218554Y194994D01*
X-218479Y195011D01*
X-218402Y195025D01*
X-218326Y195034D01*
X-218248Y195040D01*
X-218171Y195042D01*
X-218481Y197526D02*
X-216619Y197526D01*
X-218481Y197526D02*
X-218551Y197524D01*
X-218620Y197518D01*
X-218689Y197508D01*
X-218757Y197495D01*
X-218825Y197477D01*
X-218891Y197456D01*
X-218956Y197431D01*
X-219020Y197403D01*
X-219082Y197371D01*
X-219142Y197336D01*
X-219200Y197297D01*
X-219255Y197255D01*
X-219309Y197210D01*
X-219359Y197162D01*
X-219407Y197112D01*
X-219452Y197058D01*
X-219494Y197003D01*
X-219533Y196945D01*
X-219568Y196885D01*
X-219600Y196823D01*
X-219628Y196759D01*
X-219653Y196694D01*
X-219674Y196628D01*
X-219692Y196560D01*
X-219705Y196492D01*
X-219715Y196423D01*
X-219721Y196354D01*
X-219723Y196284D01*
X-219721Y196214D01*
X-219715Y196145D01*
X-219705Y196076D01*
X-219692Y196008D01*
X-219674Y195940D01*
X-219653Y195874D01*
X-219628Y195809D01*
X-219600Y195745D01*
X-219568Y195683D01*
X-219533Y195623D01*
X-219494Y195565D01*
X-219452Y195510D01*
X-219407Y195456D01*
X-219359Y195406D01*
X-219309Y195358D01*
X-219255Y195313D01*
X-219200Y195271D01*
X-219142Y195232D01*
X-219082Y195197D01*
X-219020Y195165D01*
X-218956Y195137D01*
X-218891Y195112D01*
X-218825Y195091D01*
X-218757Y195073D01*
X-218689Y195060D01*
X-218620Y195050D01*
X-218551Y195044D01*
X-218481Y195042D01*
X-217239Y195042D01*
X-227799Y196284D02*
X-229351Y197526D01*
X-229351Y191938D01*
X-227799Y191938D02*
X-230904Y191938D01*
X-233479Y191938D02*
X-233479Y197526D01*
X-235963Y195663D02*
X-233479Y193801D01*
X-234566Y194577D02*
X-235963Y191938D01*
X-142272Y149841D02*
X-136684Y149841D01*
X-136684Y151394D01*
X-136686Y151471D01*
X-136692Y151549D01*
X-136701Y151625D01*
X-136715Y151702D01*
X-136732Y151777D01*
X-136753Y151851D01*
X-136778Y151925D01*
X-136806Y151997D01*
X-136838Y152067D01*
X-136873Y152136D01*
X-136912Y152203D01*
X-136954Y152268D01*
X-136999Y152331D01*
X-137047Y152392D01*
X-137098Y152450D01*
X-137152Y152505D01*
X-137209Y152558D01*
X-137268Y152607D01*
X-137330Y152654D01*
X-137394Y152698D01*
X-137460Y152738D01*
X-137528Y152775D01*
X-137598Y152809D01*
X-137669Y152839D01*
X-137742Y152865D01*
X-137816Y152888D01*
X-137891Y152907D01*
X-137966Y152922D01*
X-138043Y152934D01*
X-138120Y152942D01*
X-138197Y152946D01*
X-138275Y152946D01*
X-138352Y152942D01*
X-138429Y152934D01*
X-138506Y152922D01*
X-138581Y152907D01*
X-138656Y152888D01*
X-138730Y152865D01*
X-138803Y152839D01*
X-138874Y152809D01*
X-138944Y152775D01*
X-139012Y152738D01*
X-139078Y152698D01*
X-139142Y152654D01*
X-139204Y152607D01*
X-139263Y152558D01*
X-139320Y152505D01*
X-139374Y152450D01*
X-139425Y152392D01*
X-139473Y152331D01*
X-139518Y152268D01*
X-139560Y152203D01*
X-139599Y152136D01*
X-139634Y152067D01*
X-139666Y151997D01*
X-139694Y151925D01*
X-139719Y151851D01*
X-139740Y151777D01*
X-139757Y151702D01*
X-139771Y151625D01*
X-139780Y151549D01*
X-139786Y151471D01*
X-139788Y151394D01*
X-139788Y149841D01*
X-139788Y151704D02*
X-142272Y152946D01*
X-140720Y155292D02*
X-140643Y155294D01*
X-140565Y155300D01*
X-140489Y155309D01*
X-140412Y155323D01*
X-140337Y155340D01*
X-140263Y155361D01*
X-140189Y155386D01*
X-140117Y155414D01*
X-140047Y155446D01*
X-139978Y155481D01*
X-139911Y155520D01*
X-139846Y155562D01*
X-139783Y155607D01*
X-139722Y155655D01*
X-139664Y155706D01*
X-139609Y155760D01*
X-139556Y155817D01*
X-139507Y155876D01*
X-139460Y155938D01*
X-139416Y156002D01*
X-139376Y156068D01*
X-139339Y156136D01*
X-139305Y156206D01*
X-139275Y156277D01*
X-139249Y156350D01*
X-139226Y156424D01*
X-139207Y156499D01*
X-139192Y156574D01*
X-139180Y156651D01*
X-139172Y156728D01*
X-139168Y156805D01*
X-139168Y156883D01*
X-139172Y156960D01*
X-139180Y157037D01*
X-139192Y157114D01*
X-139207Y157189D01*
X-139226Y157264D01*
X-139249Y157338D01*
X-139275Y157411D01*
X-139305Y157482D01*
X-139339Y157552D01*
X-139376Y157620D01*
X-139416Y157686D01*
X-139460Y157750D01*
X-139507Y157812D01*
X-139556Y157871D01*
X-139609Y157928D01*
X-139664Y157982D01*
X-139722Y158033D01*
X-139783Y158081D01*
X-139846Y158126D01*
X-139911Y158168D01*
X-139978Y158207D01*
X-140047Y158242D01*
X-140117Y158274D01*
X-140189Y158302D01*
X-140263Y158327D01*
X-140337Y158348D01*
X-140412Y158365D01*
X-140489Y158379D01*
X-140565Y158388D01*
X-140643Y158394D01*
X-140720Y158396D01*
X-140797Y158394D01*
X-140875Y158388D01*
X-140951Y158379D01*
X-141028Y158365D01*
X-141103Y158348D01*
X-141177Y158327D01*
X-141251Y158302D01*
X-141323Y158274D01*
X-141393Y158242D01*
X-141462Y158207D01*
X-141529Y158168D01*
X-141594Y158126D01*
X-141657Y158081D01*
X-141718Y158033D01*
X-141776Y157982D01*
X-141831Y157928D01*
X-141884Y157871D01*
X-141933Y157812D01*
X-141980Y157750D01*
X-142024Y157686D01*
X-142064Y157620D01*
X-142101Y157552D01*
X-142135Y157482D01*
X-142165Y157411D01*
X-142191Y157338D01*
X-142214Y157264D01*
X-142233Y157189D01*
X-142248Y157114D01*
X-142260Y157037D01*
X-142268Y156960D01*
X-142272Y156883D01*
X-142272Y156805D01*
X-142268Y156728D01*
X-142260Y156651D01*
X-142248Y156574D01*
X-142233Y156499D01*
X-142214Y156424D01*
X-142191Y156350D01*
X-142165Y156277D01*
X-142135Y156206D01*
X-142101Y156136D01*
X-142064Y156068D01*
X-142024Y156002D01*
X-141980Y155938D01*
X-141933Y155876D01*
X-141884Y155817D01*
X-141831Y155760D01*
X-141776Y155706D01*
X-141718Y155655D01*
X-141657Y155607D01*
X-141594Y155562D01*
X-141529Y155520D01*
X-141462Y155481D01*
X-141393Y155446D01*
X-141323Y155414D01*
X-141251Y155386D01*
X-141177Y155361D01*
X-141103Y155340D01*
X-141028Y155323D01*
X-140951Y155309D01*
X-140875Y155300D01*
X-140797Y155294D01*
X-140720Y155292D01*
X-137926Y155602D02*
X-137856Y155604D01*
X-137787Y155610D01*
X-137718Y155620D01*
X-137650Y155633D01*
X-137582Y155651D01*
X-137516Y155672D01*
X-137451Y155697D01*
X-137387Y155725D01*
X-137325Y155757D01*
X-137265Y155792D01*
X-137207Y155831D01*
X-137152Y155873D01*
X-137098Y155918D01*
X-137048Y155966D01*
X-137000Y156016D01*
X-136955Y156070D01*
X-136913Y156125D01*
X-136874Y156183D01*
X-136839Y156243D01*
X-136807Y156305D01*
X-136779Y156369D01*
X-136754Y156434D01*
X-136733Y156500D01*
X-136715Y156568D01*
X-136702Y156636D01*
X-136692Y156705D01*
X-136686Y156774D01*
X-136684Y156844D01*
X-136686Y156914D01*
X-136692Y156983D01*
X-136702Y157052D01*
X-136715Y157120D01*
X-136733Y157188D01*
X-136754Y157254D01*
X-136779Y157319D01*
X-136807Y157383D01*
X-136839Y157445D01*
X-136874Y157505D01*
X-136913Y157563D01*
X-136955Y157618D01*
X-137000Y157672D01*
X-137048Y157722D01*
X-137098Y157770D01*
X-137152Y157815D01*
X-137207Y157857D01*
X-137265Y157896D01*
X-137325Y157931D01*
X-137387Y157963D01*
X-137451Y157991D01*
X-137516Y158016D01*
X-137582Y158037D01*
X-137650Y158055D01*
X-137718Y158068D01*
X-137787Y158078D01*
X-137856Y158084D01*
X-137926Y158086D01*
X-137996Y158084D01*
X-138065Y158078D01*
X-138134Y158068D01*
X-138202Y158055D01*
X-138270Y158037D01*
X-138336Y158016D01*
X-138401Y157991D01*
X-138465Y157963D01*
X-138527Y157931D01*
X-138587Y157896D01*
X-138645Y157857D01*
X-138700Y157815D01*
X-138754Y157770D01*
X-138804Y157722D01*
X-138852Y157672D01*
X-138897Y157618D01*
X-138939Y157563D01*
X-138978Y157505D01*
X-139013Y157445D01*
X-139045Y157383D01*
X-139073Y157319D01*
X-139098Y157254D01*
X-139119Y157188D01*
X-139137Y157120D01*
X-139150Y157052D01*
X-139160Y156983D01*
X-139166Y156914D01*
X-139168Y156844D01*
X-139166Y156774D01*
X-139160Y156705D01*
X-139150Y156636D01*
X-139137Y156568D01*
X-139119Y156500D01*
X-139098Y156434D01*
X-139073Y156369D01*
X-139045Y156305D01*
X-139013Y156243D01*
X-138978Y156183D01*
X-138939Y156125D01*
X-138897Y156070D01*
X-138852Y156016D01*
X-138804Y155966D01*
X-138754Y155918D01*
X-138700Y155873D01*
X-138645Y155831D01*
X-138587Y155792D01*
X-138527Y155757D01*
X-138465Y155725D01*
X-138401Y155697D01*
X-138336Y155672D01*
X-138270Y155651D01*
X-138202Y155633D01*
X-138134Y155620D01*
X-138065Y155610D01*
X-137996Y155604D01*
X-137926Y155602D01*
X-137286Y164466D02*
X-136044Y166018D01*
X-141632Y166018D01*
X-141632Y164466D02*
X-141632Y167570D01*
X-138838Y169952D02*
X-138707Y169954D01*
X-138577Y169959D01*
X-138447Y169969D01*
X-138317Y169982D01*
X-138187Y169998D01*
X-138058Y170018D01*
X-137930Y170042D01*
X-137803Y170070D01*
X-137676Y170101D01*
X-137550Y170136D01*
X-137425Y170174D01*
X-137301Y170216D01*
X-137179Y170261D01*
X-137058Y170310D01*
X-136938Y170362D01*
X-136820Y170418D01*
X-136820Y170417D02*
X-136760Y170440D01*
X-136700Y170466D01*
X-136643Y170495D01*
X-136587Y170528D01*
X-136533Y170564D01*
X-136481Y170602D01*
X-136431Y170644D01*
X-136384Y170688D01*
X-136339Y170735D01*
X-136297Y170785D01*
X-136258Y170836D01*
X-136222Y170890D01*
X-136189Y170946D01*
X-136159Y171003D01*
X-136132Y171062D01*
X-136109Y171123D01*
X-136089Y171184D01*
X-136073Y171247D01*
X-136060Y171311D01*
X-136051Y171375D01*
X-136046Y171439D01*
X-136044Y171504D01*
X-136046Y171569D01*
X-136051Y171633D01*
X-136060Y171697D01*
X-136073Y171761D01*
X-136089Y171824D01*
X-136109Y171885D01*
X-136132Y171946D01*
X-136159Y172005D01*
X-136189Y172062D01*
X-136222Y172118D01*
X-136258Y172172D01*
X-136297Y172223D01*
X-136339Y172273D01*
X-136384Y172320D01*
X-136431Y172364D01*
X-136481Y172406D01*
X-136533Y172444D01*
X-136587Y172480D01*
X-136643Y172513D01*
X-136700Y172542D01*
X-136760Y172568D01*
X-136820Y172591D01*
X-136938Y172647D01*
X-137058Y172699D01*
X-137179Y172748D01*
X-137301Y172793D01*
X-137425Y172835D01*
X-137550Y172873D01*
X-137676Y172908D01*
X-137802Y172939D01*
X-137930Y172967D01*
X-138058Y172991D01*
X-138187Y173011D01*
X-138317Y173027D01*
X-138447Y173040D01*
X-138577Y173050D01*
X-138707Y173055D01*
X-138838Y173057D01*
X-138838Y169952D02*
X-138969Y169954D01*
X-139099Y169959D01*
X-139229Y169969D01*
X-139359Y169982D01*
X-139489Y169998D01*
X-139618Y170018D01*
X-139746Y170042D01*
X-139873Y170070D01*
X-140000Y170101D01*
X-140126Y170136D01*
X-140251Y170174D01*
X-140375Y170216D01*
X-140497Y170261D01*
X-140618Y170310D01*
X-140738Y170362D01*
X-140856Y170418D01*
X-140856Y170417D02*
X-140916Y170440D01*
X-140976Y170466D01*
X-141033Y170495D01*
X-141089Y170528D01*
X-141143Y170564D01*
X-141195Y170602D01*
X-141245Y170644D01*
X-141292Y170688D01*
X-141337Y170735D01*
X-141379Y170785D01*
X-141418Y170836D01*
X-141454Y170890D01*
X-141487Y170946D01*
X-141517Y171003D01*
X-141544Y171062D01*
X-141567Y171123D01*
X-141587Y171184D01*
X-141603Y171247D01*
X-141616Y171311D01*
X-141625Y171375D01*
X-141630Y171439D01*
X-141632Y171504D01*
X-140856Y172591D02*
X-140738Y172647D01*
X-140618Y172699D01*
X-140497Y172748D01*
X-140375Y172793D01*
X-140251Y172835D01*
X-140126Y172873D01*
X-140000Y172908D01*
X-139874Y172939D01*
X-139746Y172967D01*
X-139618Y172991D01*
X-139489Y173011D01*
X-139359Y173027D01*
X-139229Y173040D01*
X-139099Y173050D01*
X-138969Y173055D01*
X-138838Y173057D01*
X-140856Y172591D02*
X-140916Y172568D01*
X-140976Y172542D01*
X-141033Y172513D01*
X-141089Y172480D01*
X-141143Y172444D01*
X-141195Y172406D01*
X-141245Y172364D01*
X-141292Y172320D01*
X-141337Y172273D01*
X-141379Y172223D01*
X-141418Y172172D01*
X-141454Y172118D01*
X-141487Y172062D01*
X-141517Y172005D01*
X-141544Y171946D01*
X-141567Y171885D01*
X-141587Y171824D01*
X-141603Y171761D01*
X-141616Y171697D01*
X-141625Y171633D01*
X-141630Y171569D01*
X-141632Y171504D01*
X-140390Y170263D02*
X-137286Y172746D01*
X-136044Y175632D02*
X-141632Y175632D01*
X-139769Y175632D02*
X-137907Y178116D01*
X-138993Y176719D02*
X-141632Y178116D01*
X-94204Y258124D02*
X-94204Y263712D01*
X-95756Y263712D01*
X-95833Y263710D01*
X-95911Y263704D01*
X-95987Y263695D01*
X-96064Y263681D01*
X-96139Y263664D01*
X-96213Y263643D01*
X-96287Y263618D01*
X-96359Y263590D01*
X-96429Y263558D01*
X-96498Y263523D01*
X-96565Y263484D01*
X-96630Y263442D01*
X-96693Y263397D01*
X-96754Y263349D01*
X-96812Y263298D01*
X-96867Y263244D01*
X-96920Y263187D01*
X-96969Y263128D01*
X-97016Y263066D01*
X-97060Y263002D01*
X-97100Y262936D01*
X-97137Y262868D01*
X-97171Y262798D01*
X-97201Y262727D01*
X-97227Y262654D01*
X-97250Y262580D01*
X-97269Y262505D01*
X-97284Y262430D01*
X-97296Y262353D01*
X-97304Y262276D01*
X-97308Y262199D01*
X-97308Y262121D01*
X-97304Y262044D01*
X-97296Y261967D01*
X-97284Y261890D01*
X-97269Y261815D01*
X-97250Y261740D01*
X-97227Y261666D01*
X-97201Y261593D01*
X-97171Y261522D01*
X-97137Y261452D01*
X-97100Y261384D01*
X-97060Y261318D01*
X-97016Y261254D01*
X-96969Y261192D01*
X-96920Y261133D01*
X-96867Y261076D01*
X-96812Y261022D01*
X-96754Y260971D01*
X-96693Y260923D01*
X-96630Y260878D01*
X-96565Y260836D01*
X-96498Y260797D01*
X-96429Y260762D01*
X-96359Y260730D01*
X-96287Y260702D01*
X-96213Y260677D01*
X-96139Y260656D01*
X-96064Y260639D01*
X-95987Y260625D01*
X-95911Y260616D01*
X-95833Y260610D01*
X-95756Y260608D01*
X-94204Y260608D01*
X-96067Y260608D02*
X-97308Y258124D01*
X-99654Y259366D02*
X-100896Y263712D01*
X-99654Y259366D02*
X-102759Y259366D01*
X-101827Y260608D02*
X-101827Y258124D01*
X-92164Y224476D02*
X-90611Y223234D01*
X-92164Y224476D02*
X-92164Y218888D01*
X-93716Y218888D02*
X-90611Y218888D01*
X-95849Y218888D02*
X-95849Y219198D01*
X-96159Y219198D01*
X-96159Y218888D01*
X-95849Y218888D01*
X-101397Y223079D02*
X-101395Y223152D01*
X-101389Y223225D01*
X-101380Y223298D01*
X-101366Y223369D01*
X-101349Y223441D01*
X-101329Y223511D01*
X-101304Y223580D01*
X-101276Y223647D01*
X-101245Y223713D01*
X-101210Y223778D01*
X-101172Y223840D01*
X-101130Y223900D01*
X-101086Y223958D01*
X-101038Y224014D01*
X-100988Y224067D01*
X-100935Y224117D01*
X-100879Y224165D01*
X-100821Y224209D01*
X-100761Y224251D01*
X-100699Y224289D01*
X-100634Y224324D01*
X-100568Y224355D01*
X-100501Y224383D01*
X-100432Y224408D01*
X-100362Y224428D01*
X-100290Y224445D01*
X-100219Y224459D01*
X-100146Y224468D01*
X-100073Y224474D01*
X-100000Y224476D01*
X-99916Y224474D01*
X-99833Y224468D01*
X-99750Y224459D01*
X-99668Y224445D01*
X-99586Y224428D01*
X-99505Y224406D01*
X-99425Y224381D01*
X-99347Y224353D01*
X-99269Y224321D01*
X-99194Y224285D01*
X-99120Y224246D01*
X-99048Y224203D01*
X-98978Y224157D01*
X-98911Y224108D01*
X-98845Y224055D01*
X-98783Y224000D01*
X-98723Y223942D01*
X-98665Y223881D01*
X-98611Y223818D01*
X-98559Y223752D01*
X-98511Y223684D01*
X-98466Y223613D01*
X-98424Y223541D01*
X-98386Y223466D01*
X-98351Y223390D01*
X-98320Y223313D01*
X-98292Y223234D01*
X-100930Y221993D02*
X-100984Y222046D01*
X-101035Y222103D01*
X-101083Y222162D01*
X-101128Y222223D01*
X-101169Y222286D01*
X-101208Y222352D01*
X-101243Y222419D01*
X-101275Y222488D01*
X-101303Y222559D01*
X-101327Y222630D01*
X-101348Y222703D01*
X-101365Y222777D01*
X-101379Y222852D01*
X-101388Y222927D01*
X-101394Y223003D01*
X-101396Y223079D01*
X-100931Y221992D02*
X-98292Y218888D01*
X-101397Y218888D01*
X-103972Y218888D02*
X-103972Y224476D01*
X-106456Y222613D02*
X-103972Y220751D01*
X-105059Y221527D02*
X-106456Y218888D01*
X-72554Y256994D02*
X-72554Y262582D01*
X-74106Y262582D01*
X-74183Y262580D01*
X-74261Y262574D01*
X-74337Y262565D01*
X-74414Y262551D01*
X-74489Y262534D01*
X-74563Y262513D01*
X-74637Y262488D01*
X-74709Y262460D01*
X-74779Y262428D01*
X-74848Y262393D01*
X-74915Y262354D01*
X-74980Y262312D01*
X-75043Y262267D01*
X-75104Y262219D01*
X-75162Y262168D01*
X-75217Y262114D01*
X-75270Y262057D01*
X-75319Y261998D01*
X-75366Y261936D01*
X-75410Y261872D01*
X-75450Y261806D01*
X-75487Y261738D01*
X-75521Y261668D01*
X-75551Y261597D01*
X-75577Y261524D01*
X-75600Y261450D01*
X-75619Y261375D01*
X-75634Y261300D01*
X-75646Y261223D01*
X-75654Y261146D01*
X-75658Y261069D01*
X-75658Y260991D01*
X-75654Y260914D01*
X-75646Y260837D01*
X-75634Y260760D01*
X-75619Y260685D01*
X-75600Y260610D01*
X-75577Y260536D01*
X-75551Y260463D01*
X-75521Y260392D01*
X-75487Y260322D01*
X-75450Y260254D01*
X-75410Y260188D01*
X-75366Y260124D01*
X-75319Y260062D01*
X-75270Y260003D01*
X-75217Y259946D01*
X-75162Y259892D01*
X-75104Y259841D01*
X-75043Y259793D01*
X-74980Y259748D01*
X-74915Y259706D01*
X-74848Y259667D01*
X-74779Y259632D01*
X-74709Y259600D01*
X-74637Y259572D01*
X-74563Y259547D01*
X-74489Y259526D01*
X-74414Y259509D01*
X-74337Y259495D01*
X-74261Y259486D01*
X-74183Y259480D01*
X-74106Y259478D01*
X-72554Y259478D01*
X-74417Y259478D02*
X-75658Y256994D01*
X-78004Y256994D02*
X-79867Y256994D01*
X-79937Y256996D01*
X-80006Y257002D01*
X-80075Y257012D01*
X-80143Y257025D01*
X-80211Y257043D01*
X-80277Y257064D01*
X-80342Y257089D01*
X-80406Y257117D01*
X-80468Y257149D01*
X-80528Y257184D01*
X-80586Y257223D01*
X-80641Y257265D01*
X-80695Y257310D01*
X-80745Y257358D01*
X-80793Y257408D01*
X-80838Y257462D01*
X-80880Y257517D01*
X-80919Y257575D01*
X-80954Y257635D01*
X-80986Y257697D01*
X-81014Y257761D01*
X-81039Y257826D01*
X-81060Y257892D01*
X-81078Y257960D01*
X-81091Y258028D01*
X-81101Y258097D01*
X-81107Y258166D01*
X-81109Y258236D01*
X-81109Y258857D01*
X-81107Y258927D01*
X-81101Y258996D01*
X-81091Y259065D01*
X-81078Y259133D01*
X-81060Y259201D01*
X-81039Y259267D01*
X-81014Y259332D01*
X-80986Y259396D01*
X-80954Y259458D01*
X-80919Y259518D01*
X-80880Y259576D01*
X-80838Y259631D01*
X-80793Y259685D01*
X-80745Y259735D01*
X-80695Y259783D01*
X-80641Y259828D01*
X-80586Y259870D01*
X-80528Y259909D01*
X-80468Y259944D01*
X-80406Y259976D01*
X-80342Y260004D01*
X-80277Y260029D01*
X-80211Y260050D01*
X-80143Y260068D01*
X-80075Y260081D01*
X-80006Y260091D01*
X-79937Y260097D01*
X-79867Y260099D01*
X-79867Y260098D02*
X-78004Y260098D01*
X-78004Y262582D01*
X-81109Y262582D01*
X-70634Y223066D02*
X-69081Y221824D01*
X-70634Y223066D02*
X-70634Y217478D01*
X-72186Y217478D02*
X-69081Y217478D01*
X-74319Y217478D02*
X-74319Y217788D01*
X-74629Y217788D01*
X-74629Y217478D01*
X-74319Y217478D01*
X-79867Y221669D02*
X-79865Y221742D01*
X-79859Y221815D01*
X-79850Y221888D01*
X-79836Y221959D01*
X-79819Y222031D01*
X-79799Y222101D01*
X-79774Y222170D01*
X-79746Y222237D01*
X-79715Y222303D01*
X-79680Y222368D01*
X-79642Y222430D01*
X-79600Y222490D01*
X-79556Y222548D01*
X-79508Y222604D01*
X-79458Y222657D01*
X-79405Y222707D01*
X-79349Y222755D01*
X-79291Y222799D01*
X-79231Y222841D01*
X-79169Y222879D01*
X-79104Y222914D01*
X-79038Y222945D01*
X-78971Y222973D01*
X-78902Y222998D01*
X-78832Y223018D01*
X-78760Y223035D01*
X-78689Y223049D01*
X-78616Y223058D01*
X-78543Y223064D01*
X-78470Y223066D01*
X-78386Y223064D01*
X-78303Y223058D01*
X-78220Y223049D01*
X-78138Y223035D01*
X-78056Y223018D01*
X-77975Y222996D01*
X-77895Y222971D01*
X-77817Y222943D01*
X-77739Y222911D01*
X-77664Y222875D01*
X-77590Y222836D01*
X-77518Y222793D01*
X-77448Y222747D01*
X-77381Y222698D01*
X-77315Y222645D01*
X-77253Y222590D01*
X-77193Y222532D01*
X-77135Y222471D01*
X-77081Y222408D01*
X-77029Y222342D01*
X-76981Y222274D01*
X-76936Y222203D01*
X-76894Y222131D01*
X-76856Y222056D01*
X-76821Y221980D01*
X-76790Y221903D01*
X-76762Y221824D01*
X-79400Y220583D02*
X-79454Y220636D01*
X-79505Y220693D01*
X-79553Y220752D01*
X-79598Y220813D01*
X-79639Y220876D01*
X-79678Y220942D01*
X-79713Y221009D01*
X-79745Y221078D01*
X-79773Y221149D01*
X-79797Y221220D01*
X-79818Y221293D01*
X-79835Y221367D01*
X-79849Y221442D01*
X-79858Y221517D01*
X-79864Y221593D01*
X-79866Y221669D01*
X-79401Y220582D02*
X-76762Y217478D01*
X-79867Y217478D01*
X-82442Y217478D02*
X-82442Y223066D01*
X-84926Y221203D02*
X-82442Y219341D01*
X-83529Y220117D02*
X-84926Y217478D01*
M02*
