G04 EAGLE Gerber RS-274X export*
G75*
%MOMM*%
%FSLAX34Y34*%
%LPD*%
%INSolderpaste Bottom*%
%IPPOS*%
%AMOC8*
5,1,8,0,0,1.08239X$1,22.5*%
G01*
%ADD10R,1.000000X1.100000*%
%ADD11R,1.300000X1.500000*%
%ADD12R,0.800000X2.540000*%
%ADD13R,7.000000X8.000000*%
%ADD14R,1.500000X0.600000*%
%ADD15R,1.100000X1.000000*%


D10*
X-120000Y248500D03*
X-120000Y231500D03*
D11*
X-124500Y207000D03*
X-105500Y207000D03*
D12*
X-174000Y-214000D03*
X-186700Y-214000D03*
X-199400Y-214000D03*
X-212100Y-214000D03*
X-161300Y-214000D03*
X-148600Y-214000D03*
X-135900Y-214000D03*
D13*
X-174000Y-150225D03*
D12*
X-174000Y26000D03*
X-161300Y26000D03*
X-148600Y26000D03*
X-135900Y26000D03*
X-186700Y26000D03*
X-199400Y26000D03*
X-212100Y26000D03*
D13*
X-174000Y-37775D03*
D14*
X-57500Y50000D03*
X-57500Y59500D03*
X-57500Y40500D03*
X-82500Y50000D03*
X-82500Y59500D03*
X-82500Y40500D03*
X-57500Y100000D03*
X-57500Y109500D03*
X-57500Y90500D03*
X-82500Y100000D03*
X-82500Y109500D03*
X-82500Y90500D03*
D10*
X-232160Y231530D03*
X-215160Y231530D03*
X-232287Y206130D03*
X-215287Y206130D03*
X-106500Y165000D03*
X-123500Y165000D03*
D15*
X-99000Y231500D03*
X-99000Y248500D03*
X-78000Y231500D03*
X-78000Y248500D03*
M02*
