G04 EAGLE Gerber RS-274X export*
G75*
%MOMM*%
%FSLAX34Y34*%
%LPD*%
%INSolderpaste Top*%
%IPPOS*%
%AMOC8*
5,1,8,0,0,1.08239X$1,22.5*%
G01*
%ADD10R,1.100000X1.000000*%
%ADD11R,0.800000X0.800000*%
%ADD12R,0.800000X2.540000*%
%ADD13R,7.000000X8.000000*%
%ADD14R,1.500000X0.600000*%
%ADD15R,1.000000X1.100000*%
%ADD16R,0.600000X0.900000*%
%ADD17R,1.200000X2.700000*%
%ADD18R,1.200000X3.000000*%
%ADD19R,3.100000X1.200000*%
%ADD20R,0.900000X0.800000*%
%ADD21R,0.406800X1.495600*%

G36*
X-139695Y143494D02*
X-139695Y143494D01*
X-139690Y143493D01*
X-139597Y143514D01*
X-139504Y143532D01*
X-139499Y143535D01*
X-139494Y143536D01*
X-139416Y143592D01*
X-139338Y143645D01*
X-139335Y143649D01*
X-139331Y143652D01*
X-139280Y143734D01*
X-139228Y143813D01*
X-139228Y143818D01*
X-139225Y143823D01*
X-139193Y144000D01*
X-139193Y159793D01*
X-136927Y159793D01*
X-136915Y159792D01*
X-136902Y159793D01*
X-136900Y159793D01*
X-136898Y159793D01*
X-136883Y159795D01*
X-136852Y159789D01*
X-136784Y159804D01*
X-136715Y159810D01*
X-136687Y159826D01*
X-136656Y159832D01*
X-136600Y159873D01*
X-136539Y159905D01*
X-136519Y159930D01*
X-136493Y159948D01*
X-136456Y160007D01*
X-136413Y160061D01*
X-136404Y160092D01*
X-136387Y160119D01*
X-136372Y160200D01*
X-136357Y160254D01*
X-136359Y160273D01*
X-136355Y160296D01*
X-136355Y201020D01*
X-136356Y201025D01*
X-136355Y201030D01*
X-136376Y201123D01*
X-136394Y201216D01*
X-136397Y201221D01*
X-136399Y201226D01*
X-136454Y201304D01*
X-136507Y201382D01*
X-136511Y201385D01*
X-136515Y201389D01*
X-136596Y201440D01*
X-136675Y201491D01*
X-136680Y201492D01*
X-136685Y201495D01*
X-136862Y201527D01*
X-154570Y201527D01*
X-154575Y201526D01*
X-154580Y201527D01*
X-154673Y201506D01*
X-154766Y201488D01*
X-154771Y201485D01*
X-154776Y201483D01*
X-154853Y201428D01*
X-154932Y201375D01*
X-154935Y201370D01*
X-154939Y201367D01*
X-154990Y201286D01*
X-155041Y201207D01*
X-155042Y201202D01*
X-155045Y201197D01*
X-155077Y201020D01*
X-155077Y198607D01*
X-170900Y198607D01*
X-170905Y198606D01*
X-170910Y198607D01*
X-171003Y198586D01*
X-171097Y198568D01*
X-171101Y198565D01*
X-171106Y198564D01*
X-171184Y198508D01*
X-171262Y198455D01*
X-171265Y198451D01*
X-171269Y198448D01*
X-171320Y198366D01*
X-171372Y198287D01*
X-171372Y198282D01*
X-171375Y198277D01*
X-171407Y198100D01*
X-171407Y186095D01*
X-171407Y186093D01*
X-171407Y186091D01*
X-171406Y186088D01*
X-171407Y186085D01*
X-171386Y185991D01*
X-171368Y185898D01*
X-171365Y185894D01*
X-171364Y185889D01*
X-171308Y185811D01*
X-171255Y185733D01*
X-171251Y185730D01*
X-171248Y185725D01*
X-171166Y185675D01*
X-171087Y185623D01*
X-171082Y185622D01*
X-171077Y185620D01*
X-170900Y185588D01*
X-155067Y185588D01*
X-155067Y160300D01*
X-155066Y160295D01*
X-155067Y160290D01*
X-155046Y160197D01*
X-155027Y160104D01*
X-155024Y160099D01*
X-155023Y160094D01*
X-154968Y160016D01*
X-154915Y159938D01*
X-154910Y159935D01*
X-154907Y159931D01*
X-154826Y159880D01*
X-154746Y159828D01*
X-154741Y159828D01*
X-154737Y159825D01*
X-154560Y159793D01*
X-152207Y159793D01*
X-152207Y144000D01*
X-152206Y143995D01*
X-152207Y143990D01*
X-152186Y143897D01*
X-152168Y143804D01*
X-152165Y143799D01*
X-152164Y143794D01*
X-152108Y143716D01*
X-152055Y143638D01*
X-152051Y143635D01*
X-152048Y143631D01*
X-151966Y143580D01*
X-151887Y143528D01*
X-151882Y143528D01*
X-151877Y143525D01*
X-151700Y143493D01*
X-139700Y143493D01*
X-139695Y143494D01*
G37*
G36*
X-136845Y205594D02*
X-136845Y205594D01*
X-136840Y205593D01*
X-136747Y205614D01*
X-136654Y205632D01*
X-136649Y205635D01*
X-136644Y205636D01*
X-136566Y205692D01*
X-136488Y205745D01*
X-136485Y205749D01*
X-136481Y205752D01*
X-136430Y205834D01*
X-136378Y205913D01*
X-136378Y205918D01*
X-136375Y205923D01*
X-136343Y206100D01*
X-136343Y246800D01*
X-136344Y246805D01*
X-136343Y246810D01*
X-136364Y246903D01*
X-136382Y246997D01*
X-136385Y247001D01*
X-136386Y247006D01*
X-136442Y247084D01*
X-136495Y247162D01*
X-136499Y247165D01*
X-136502Y247169D01*
X-136584Y247220D01*
X-136663Y247272D01*
X-136668Y247272D01*
X-136673Y247275D01*
X-136850Y247307D01*
X-154550Y247307D01*
X-154555Y247306D01*
X-154560Y247307D01*
X-154653Y247286D01*
X-154747Y247268D01*
X-154751Y247265D01*
X-154756Y247264D01*
X-154834Y247208D01*
X-154912Y247155D01*
X-154915Y247151D01*
X-154919Y247148D01*
X-154970Y247066D01*
X-155022Y246987D01*
X-155022Y246982D01*
X-155025Y246977D01*
X-155057Y246800D01*
X-155057Y243507D01*
X-170900Y243507D01*
X-170905Y243506D01*
X-170910Y243507D01*
X-171003Y243486D01*
X-171097Y243468D01*
X-171101Y243465D01*
X-171106Y243464D01*
X-171184Y243408D01*
X-171262Y243355D01*
X-171265Y243351D01*
X-171269Y243348D01*
X-171320Y243266D01*
X-171372Y243187D01*
X-171372Y243182D01*
X-171375Y243177D01*
X-171407Y243000D01*
X-171407Y231900D01*
X-171406Y231895D01*
X-171407Y231890D01*
X-171386Y231797D01*
X-171368Y231704D01*
X-171365Y231699D01*
X-171364Y231694D01*
X-171308Y231616D01*
X-171255Y231538D01*
X-171251Y231535D01*
X-171248Y231531D01*
X-171166Y231480D01*
X-171087Y231428D01*
X-171082Y231428D01*
X-171077Y231425D01*
X-170900Y231393D01*
X-155057Y231393D01*
X-155057Y221507D01*
X-170900Y221507D01*
X-170905Y221506D01*
X-170910Y221507D01*
X-171003Y221486D01*
X-171097Y221468D01*
X-171101Y221465D01*
X-171106Y221464D01*
X-171184Y221408D01*
X-171262Y221355D01*
X-171265Y221351D01*
X-171269Y221348D01*
X-171320Y221266D01*
X-171372Y221187D01*
X-171372Y221182D01*
X-171375Y221177D01*
X-171407Y221000D01*
X-171407Y209000D01*
X-171406Y208995D01*
X-171407Y208990D01*
X-171386Y208897D01*
X-171368Y208804D01*
X-171365Y208799D01*
X-171364Y208794D01*
X-171308Y208716D01*
X-171255Y208638D01*
X-171251Y208635D01*
X-171248Y208631D01*
X-171166Y208580D01*
X-171087Y208528D01*
X-171082Y208528D01*
X-171077Y208525D01*
X-170900Y208493D01*
X-155057Y208493D01*
X-155057Y206100D01*
X-155056Y206095D01*
X-155057Y206090D01*
X-155036Y205997D01*
X-155018Y205904D01*
X-155015Y205899D01*
X-155014Y205894D01*
X-154958Y205816D01*
X-154905Y205738D01*
X-154901Y205735D01*
X-154898Y205731D01*
X-154816Y205680D01*
X-154737Y205628D01*
X-154732Y205628D01*
X-154727Y205625D01*
X-154550Y205593D01*
X-136850Y205593D01*
X-136845Y205594D01*
G37*
G36*
X-113895Y251594D02*
X-113895Y251594D01*
X-113890Y251593D01*
X-113797Y251614D01*
X-113704Y251632D01*
X-113699Y251635D01*
X-113694Y251636D01*
X-113616Y251692D01*
X-113538Y251745D01*
X-113535Y251749D01*
X-113531Y251752D01*
X-113480Y251834D01*
X-113428Y251913D01*
X-113428Y251918D01*
X-113425Y251923D01*
X-113393Y252100D01*
X-113393Y269800D01*
X-113394Y269805D01*
X-113393Y269810D01*
X-113414Y269903D01*
X-113432Y269997D01*
X-113435Y270001D01*
X-113436Y270006D01*
X-113492Y270084D01*
X-113545Y270162D01*
X-113549Y270165D01*
X-113552Y270169D01*
X-113634Y270220D01*
X-113713Y270272D01*
X-113718Y270272D01*
X-113723Y270275D01*
X-113900Y270307D01*
X-139193Y270307D01*
X-139193Y283100D01*
X-139194Y283105D01*
X-139193Y283110D01*
X-139214Y283203D01*
X-139232Y283297D01*
X-139235Y283301D01*
X-139236Y283306D01*
X-139292Y283384D01*
X-139345Y283462D01*
X-139349Y283465D01*
X-139352Y283469D01*
X-139434Y283520D01*
X-139513Y283572D01*
X-139518Y283572D01*
X-139523Y283575D01*
X-139700Y283607D01*
X-151700Y283607D01*
X-151705Y283606D01*
X-151710Y283607D01*
X-151803Y283586D01*
X-151897Y283568D01*
X-151901Y283565D01*
X-151906Y283564D01*
X-151984Y283508D01*
X-152062Y283455D01*
X-152065Y283451D01*
X-152069Y283448D01*
X-152120Y283366D01*
X-152172Y283287D01*
X-152172Y283282D01*
X-152175Y283277D01*
X-152207Y283100D01*
X-152207Y270307D01*
X-154600Y270307D01*
X-154605Y270306D01*
X-154610Y270307D01*
X-154703Y270286D01*
X-154797Y270268D01*
X-154801Y270265D01*
X-154806Y270264D01*
X-154884Y270208D01*
X-154962Y270155D01*
X-154965Y270151D01*
X-154969Y270148D01*
X-155020Y270066D01*
X-155072Y269987D01*
X-155072Y269982D01*
X-155075Y269977D01*
X-155107Y269800D01*
X-155107Y252100D01*
X-155106Y252095D01*
X-155107Y252090D01*
X-155086Y251997D01*
X-155068Y251904D01*
X-155065Y251899D01*
X-155064Y251894D01*
X-155008Y251816D01*
X-154955Y251738D01*
X-154951Y251735D01*
X-154948Y251731D01*
X-154866Y251680D01*
X-154787Y251628D01*
X-154782Y251628D01*
X-154777Y251625D01*
X-154600Y251593D01*
X-113900Y251593D01*
X-113895Y251594D01*
G37*
D10*
X-202500Y-94000D03*
X-185500Y-94000D03*
D11*
X-57500Y-255000D03*
X-42500Y-255000D03*
X-87500Y-255000D03*
X-72500Y-255000D03*
D12*
X-174000Y-214000D03*
X-161300Y-214000D03*
X-148600Y-214000D03*
X-135900Y-214000D03*
X-186700Y-214000D03*
X-199400Y-214000D03*
X-212100Y-214000D03*
D13*
X-174000Y-150225D03*
D12*
X-174000Y26000D03*
X-186700Y26000D03*
X-199400Y26000D03*
X-212100Y26000D03*
X-161300Y26000D03*
X-148600Y26000D03*
X-135900Y26000D03*
D13*
X-174000Y-37775D03*
D14*
X-82500Y50000D03*
X-82500Y59500D03*
X-82500Y40500D03*
X-57500Y50000D03*
X-57500Y59500D03*
X-57500Y40500D03*
X-82500Y100000D03*
X-82500Y109500D03*
X-82500Y90500D03*
X-57500Y100000D03*
X-57500Y109500D03*
X-57500Y90500D03*
D15*
X-78500Y75000D03*
X-61500Y75000D03*
X-78500Y125000D03*
X-61500Y125000D03*
X-58500Y-270000D03*
X-41500Y-270000D03*
X-88500Y-270000D03*
X-71500Y-270000D03*
D10*
X-260000Y106500D03*
X-260000Y123500D03*
X-220000Y123500D03*
X-220000Y106500D03*
D16*
X-204500Y103500D03*
X-195000Y103500D03*
X-185500Y103500D03*
X-185500Y126500D03*
X-195000Y126500D03*
X-204500Y126500D03*
D17*
X-100000Y269500D03*
X-77100Y269500D03*
X-54200Y269500D03*
D18*
X-100000Y159000D03*
X-77100Y159000D03*
X-54200Y159000D03*
D19*
X-44500Y215000D03*
X-44500Y237900D03*
X-44500Y192100D03*
D20*
X-240000Y104500D03*
X-240000Y125500D03*
D10*
X-145500Y-94000D03*
X-162500Y-94000D03*
D21*
X-92750Y-118873D03*
X-86250Y-118873D03*
X-79750Y-118873D03*
X-73250Y-118873D03*
X-66750Y-118873D03*
X-60250Y-118873D03*
X-53750Y-118873D03*
X-47250Y-118873D03*
X-47250Y-61127D03*
X-53750Y-61127D03*
X-60250Y-61127D03*
X-66750Y-61127D03*
X-73250Y-61127D03*
X-79750Y-61127D03*
X-86250Y-61127D03*
X-92750Y-61127D03*
M02*
