G04 EAGLE Gerber RS-274X export*
G75*
%MOMM*%
%FSLAX34Y34*%
%LPD*%
%INSoldermask Bottom*%
%IPPOS*%
%AMOC8*
5,1,8,0,0,1.08239X$1,22.5*%
G01*
%ADD10C,2.003200*%
%ADD11R,2.003200X2.003200*%
%ADD12R,1.203200X1.303200*%
%ADD13R,1.503200X1.703200*%
%ADD14R,1.003200X2.743200*%
%ADD15R,7.203200X8.203200*%
%ADD16C,1.711200*%
%ADD17R,1.703200X0.803200*%
%ADD18P,1.759533X8X202.500000*%
%ADD19P,1.759533X8X112.500000*%
%ADD20P,1.869504X8X112.500000*%
%ADD21R,1.303200X1.203200*%
%ADD22C,0.959600*%


D10*
X-183660Y145970D03*
X-209060Y145970D03*
X-234460Y145970D03*
X-259860Y145970D03*
D11*
X-186030Y180880D03*
X-186030Y206280D03*
X-186030Y231580D03*
X-262230Y180880D03*
X-262230Y206280D03*
X-262230Y231580D03*
D12*
X-120000Y248500D03*
X-120000Y231500D03*
D13*
X-124500Y207000D03*
X-105500Y207000D03*
D14*
X-174000Y-214000D03*
X-186700Y-214000D03*
X-199400Y-214000D03*
X-212100Y-214000D03*
X-161300Y-214000D03*
X-148600Y-214000D03*
X-135900Y-214000D03*
D15*
X-174000Y-150225D03*
D14*
X-174000Y26000D03*
X-161300Y26000D03*
X-148600Y26000D03*
X-135900Y26000D03*
X-186700Y26000D03*
X-199400Y26000D03*
X-212100Y26000D03*
D15*
X-174000Y-37775D03*
D16*
X-70000Y307000D03*
X-95000Y307000D03*
X-45000Y307000D03*
D17*
X-57500Y50000D03*
X-57500Y59500D03*
X-57500Y40500D03*
X-82500Y50000D03*
X-82500Y59500D03*
X-82500Y40500D03*
X-57500Y100000D03*
X-57500Y109500D03*
X-57500Y90500D03*
X-82500Y100000D03*
X-82500Y109500D03*
X-82500Y90500D03*
D11*
X-82700Y0D03*
X-57300Y0D03*
D12*
X-232160Y231530D03*
X-215160Y231530D03*
X-232287Y206130D03*
X-215287Y206130D03*
X-106500Y165000D03*
X-123500Y165000D03*
D11*
X-12700Y-241300D03*
X-12700Y-215900D03*
X-12700Y-190500D03*
X-12700Y-165100D03*
X-12700Y-139700D03*
X-12700Y-114300D03*
X-12700Y-88900D03*
X-12700Y-63500D03*
X-12700Y-38100D03*
X-12700Y-12700D03*
X-12700Y12700D03*
X-12700Y38100D03*
X-12700Y63500D03*
X-12700Y88900D03*
X-12700Y114300D03*
X-12700Y139700D03*
X-12700Y165100D03*
X-12700Y190500D03*
X-12700Y215900D03*
X-12700Y241300D03*
X12700Y241300D03*
X12700Y215900D03*
X12700Y190500D03*
X12700Y165100D03*
X12700Y139700D03*
X12700Y114300D03*
X12700Y88900D03*
X12700Y63500D03*
X12700Y38100D03*
X12700Y12700D03*
X12700Y-12700D03*
X12700Y-38100D03*
X12700Y-63500D03*
X12700Y-88900D03*
X12700Y-114300D03*
X12700Y-139700D03*
X12700Y-190500D03*
X12700Y-165100D03*
X12700Y-215900D03*
X12700Y-241300D03*
D16*
X-160000Y307000D03*
X-135000Y307000D03*
X-185000Y307000D03*
D18*
X-95200Y-291300D03*
X-95200Y-316700D03*
X-120600Y-291300D03*
X-120600Y-316700D03*
X-146000Y-291300D03*
X-146000Y-316700D03*
X-171400Y-291300D03*
X-171400Y-316700D03*
X-196800Y-291300D03*
X-196800Y-316700D03*
D19*
X-231300Y-221000D03*
X-256700Y-221000D03*
X-231300Y-195600D03*
X-256700Y-195600D03*
X-231300Y-170200D03*
X-256700Y-170200D03*
X-231300Y-144800D03*
X-256700Y-144800D03*
X-231300Y-119400D03*
X-256700Y-119400D03*
X-231300Y-94000D03*
X-256700Y-94000D03*
X-231300Y-68600D03*
X-256700Y-68600D03*
D20*
X-57300Y-228100D03*
X-82700Y-228100D03*
X-57300Y-202700D03*
X-82700Y-202700D03*
X-57300Y-177300D03*
X-82700Y-177300D03*
X-57300Y-151900D03*
X-82700Y-151900D03*
D21*
X-99000Y231500D03*
X-99000Y248500D03*
X-78000Y231500D03*
X-78000Y248500D03*
D22*
X-62202Y250202D03*
X-174000Y-94000D03*
X-43694Y60000D03*
X-42000Y113000D03*
X-126870Y72130D03*
X-250000Y245000D03*
X-240000Y170000D03*
X-176736Y44196D03*
X-174000Y67000D03*
X-110000Y-64008D03*
X-90000Y215000D03*
X-177000Y-234000D03*
X-175000Y115000D03*
X-135000Y133932D03*
X-148562Y114801D03*
X-107370Y20941D03*
X-90000Y-48343D03*
X-96426Y-21426D03*
X-90000Y-101068D03*
X-175000Y130000D03*
X-129266Y126814D03*
X-136544Y113967D03*
X-106222Y30029D03*
X-80912Y-48000D03*
X-90000Y-15000D03*
X-33842Y-57940D03*
X-59898Y-84898D03*
X-80000Y-85000D03*
X-80000Y-101068D03*
X-148889Y128889D03*
X-126458Y140000D03*
X-77138Y-75000D03*
X-39910Y-70076D03*
X-130000Y240000D03*
X-187370Y44570D03*
X-165194Y73755D03*
X-116451Y8549D03*
X-190566Y-234630D03*
X-194912Y-253370D03*
X-141068Y-270000D03*
X-117327Y-208968D03*
X-107431Y-132569D03*
X-116000Y-150753D03*
X-158116Y-233630D03*
X-176000Y-253370D03*
X-141068Y-250000D03*
X-121179Y-228821D03*
X-91000Y68000D03*
X-155630Y135000D03*
X-189195Y160805D03*
X-103829Y89834D03*
X-116763Y75793D03*
X-101579Y60671D03*
X-95002Y120002D03*
X-101426Y108574D03*
X-175000Y165000D03*
X-131000Y176000D03*
X-30000Y-160000D03*
X-48000Y-166000D03*
X-36068Y-82212D03*
X-118872Y-271272D03*
X-155000Y-305000D03*
X-29381Y-215619D03*
X-27006Y-185000D03*
X-228600Y-243070D03*
X-223958Y-182880D03*
X-248016Y-242936D03*
X-261267Y-256187D03*
X-40659Y-284341D03*
X-31068Y-308932D03*
X27248Y127000D03*
X-25908Y76200D03*
X-214588Y4540D03*
X-214588Y-192540D03*
X-133412Y-192540D03*
X-133412Y4540D03*
X-185088Y-253370D03*
X-141068Y-260000D03*
X-120753Y-218395D03*
X-204000Y-253370D03*
X-146101Y-277819D03*
X-114806Y-198637D03*
X-161582Y44570D03*
X-153970Y63310D03*
X-126530Y13910D03*
X-154000Y76823D03*
X-133134Y50116D03*
X-57912Y-48000D03*
X-57912Y-32306D03*
X-171979Y79823D03*
X-129971Y61494D03*
X-67000Y-48000D03*
X-67000Y-29306D03*
X-36068Y-100000D03*
X-50000Y-95000D03*
M02*
