M48
;GenerationSoftware,Autodesk,EAGLE,9.6.2*%
;CreationDate,2023-11-29T07:40:49Z*%
FMAT,2
ICI,OFF
METRIC,TZ,000.000
T5C0.350
T4C0.914
T3C1.000
T2C1.016
T1C1.200
%
G90
M71
T1
X-1270Y-11430
X1270Y-19050
X-18366Y14597
X-20906Y14597
X-23446Y14597
X-25986Y14597
X-18603Y18088
X-18603Y20628
X-18603Y23158
X-26223Y18088
X-26223Y20628
X-26223Y23158
X1270Y-16510
X1270Y-21590
X1270Y-24130
X-8270Y0
X-5730Y0
X-1270Y-24130
X-1270Y-21590
X-1270Y-19050
X-1270Y-16510
X-1270Y-13970
X-1270Y-8890
X-1270Y-6350
X-1270Y-3810
X-1270Y-1270
X-1270Y1270
X-1270Y3810
X-1270Y6350
X-1270Y8890
X-1270Y11430
X-1270Y13970
X-1270Y16510
X-1270Y19050
X-1270Y21590
X-1270Y24130
X1270Y24130
X1270Y21590
X1270Y19050
X1270Y16510
X1270Y13970
X1270Y11430
X1270Y8890
X1270Y6350
X1270Y3810
X1270Y1270
X1270Y-1270
X1270Y-3810
X1270Y-6350
X1270Y-8890
X1270Y-11430
X1270Y-13970
T2
X-8270Y-15190
X-5730Y-22810
X-8270Y-22810
X-5730Y-20270
X-8270Y-20270
X-5730Y-17730
X-8270Y-17730
X-5730Y-15190
T3
X-7000Y30700
X-9500Y30700
X-4500Y30700
X-16000Y30700
X-13500Y30700
X-18500Y30700
T4
X-17140Y-31670
X-19680Y-31670
X-23130Y-22100
X-25670Y-22100
X-23130Y-19560
X-25670Y-19560
X-23130Y-17020
X-25670Y-17020
X-23130Y-14480
X-25670Y-14480
X-23130Y-11940
X-25670Y-11940
X-23130Y-9400
X-25670Y-9400
X-23130Y-6860
X-25670Y-6860
X-9520Y-29130
X-9520Y-31670
X-12060Y-29130
X-12060Y-31670
X-14600Y-29130
X-14600Y-31670
X-17140Y-29130
X-19680Y-29130
T5
X-12997Y6149
X-6700Y-4800
X-8091Y-4800
X-3607Y-10000
X-5000Y-9500
X-6220Y25020
X-17400Y-9400
X-4369Y6000
X-4200Y11300
X-12687Y7213
X-25000Y24500
X-24000Y17000
X-17674Y4420
X-17400Y6700
X-11000Y-6401
X-9000Y21500
X-17700Y-23400
X-17500Y11500
X-13500Y13393
X-14856Y11480
X-10737Y2094
X-9000Y-4834
X-9643Y-2143
X-9000Y-10107
X-17500Y13000
X-6700Y-2931
X-12927Y12681
X-13654Y11397
X-10622Y3003
X-9000Y-1500
X-3384Y-5794
X-5990Y-8490
X-8000Y-8500
X-8000Y-10107
X-14889Y12889
X-12646Y14000
X-7714Y-7500
X-3991Y-7008
X-13000Y24000
X-18737Y4457
X-16519Y7376
X-11645Y855
X-19057Y-23463
X-19491Y-25337
X-14107Y-27000
X-11733Y-20897
X-10743Y-13257
X-11600Y-15075
X-15812Y-23363
X-17600Y-25337
X-14107Y-25000
X-12118Y-22882
X-9100Y6800
X-15563Y13500
X-18920Y16080
X-10383Y8983
X-11676Y7579
X-10158Y6067
X-9500Y12000
X-10143Y10857
X-17500Y16500
X-13100Y17600
X-3000Y-16000
X-4800Y-16600
X-3607Y-8221
X-11887Y-27127
X-15500Y-30500
X-2938Y-21562
X-2701Y-18500
X-22860Y-24307
X-22396Y-18288
X-3107Y-30893
X-24802Y-24294
X-26127Y-25619
X-4066Y-28434
X2725Y12700
X-2591Y7620
X-21459Y454
X-21459Y-19254
X-13341Y-19254
X-13341Y454
X-18509Y-25337
X-14107Y-26000
X-12075Y-21839
X-20400Y-25337
X-14610Y-27782
X-11481Y-19864
X-16158Y4457
X-15397Y6331
X-12653Y1391
X-15400Y7682
X-13313Y5012
X-5791Y-4800
X-5791Y-3231
X-17198Y7982
M30